<?xml version="1.0" encoding="UTF-8" standalone="no"?><svg xmlns="http://www.w3.org/2000/svg" xmlns:xlink="http://www.w3.org/1999/xlink" clip-rule="evenodd" stroke-miterlimit="4.00" viewBox="0 0 960 104"><desc>SVG generated by Keynote</desc><defs></defs><g transform="matrix(1.00, 0.00, -0.00, -1.00, 0.0, 104.0)"><text xml:space="preserve" font-family="FiraMono-Regular" font-size="28.0" fill="#FEFFFF" transform="matrix(1.00, 0.00, -0.00, -1.00, -1.0, 86.0)">&lt;</text><text xml:space="preserve" font-family="FiraMono-Regular" font-size="28.0" fill="#FEFFFF" transform="matrix(1.00, 0.00, -0.00, -1.00, 15.8, 86.0)">a</text><text xml:space="preserve" font-family="FiraMono-Regular" font-size="28.0" fill="#FEFFFF" transform="matrix(1.00, 0.00, -0.00, -1.00, 32.6, 86.0)">-</text><text xml:space="preserve" font-family="FiraMono-Bold" font-weight="bold" font-size="28.0" fill="#FE3772" transform="matrix(1.00, 0.00, -0.00, -1.00, 49.4, 86.0)">s</text><text xml:space="preserve" font-family="FiraMono-Bold" font-weight="bold" font-size="28.0" fill="#FE3772" transform="matrix(1.00, 0.00, -0.00, -1.00, 66.2, 86.0)">c</text><text xml:space="preserve" font-family="FiraMono-Bold" font-weight="bold" font-size="28.0" fill="#FE3772" transform="matrix(1.00, 0.00, -0.00, -1.00, 83.0, 86.0)">e</text><text xml:space="preserve" font-family="FiraMono-Bold" font-weight="bold" font-size="28.0" fill="#FE3772" transform="matrix(1.00, 0.00, -0.00, -1.00, 99.8, 86.0)">n</text><text xml:space="preserve" font-family="FiraMono-Bold" font-weight="bold" font-size="28.0" fill="#FE3772" transform="matrix(1.00, 0.00, -0.00, -1.00, 116.6, 86.0)">e</text><text xml:space="preserve" font-family="FiraMono-Regular" font-size="28.0" fill="#FEFFFF" transform="matrix(1.00, 0.00, -0.00, -1.00, 133.4, 86.0)">&gt;</text><text xml:space="preserve" font-family="FiraMono-Regular" font-size="28.0" fill="#FEFFFF" transform="matrix(1.00, 0.00, -0.00, -1.00, 150.2, 86.0)"> </text><text xml:space="preserve" font-family="FiraMono-Regular" font-size="28.0" fill="#FEFFFF" transform="matrix(1.00, 0.00, -0.00, -1.00, 17.0, 46.0)">&lt;</text><text xml:space="preserve" font-family="FiraMono-Regular" font-size="28.0" fill="#FEFFFF" transform="matrix(1.00, 0.00, -0.00, -1.00, 33.8, 46.0)">a</text><text xml:space="preserve" font-family="FiraMono-Regular" font-size="28.0" fill="#FEFFFF" transform="matrix(1.00, 0.00, -0.00, -1.00, 50.6, 46.0)">-</text><text xml:space="preserve" font-family="FiraMono-Bold" font-weight="bold" font-size="28.0" fill="#FEFFFF" transform="matrix(1.00, 0.00, -0.00, -1.00, 67.4, 46.0)">s</text><text xml:space="preserve" font-family="FiraMono-Bold" font-weight="bold" font-size="28.0" fill="#FEFFFF" transform="matrix(1.00, 0.00, -0.00, -1.00, 84.2, 46.0)">k</text><text xml:space="preserve" font-family="FiraMono-Bold" font-weight="bold" font-size="28.0" fill="#FEFFFF" transform="matrix(1.00, 0.00, -0.00, -1.00, 101.0, 46.0)">y</text><text xml:space="preserve" font-family="FiraMono-Regular" font-size="28.0" fill="#FEFFFF" transform="matrix(1.00, 0.00, -0.00, -1.00, 117.8, 46.0)"> </text><text xml:space="preserve" font-family="FiraMono-Bold" font-weight="bold" font-size="28.0" fill="#10DAE2" transform="matrix(1.00, 0.00, -0.00, -1.00, 134.6, 46.0)">s</text><text xml:space="preserve" font-family="FiraMono-Bold" font-weight="bold" font-size="28.0" fill="#10DAE2" transform="matrix(1.00, 0.00, -0.00, -1.00, 151.4, 46.0)">r</text><text xml:space="preserve" font-family="FiraMono-Bold" font-weight="bold" font-size="28.0" fill="#10DAE2" transform="matrix(1.00, 0.00, -0.00, -1.00, 168.2, 46.0)">c</text><text xml:space="preserve" font-family="FiraMono-Regular" font-size="28.0" fill="#FEFFFF" transform="matrix(1.00, 0.00, -0.00, -1.00, 185.0, 46.0)">=</text><text xml:space="preserve" font-family="FiraMono-Regular" font-size="28.0" fill="#FEFFFF" transform="matrix(1.00, 0.00, -0.00, -1.00, 201.8, 46.0)">"</text><text xml:space="preserve" font-family="FiraMono-Regular" font-size="28.0" fill="#FEFFFF" transform="matrix(1.00, 0.00, -0.00, -1.00, 218.6, 46.0)">p</text><text xml:space="preserve" font-family="FiraMono-Regular" font-size="28.0" fill="#FEFFFF" transform="matrix(1.00, 0.00, -0.00, -1.00, 235.4, 46.0)">u</text><text xml:space="preserve" font-family="FiraMono-Regular" font-size="28.0" fill="#FEFFFF" transform="matrix(1.00, 0.00, -0.00, -1.00, 252.2, 46.0)">y</text><text xml:space="preserve" font-family="FiraMono-Regular" font-size="28.0" fill="#FEFFFF" transform="matrix(1.00, 0.00, -0.00, -1.00, 269.0, 46.0)">d</text><text xml:space="preserve" font-family="FiraMono-Regular" font-size="28.0" fill="#FEFFFF" transform="matrix(1.00, 0.00, -0.00, -1.00, 285.8, 46.0)">e</text><text xml:space="preserve" font-family="FiraMono-Regular" font-size="28.0" fill="#FEFFFF" transform="matrix(1.00, 0.00, -0.00, -1.00, 302.6, 46.0)">s</text><text xml:space="preserve" font-family="FiraMono-Regular" font-size="28.0" fill="#FEFFFF" transform="matrix(1.00, 0.00, -0.00, -1.00, 319.4, 46.0)">a</text><text xml:space="preserve" font-family="FiraMono-Regular" font-size="28.0" fill="#FEFFFF" transform="matrix(1.00, 0.00, -0.00, -1.00, 336.2, 46.0)">n</text><text xml:space="preserve" font-family="FiraMono-Regular" font-size="28.0" fill="#FEFFFF" transform="matrix(1.00, 0.00, -0.00, -1.00, 353.0, 46.0)">c</text><text xml:space="preserve" font-family="FiraMono-Regular" font-size="28.0" fill="#FEFFFF" transform="matrix(1.00, 0.00, -0.00, -1.00, 369.8, 46.0)">y</text><text xml:space="preserve" font-family="FiraMono-Regular" font-size="28.0" fill="#FEFFFF" transform="matrix(1.00, 0.00, -0.00, -1.00, 386.6, 46.0)">.</text><text xml:space="preserve" font-family="FiraMono-Regular" font-size="28.0" fill="#FEFFFF" transform="matrix(1.00, 0.00, -0.00, -1.00, 403.4, 46.0)">j</text><text xml:space="preserve" font-family="FiraMono-Regular" font-size="28.0" fill="#FEFFFF" transform="matrix(1.00, 0.00, -0.00, -1.00, 420.2, 46.0)">p</text><text xml:space="preserve" font-family="FiraMono-Regular" font-size="28.0" fill="#FEFFFF" transform="matrix(1.00, 0.00, -0.00, -1.00, 437.0, 46.0)">g</text><text xml:space="preserve" font-family="FiraMono-Regular" font-size="28.0" fill="#FEFFFF" transform="matrix(1.00, 0.00, -0.00, -1.00, 453.8, 46.0)">"</text><text xml:space="preserve" font-family="FiraMono-Regular" font-size="28.0" fill="#FEFFFF" transform="matrix(1.00, 0.00, -0.00, -1.00, 470.6, 46.0)"> </text><text xml:space="preserve" font-family="FiraMono-Bold" font-weight="bold" font-size="28.0" fill="#10DAE2" transform="matrix(1.00, 0.00, -0.00, -1.00, 487.4, 46.0)">r</text><text xml:space="preserve" font-family="FiraMono-Bold" font-weight="bold" font-size="28.0" fill="#10DAE2" transform="matrix(1.00, 0.00, -0.00, -1.00, 504.2, 46.0)">o</text><text xml:space="preserve" font-family="FiraMono-Bold" font-weight="bold" font-size="28.0" fill="#10DAE2" transform="matrix(1.00, 0.00, -0.00, -1.00, 521.0, 46.0)">t</text><text xml:space="preserve" font-family="FiraMono-Bold" font-weight="bold" font-size="28.0" fill="#10DAE2" transform="matrix(1.00, 0.00, -0.00, -1.00, 537.8, 46.0)">a</text><text xml:space="preserve" font-family="FiraMono-Bold" font-weight="bold" font-size="28.0" fill="#10DAE2" transform="matrix(1.00, 0.00, -0.00, -1.00, 554.6, 46.0)">t</text><text xml:space="preserve" font-family="FiraMono-Bold" font-weight="bold" font-size="28.0" fill="#10DAE2" transform="matrix(1.00, 0.00, -0.00, -1.00, 571.4, 46.0)">i</text><text xml:space="preserve" font-family="FiraMono-Bold" font-weight="bold" font-size="28.0" fill="#10DAE2" transform="matrix(1.00, 0.00, -0.00, -1.00, 588.2, 46.0)">o</text><text xml:space="preserve" font-family="FiraMono-Bold" font-weight="bold" font-size="28.0" fill="#10DAE2" transform="matrix(1.00, 0.00, -0.00, -1.00, 605.0, 46.0)">n</text><text xml:space="preserve" font-family="FiraMono-Regular" font-size="28.0" fill="#FEFFFF" transform="matrix(1.00, 0.00, -0.00, -1.00, 621.8, 46.0)">=</text><text xml:space="preserve" font-family="FiraMono-Regular" font-size="28.0" fill="#FEFFFF" transform="matrix(1.00, 0.00, -0.00, -1.00, 638.6, 46.0)">"</text><text xml:space="preserve" font-family="FiraMono-Regular" font-size="28.0" fill="#FEFFFF" transform="matrix(1.00, 0.00, -0.00, -1.00, 655.4, 46.0)">0</text><text xml:space="preserve" font-family="FiraMono-Regular" font-size="28.0" fill="#FEFFFF" transform="matrix(1.00, 0.00, -0.00, -1.00, 672.2, 46.0)"> </text><text xml:space="preserve" font-family="FiraMono-Regular" font-size="28.0" fill="#FEFFFF" transform="matrix(1.00, 0.00, -0.00, -1.00, 689.0, 46.0)">-</text><text xml:space="preserve" font-family="FiraMono-Regular" font-size="28.0" fill="#FEFFFF" transform="matrix(1.00, 0.00, -0.00, -1.00, 705.8, 46.0)">1</text><text xml:space="preserve" font-family="FiraMono-Regular" font-size="28.0" fill="#FEFFFF" transform="matrix(1.00, 0.00, -0.00, -1.00, 722.6, 46.0)">3</text><text xml:space="preserve" font-family="FiraMono-Regular" font-size="28.0" fill="#FEFFFF" transform="matrix(1.00, 0.00, -0.00, -1.00, 739.4, 46.0)">0</text><text xml:space="preserve" font-family="FiraMono-Regular" font-size="28.0" fill="#FEFFFF" transform="matrix(1.00, 0.00, -0.00, -1.00, 756.2, 46.0)"> </text><text xml:space="preserve" font-family="FiraMono-Regular" font-size="28.0" fill="#FEFFFF" transform="matrix(1.00, 0.00, -0.00, -1.00, 773.0, 46.0)">0</text><text xml:space="preserve" font-family="FiraMono-Regular" font-size="28.0" fill="#FEFFFF" transform="matrix(1.00, 0.00, -0.00, -1.00, 789.8, 46.0)">"</text><text xml:space="preserve" font-family="FiraMono-Regular" font-size="28.0" fill="#FEFFFF" transform="matrix(1.00, 0.00, -0.00, -1.00, 806.6, 46.0)">&gt;</text><text xml:space="preserve" font-family="FiraMono-Regular" font-size="28.0" fill="#FEFFFF" transform="matrix(1.00, 0.00, -0.00, -1.00, 823.4, 46.0)">&lt;</text><text xml:space="preserve" font-family="FiraMono-Regular" font-size="28.0" fill="#FEFFFF" transform="matrix(1.00, 0.00, -0.00, -1.00, 840.2, 46.0)">/</text><text xml:space="preserve" font-family="FiraMono-Regular" font-size="28.0" fill="#FEFFFF" transform="matrix(1.00, 0.00, -0.00, -1.00, 857.0, 46.0)">a</text><text xml:space="preserve" font-family="FiraMono-Regular" font-size="28.0" fill="#FEFFFF" transform="matrix(1.00, 0.00, -0.00, -1.00, 873.8, 46.0)">-</text><text xml:space="preserve" font-family="FiraMono-Bold" font-weight="bold" font-size="28.0" fill="#FEFFFF" transform="matrix(1.00, 0.00, -0.00, -1.00, 890.6, 46.0)">s</text><text xml:space="preserve" font-family="FiraMono-Bold" font-weight="bold" font-size="28.0" fill="#FEFFFF" transform="matrix(1.00, 0.00, -0.00, -1.00, 907.4, 46.0)">k</text><text xml:space="preserve" font-family="FiraMono-Bold" font-weight="bold" font-size="28.0" fill="#FEFFFF" transform="matrix(1.00, 0.00, -0.00, -1.00, 924.2, 46.0)">y</text><text xml:space="preserve" font-family="FiraMono-Regular" font-size="28.0" fill="#FEFFFF" transform="matrix(1.00, 0.00, -0.00, -1.00, 941.0, 46.0)">&gt;</text><text xml:space="preserve" font-family="FiraMono-Regular" font-size="28.0" fill="#FEFFFF" transform="matrix(1.00, 0.00, -0.00, -1.00, 957.8, 46.0)"> </text><text xml:space="preserve" font-family="FiraMono-Regular" font-size="28.0" fill="#FEFFFF" transform="matrix(1.00, 0.00, -0.00, -1.00, -1.0, 6.0)">&lt;</text><text xml:space="preserve" font-family="FiraMono-Regular" font-size="28.0" fill="#FEFFFF" transform="matrix(1.00, 0.00, -0.00, -1.00, 15.8, 6.0)">/</text><text xml:space="preserve" font-family="FiraMono-Regular" font-size="28.0" fill="#FEFFFF" transform="matrix(1.00, 0.00, -0.00, -1.00, 32.6, 6.0)">a</text><text xml:space="preserve" font-family="FiraMono-Regular" font-size="28.0" fill="#FEFFFF" transform="matrix(1.00, 0.00, -0.00, -1.00, 49.4, 6.0)">-</text><text xml:space="preserve" font-family="FiraMono-Bold" font-weight="bold" font-size="28.0" fill="#FE3772" transform="matrix(1.00, 0.00, -0.00, -1.00, 66.2, 6.0)">s</text><text xml:space="preserve" font-family="FiraMono-Bold" font-weight="bold" font-size="28.0" fill="#FE3772" transform="matrix(1.00, 0.00, -0.00, -1.00, 83.0, 6.0)">c</text><text xml:space="preserve" font-family="FiraMono-Bold" font-weight="bold" font-size="28.0" fill="#FE3772" transform="matrix(1.00, 0.00, -0.00, -1.00, 99.8, 6.0)">e</text><text xml:space="preserve" font-family="FiraMono-Bold" font-weight="bold" font-size="28.0" fill="#FE3772" transform="matrix(1.00, 0.00, -0.00, -1.00, 116.6, 6.0)">n</text><text xml:space="preserve" font-family="FiraMono-Bold" font-weight="bold" font-size="28.0" fill="#FE3772" transform="matrix(1.00, 0.00, -0.00, -1.00, 133.4, 6.0)">e</text><text xml:space="preserve" font-family="FiraMono-Regular" font-size="28.0" fill="#FEFFFF" transform="matrix(1.00, 0.00, -0.00, -1.00, 150.2, 6.0)">&gt;</text></g></svg>