<?xml version="1.0" encoding="UTF-8" standalone="no"?><svg xmlns="http://www.w3.org/2000/svg" xmlns:xlink="http://www.w3.org/1999/xlink" clip-rule="evenodd" stroke-miterlimit="4.00" viewBox="0 0 235 59"><desc>SVG generated by Keynote</desc><defs></defs><g transform="matrix(1.00, 0.00, -0.00, -1.00, 0.0, 59.0)"><text xml:space="preserve" font-family="Helvetica" font-size="48.0" fill="#FE3772" transform="matrix(1.00, 0.00, -0.00, -1.00, 0.0, 12.0)">@</text><text xml:space="preserve" font-family="Helvetica" font-size="48.0" fill="#FE3772" transform="matrix(1.00, 0.00, -0.00, -1.00, 48.7, 12.0)">S</text><text xml:space="preserve" font-family="Helvetica" font-size="48.0" fill="#FE3772" transform="matrix(1.00, 0.00, -0.00, -1.00, 80.7, 12.0)">u</text><text xml:space="preserve" font-family="Helvetica" font-size="48.0" fill="#FE3772" transform="matrix(1.00, 0.00, -0.00, -1.00, 107.5, 12.0)">r</text><text xml:space="preserve" font-family="Helvetica" font-size="48.0" fill="#FE3772" transform="matrix(1.00, 0.00, -0.00, -1.00, 123.4, 12.0)">e</text><text xml:space="preserve" font-family="Helvetica" font-size="48.0" fill="#FE3772" transform="matrix(1.00, 0.00, -0.00, -1.00, 150.1, 12.0)">B</text><text xml:space="preserve" font-family="Helvetica" font-size="48.0" fill="#FE3772" transform="matrix(1.00, 0.00, -0.00, -1.00, 182.2, 12.0)">a</text><text xml:space="preserve" font-family="Helvetica" font-size="48.0" fill="#FE3772" transform="matrix(1.00, 0.00, -0.00, -1.00, 208.9, 12.0)">k</text><g><clipPath id="clip-27"><path d="M -0.8 5.8 L 233.0 5.8 L 233.0 10.1 L -0.8 10.1 Z M -0.8 5.8 "></path></clipPath><g clip-path="url(#clip-27)"><path d="M 463.0 76.2 L 695.8 76.2 " fill="none" stroke="#FE3772" stroke-width="2.37" stroke-miterlimit="0.00" transform="matrix(1.00, 0.00, 0.00, -1.00, -462.8, 84.2)"></path></g></g></g></svg>