<?xml version="1.0" encoding="UTF-8" standalone="no"?><svg xmlns="http://www.w3.org/2000/svg" xmlns:xlink="http://www.w3.org/1999/xlink" clip-rule="evenodd" stroke-miterlimit="4.00" viewBox="0 0 1920 1080"><desc>SVG generated by Keynote</desc><defs></defs><g transform="matrix(1.00, 0.00, -0.00, -1.00, 0.0, 1080.0)"><path d="M 0.0 1080.0 L 1920.0 1080.0 L 1920.0 0.0 L 0.0 0.0 Z M 0.0 1080.0 " fill="#FEFFFE"></path><image xlink:href="68DFBF0CF7DE85CF01986FB0F2EC744A.png" width="632.00" height="541.00" transform="matrix(1.77, 0.00, -0.00, -1.77, 400.0, 1108.0)"></image><text xml:space="preserve" font-family="Helvetica" font-size="48.0" fill="#FE3772" transform="matrix(1.00, 0.00, -0.00, -1.00, 794.0, 86.0)">@</text><text xml:space="preserve" font-family="Helvetica" font-size="48.0" fill="#FE3772" transform="matrix(1.00, 0.00, -0.00, -1.00, 842.7, 86.0)">i</text><text xml:space="preserve" font-family="Helvetica" font-size="48.0" fill="#FE3772" transform="matrix(1.00, 0.00, -0.00, -1.00, 853.4, 86.0)">m</text><text xml:space="preserve" font-family="Helvetica" font-size="48.0" fill="#FE3772" transform="matrix(1.00, 0.00, -0.00, -1.00, 893.4, 86.0)">p</text><text xml:space="preserve" font-family="Helvetica" font-size="48.0" fill="#FE3772" transform="matrix(1.00, 0.00, -0.00, -1.00, 920.1, 86.0)">r</text><text xml:space="preserve" font-family="Helvetica" font-size="48.0" fill="#FE3772" transform="matrix(1.00, 0.00, -0.00, -1.00, 936.1, 86.0)">o</text><text xml:space="preserve" font-family="Helvetica" font-size="48.0" fill="#FE3772" transform="matrix(1.00, 0.00, -0.00, -1.00, 962.8, 86.0)">n</text><text xml:space="preserve" font-family="Helvetica" font-size="48.0" fill="#FE3772" transform="matrix(1.00, 0.00, -0.00, -1.00, 989.5, 86.0)">u</text><text xml:space="preserve" font-family="Helvetica" font-size="48.0" fill="#FE3772" transform="matrix(1.00, 0.00, -0.00, -1.00, 1016.2, 86.0)">n</text><text xml:space="preserve" font-family="Helvetica" font-size="48.0" fill="#FE3772" transform="matrix(1.00, 0.00, -0.00, -1.00, 1042.9, 86.0)">c</text><text xml:space="preserve" font-family="Helvetica" font-size="48.0" fill="#FE3772" transform="matrix(1.00, 0.00, -0.00, -1.00, 1066.9, 86.0)">i</text><text xml:space="preserve" font-family="Helvetica" font-size="48.0" fill="#FE3772" transform="matrix(1.00, 0.00, -0.00, -1.00, 1077.6, 86.0)">a</text><text xml:space="preserve" font-family="Helvetica" font-size="48.0" fill="#FE3772" transform="matrix(1.00, 0.00, -0.00, -1.00, 1104.3, 86.0)">b</text><text xml:space="preserve" font-family="Helvetica" font-size="48.0" fill="#FE3772" transform="matrix(1.00, 0.00, -0.00, -1.00, 1131.0, 86.0)">l</text><text xml:space="preserve" font-family="Helvetica" font-size="48.0" fill="#FE3772" transform="matrix(1.00, 0.00, -0.00, -1.00, 1141.7, 86.0)">e</text><g><clipPath id="clip-29"><path d="M 792.5 79.8 L 1167.8 79.8 L 1167.8 84.1 L 792.5 84.1 Z M 792.5 79.8 "></path></clipPath><g clip-path="url(#clip-29)"><path d="M 392.2 76.2 L 766.5 76.2 " fill="none" stroke="#FE3772" stroke-width="2.37" stroke-miterlimit="0.00" transform="matrix(1.00, 0.00, 0.00, -1.00, 401.2, 158.2)"></path></g></g></g></svg>