<?xml version="1.0" encoding="UTF-8" standalone="no"?><svg xmlns="http://www.w3.org/2000/svg" xmlns:xlink="http://www.w3.org/1999/xlink" clip-rule="evenodd" stroke-miterlimit="4.00" viewBox="0 0 1920 1080"><desc>SVG generated by Keynote</desc><defs></defs><g transform="matrix(1.00, 0.00, -0.00, -1.00, 0.0, 1080.0)"><path d="M 0.0 1080.0 L 1920.0 1080.0 L 1920.0 0.0 L 0.0 0.0 Z M 0.0 1080.0 " fill="#000000"></path><text xml:space="preserve" font-family="Helvetica-Bold" font-weight="bold" font-size="40.0" fill="#FEFFFF" transform="matrix(1.00, 0.00, -0.00, -1.00, 109.0, 393.0)">M</text><text xml:space="preserve" font-family="Helvetica-Bold" font-weight="bold" font-size="40.0" fill="#FEFFFF" transform="matrix(1.00, 0.00, -0.00, -1.00, 142.3, 393.0)">i</text><text xml:space="preserve" font-family="Helvetica-Bold" font-weight="bold" font-size="40.0" fill="#FEFFFF" transform="matrix(1.00, 0.00, -0.00, -1.00, 153.4, 393.0)">c</text><text xml:space="preserve" font-family="Helvetica-Bold" font-weight="bold" font-size="40.0" fill="#FEFFFF" transform="matrix(1.00, 0.00, -0.00, -1.00, 175.7, 393.0)">r</text><text xml:space="preserve" font-family="Helvetica-Bold" font-weight="bold" font-size="40.0" fill="#FEFFFF" transform="matrix(1.00, 0.00, -0.00, -1.00, 191.3, 393.0)">o</text><text xml:space="preserve" font-family="Helvetica-Bold" font-weight="bold" font-size="40.0" fill="#FEFFFF" transform="matrix(1.00, 0.00, -0.00, -1.00, 215.7, 393.0)">s</text><text xml:space="preserve" font-family="Helvetica-Bold" font-weight="bold" font-size="40.0" fill="#FEFFFF" transform="matrix(1.00, 0.00, -0.00, -1.00, 237.9, 393.0)">o</text><text xml:space="preserve" font-family="Helvetica-Bold" font-weight="bold" font-size="40.0" fill="#FEFFFF" transform="matrix(1.00, 0.00, -0.00, -1.00, 262.4, 393.0)">f</text><text xml:space="preserve" font-family="Helvetica-Bold" font-weight="bold" font-size="40.0" fill="#FEFFFF" transform="matrix(1.00, 0.00, -0.00, -1.00, 275.7, 393.0)">t</text><text xml:space="preserve" font-family="Helvetica-Bold" font-weight="bold" font-size="40.0" fill="#FEFFFF" transform="matrix(1.00, 0.00, -0.00, -1.00, 109.0, 345.0)">E</text><text xml:space="preserve" font-family="Helvetica-Bold" font-weight="bold" font-size="40.0" fill="#FEFFFF" transform="matrix(1.00, 0.00, -0.00, -1.00, 135.7, 345.0)">d</text><text xml:space="preserve" font-family="Helvetica-Bold" font-weight="bold" font-size="40.0" fill="#FEFFFF" transform="matrix(1.00, 0.00, -0.00, -1.00, 160.1, 345.0)">g</text><text xml:space="preserve" font-family="Helvetica-Bold" font-weight="bold" font-size="40.0" fill="#FEFFFF" transform="matrix(1.00, 0.00, -0.00, -1.00, 184.5, 345.0)">e</text><g><clipPath id="clip-52"><path d="M 587.0 500.0 L 782.0 500.0 L 782.0 695.0 L 587.0 695.0 Z M 587.0 500.0 "></path></clipPath><g clip-path="url(#clip-52)"><image xlink:href="../../0A59B8C6-1C99-4AB1-90F7-053E7D99F5CB/assets/3EE3D0300554E1DCEADBE16FAB7BCB58.png" width="1000.00" height="1000.00" transform="matrix(0.22, 0.00, -0.00, -0.22, 575.5, 709.4)"></image></g></g><text xml:space="preserve" font-family="Helvetica-Bold" font-weight="bold" font-size="40.0" fill="#FEFFFF" transform="matrix(1.00, 0.00, -0.00, -1.00, 546.0, 393.0)">O</text><text xml:space="preserve" font-family="Helvetica-Bold" font-weight="bold" font-size="40.0" fill="#FEFFFF" transform="matrix(1.00, 0.00, -0.00, -1.00, 577.1, 393.0)">c</text><text xml:space="preserve" font-family="Helvetica-Bold" font-weight="bold" font-size="40.0" fill="#FEFFFF" transform="matrix(1.00, 0.00, -0.00, -1.00, 599.3, 393.0)">u</text><text xml:space="preserve" font-family="Helvetica-Bold" font-weight="bold" font-size="40.0" fill="#FEFFFF" transform="matrix(1.00, 0.00, -0.00, -1.00, 623.8, 393.0)">l</text><text xml:space="preserve" font-family="Helvetica-Bold" font-weight="bold" font-size="40.0" fill="#FEFFFF" transform="matrix(1.00, 0.00, -0.00, -1.00, 634.9, 393.0)">u</text><text xml:space="preserve" font-family="Helvetica-Bold" font-weight="bold" font-size="40.0" fill="#FEFFFF" transform="matrix(1.00, 0.00, -0.00, -1.00, 659.3, 393.0)">s</text><text xml:space="preserve" font-family="Helvetica-Bold" font-weight="bold" font-size="40.0" fill="#FEFFFF" transform="matrix(1.00, 0.00, -0.00, -1.00, 546.0, 345.0)">C</text><text xml:space="preserve" font-family="Helvetica-Bold" font-weight="bold" font-size="40.0" fill="#FEFFFF" transform="matrix(1.00, 0.00, -0.00, -1.00, 574.9, 345.0)">a</text><text xml:space="preserve" font-family="Helvetica-Bold" font-weight="bold" font-size="40.0" fill="#FEFFFF" transform="matrix(1.00, 0.00, -0.00, -1.00, 597.1, 345.0)">r</text><text xml:space="preserve" font-family="Helvetica-Bold" font-weight="bold" font-size="40.0" fill="#FEFFFF" transform="matrix(1.00, 0.00, -0.00, -1.00, 612.7, 345.0)">m</text><text xml:space="preserve" font-family="Helvetica-Bold" font-weight="bold" font-size="40.0" fill="#FEFFFF" transform="matrix(1.00, 0.00, -0.00, -1.00, 648.3, 345.0)">e</text><text xml:space="preserve" font-family="Helvetica-Bold" font-weight="bold" font-size="40.0" fill="#FEFFFF" transform="matrix(1.00, 0.00, -0.00, -1.00, 670.6, 345.0)">l</text><text xml:space="preserve" font-family="Helvetica-Bold" font-weight="bold" font-size="40.0" fill="#FEFFFF" transform="matrix(1.00, 0.00, -0.00, -1.00, 985.0, 393.0)">G</text><text xml:space="preserve" font-family="Helvetica-Bold" font-weight="bold" font-size="40.0" fill="#FEFFFF" transform="matrix(1.00, 0.00, -0.00, -1.00, 1016.1, 393.0)">o</text><text xml:space="preserve" font-family="Helvetica-Bold" font-weight="bold" font-size="40.0" fill="#FEFFFF" transform="matrix(1.00, 0.00, -0.00, -1.00, 1040.5, 393.0)">o</text><text xml:space="preserve" font-family="Helvetica-Bold" font-weight="bold" font-size="40.0" fill="#FEFFFF" transform="matrix(1.00, 0.00, -0.00, -1.00, 1065.0, 393.0)">g</text><text xml:space="preserve" font-family="Helvetica-Bold" font-weight="bold" font-size="40.0" fill="#FEFFFF" transform="matrix(1.00, 0.00, -0.00, -1.00, 1089.4, 393.0)">l</text><text xml:space="preserve" font-family="Helvetica-Bold" font-weight="bold" font-size="40.0" fill="#FEFFFF" transform="matrix(1.00, 0.00, -0.00, -1.00, 1100.5, 393.0)">e</text><text xml:space="preserve" font-family="Helvetica-Bold" font-weight="bold" font-size="40.0" fill="#FEFFFF" transform="matrix(1.00, 0.00, -0.00, -1.00, 1122.7, 393.0)"> </text><text xml:space="preserve" font-family="Helvetica-Bold" font-weight="bold" font-size="40.0" fill="#FEFFFF" transform="matrix(1.00, 0.00, -0.00, -1.00, 1133.8, 393.0)">C</text><text xml:space="preserve" font-family="Helvetica-Bold" font-weight="bold" font-size="40.0" fill="#FEFFFF" transform="matrix(1.00, 0.00, -0.00, -1.00, 1162.7, 393.0)">h</text><text xml:space="preserve" font-family="Helvetica-Bold" font-weight="bold" font-size="40.0" fill="#FEFFFF" transform="matrix(1.00, 0.00, -0.00, -1.00, 1187.1, 393.0)">r</text><text xml:space="preserve" font-family="Helvetica-Bold" font-weight="bold" font-size="40.0" fill="#FEFFFF" transform="matrix(1.00, 0.00, -0.00, -1.00, 1202.7, 393.0)">o</text><text xml:space="preserve" font-family="Helvetica-Bold" font-weight="bold" font-size="40.0" fill="#FEFFFF" transform="matrix(1.00, 0.00, -0.00, -1.00, 1227.1, 393.0)">m</text><text xml:space="preserve" font-family="Helvetica-Bold" font-weight="bold" font-size="40.0" fill="#FEFFFF" transform="matrix(1.00, 0.00, -0.00, -1.00, 1262.7, 393.0)">e</text><text xml:space="preserve" font-family="Helvetica-Bold" font-weight="bold" font-size="40.0" fill="#FEFFFF" transform="matrix(1.00, 0.00, -0.00, -1.00, 985.0, 345.0)">D</text><text xml:space="preserve" font-family="Helvetica-Bold" font-weight="bold" font-size="40.0" fill="#FEFFFF" transform="matrix(1.00, 0.00, -0.00, -1.00, 1013.9, 345.0)">a</text><text xml:space="preserve" font-family="Helvetica-Bold" font-weight="bold" font-size="40.0" fill="#FEFFFF" transform="matrix(1.00, 0.00, -0.00, -1.00, 1036.1, 345.0)">y</text><text xml:space="preserve" font-family="Helvetica-Bold" font-weight="bold" font-size="40.0" fill="#FEFFFF" transform="matrix(1.00, 0.00, -0.00, -1.00, 1058.4, 345.0)">d</text><text xml:space="preserve" font-family="Helvetica-Bold" font-weight="bold" font-size="40.0" fill="#FEFFFF" transform="matrix(1.00, 0.00, -0.00, -1.00, 1082.8, 345.0)">r</text><text xml:space="preserve" font-family="Helvetica-Bold" font-weight="bold" font-size="40.0" fill="#FEFFFF" transform="matrix(1.00, 0.00, -0.00, -1.00, 1098.4, 345.0)">e</text><text xml:space="preserve" font-family="Helvetica-Bold" font-weight="bold" font-size="40.0" fill="#FEFFFF" transform="matrix(1.00, 0.00, -0.00, -1.00, 1120.7, 345.0)">a</text><text xml:space="preserve" font-family="Helvetica-Bold" font-weight="bold" font-size="40.0" fill="#FEFFFF" transform="matrix(1.00, 0.00, -0.00, -1.00, 1142.9, 345.0)">m</text><text xml:space="preserve" font-family="Helvetica-Bold" font-weight="bold" font-size="40.0" fill="#FEFFFF" transform="matrix(1.00, 0.00, -0.00, -1.00, 1500.0, 393.0)">M</text><text xml:space="preserve" font-family="Helvetica-Bold" font-weight="bold" font-size="40.0" fill="#FEFFFF" transform="matrix(1.00, 0.00, -0.00, -1.00, 1533.3, 393.0)">o</text><text xml:space="preserve" font-family="Helvetica-Bold" font-weight="bold" font-size="40.0" fill="#FEFFFF" transform="matrix(1.00, 0.00, -0.00, -1.00, 1557.7, 393.0)">z</text><text xml:space="preserve" font-family="Helvetica-Bold" font-weight="bold" font-size="40.0" fill="#FEFFFF" transform="matrix(1.00, 0.00, -0.00, -1.00, 1577.7, 393.0)">i</text><text xml:space="preserve" font-family="Helvetica-Bold" font-weight="bold" font-size="40.0" fill="#FEFFFF" transform="matrix(1.00, 0.00, -0.00, -1.00, 1588.9, 393.0)">l</text><text xml:space="preserve" font-family="Helvetica-Bold" font-weight="bold" font-size="40.0" fill="#FEFFFF" transform="matrix(1.00, 0.00, -0.00, -1.00, 1600.0, 393.0)">l</text><text xml:space="preserve" font-family="Helvetica-Bold" font-weight="bold" font-size="40.0" fill="#FEFFFF" transform="matrix(1.00, 0.00, -0.00, -1.00, 1611.1, 393.0)">a</text><text xml:space="preserve" font-family="Helvetica-Bold" font-weight="bold" font-size="40.0" fill="#FEFFFF" transform="matrix(1.00, 0.00, -0.00, -1.00, 1500.0, 345.0)">S</text><text xml:space="preserve" font-family="Helvetica-Bold" font-weight="bold" font-size="40.0" fill="#FEFFFF" transform="matrix(1.00, 0.00, -0.00, -1.00, 1526.7, 345.0)">e</text><text xml:space="preserve" font-family="Helvetica-Bold" font-weight="bold" font-size="40.0" fill="#FEFFFF" transform="matrix(1.00, 0.00, -0.00, -1.00, 1548.9, 345.0)">r</text><text xml:space="preserve" font-family="Helvetica-Bold" font-weight="bold" font-size="40.0" fill="#FEFFFF" transform="matrix(1.00, 0.00, -0.00, -1.00, 1564.5, 345.0)">v</text><text xml:space="preserve" font-family="Helvetica-Bold" font-weight="bold" font-size="40.0" fill="#FEFFFF" transform="matrix(1.00, 0.00, -0.00, -1.00, 1586.8, 345.0)">o</text><text xml:space="preserve" font-family="Helvetica-Bold" font-weight="bold" font-size="90.0" fill="#FEFFFF" transform="matrix(1.00, 0.00, -0.00, -1.00, 298.0, 905.0)">W</text><text xml:space="preserve" font-family="Helvetica-Bold" font-weight="bold" font-size="90.0" fill="#FEFFFF" transform="matrix(1.00, 0.00, -0.00, -1.00, 381.4, 905.0)">e</text><text xml:space="preserve" font-family="Helvetica-Bold" font-weight="bold" font-size="90.0" fill="#FEFFFF" transform="matrix(1.00, 0.00, -0.00, -1.00, 431.4, 905.0)">b</text><text xml:space="preserve" font-family="Helvetica-Bold" font-weight="bold" font-size="90.0" fill="#FEFFFF" transform="matrix(1.00, 0.00, -0.00, -1.00, 486.4, 905.0)">V</text><text xml:space="preserve" font-family="Helvetica-Bold" font-weight="bold" font-size="90.0" fill="#FEFFFF" transform="matrix(1.00, 0.00, -0.00, -1.00, 546.4, 905.0)">R</text><text xml:space="preserve" font-family="Helvetica-Bold" font-weight="bold" font-size="90.0" fill="#FEFFFF" transform="matrix(1.00, 0.00, -0.00, -1.00, 611.4, 905.0)"> </text><text xml:space="preserve" font-family="Helvetica-Bold" font-weight="bold" font-size="90.0" fill="#FEFFFF" transform="matrix(1.00, 0.00, -0.00, -1.00, 636.4, 905.0)">B</text><text xml:space="preserve" font-family="Helvetica-Bold" font-weight="bold" font-size="90.0" fill="#FEFFFF" transform="matrix(1.00, 0.00, -0.00, -1.00, 701.4, 905.0)">r</text><text xml:space="preserve" font-family="Helvetica-Bold" font-weight="bold" font-size="90.0" fill="#FEFFFF" transform="matrix(1.00, 0.00, -0.00, -1.00, 736.5, 905.0)">o</text><text xml:space="preserve" font-family="Helvetica-Bold" font-weight="bold" font-size="90.0" fill="#FEFFFF" transform="matrix(1.00, 0.00, -0.00, -1.00, 791.4, 905.0)">w</text><text xml:space="preserve" font-family="Helvetica-Bold" font-weight="bold" font-size="90.0" fill="#FEFFFF" transform="matrix(1.00, 0.00, -0.00, -1.00, 861.4, 905.0)">s</text><text xml:space="preserve" font-family="Helvetica-Bold" font-weight="bold" font-size="90.0" fill="#FEFFFF" transform="matrix(1.00, 0.00, -0.00, -1.00, 911.5, 905.0)">e</text><text xml:space="preserve" font-family="Helvetica-Bold" font-weight="bold" font-size="90.0" fill="#FEFFFF" transform="matrix(1.00, 0.00, -0.00, -1.00, 961.6, 905.0)">r</text><text xml:space="preserve" font-family="Helvetica-Bold" font-weight="bold" font-size="90.0" fill="#FEFFFF" transform="matrix(1.00, 0.00, -0.00, -1.00, 996.6, 905.0)">s</text><text xml:space="preserve" font-family="Helvetica-Bold" font-weight="bold" font-size="90.0" fill="#FEFFFF" transform="matrix(1.00, 0.00, -0.00, -1.00, 1046.7, 905.0)"> </text><text xml:space="preserve" font-family="Helvetica-Bold" font-weight="bold" font-size="90.0" fill="#FEFFFF" transform="matrix(1.00, 0.00, -0.00, -1.00, 1071.7, 905.0)">i</text><text xml:space="preserve" font-family="Helvetica-Bold" font-weight="bold" font-size="90.0" fill="#FEFFFF" transform="matrix(1.00, 0.00, -0.00, -1.00, 1096.6, 905.0)">n</text><text xml:space="preserve" font-family="Helvetica-Bold" font-weight="bold" font-size="90.0" fill="#FEFFFF" transform="matrix(1.00, 0.00, -0.00, -1.00, 1151.6, 905.0)"> </text><text xml:space="preserve" font-family="Helvetica-Bold" font-weight="bold" font-size="90.0" fill="#FEFFFF" transform="matrix(1.00, 0.00, -0.00, -1.00, 1176.6, 905.0)">t</text><text xml:space="preserve" font-family="Helvetica-Bold" font-weight="bold" font-size="90.0" fill="#FEFFFF" transform="matrix(1.00, 0.00, -0.00, -1.00, 1206.6, 905.0)">h</text><text xml:space="preserve" font-family="Helvetica-Bold" font-weight="bold" font-size="90.0" fill="#FEFFFF" transform="matrix(1.00, 0.00, -0.00, -1.00, 1261.5, 905.0)">e</text><text xml:space="preserve" font-family="Helvetica-Bold" font-weight="bold" font-size="90.0" fill="#FEFFFF" transform="matrix(1.00, 0.00, -0.00, -1.00, 1311.6, 905.0)"> </text><text xml:space="preserve" font-family="Helvetica-Bold" font-weight="bold" font-size="90.0" fill="#FEFFFF" transform="matrix(1.00, 0.00, -0.00, -1.00, 1336.6, 905.0)">w</text><text xml:space="preserve" font-family="Helvetica-Bold" font-weight="bold" font-size="90.0" fill="#FEFFFF" transform="matrix(1.00, 0.00, -0.00, -1.00, 1406.6, 905.0)">o</text><text xml:space="preserve" font-family="Helvetica-Bold" font-weight="bold" font-size="90.0" fill="#FEFFFF" transform="matrix(1.00, 0.00, -0.00, -1.00, 1461.5, 905.0)">r</text><text xml:space="preserve" font-family="Helvetica-Bold" font-weight="bold" font-size="90.0" fill="#FEFFFF" transform="matrix(1.00, 0.00, -0.00, -1.00, 1496.6, 905.0)">k</text><text xml:space="preserve" font-family="Helvetica-Bold" font-weight="bold" font-size="90.0" fill="#FEFFFF" transform="matrix(1.00, 0.00, -0.00, -1.00, 1546.6, 905.0)">s</text><path d="M 0.0 0.0 L 547.8 0.0 " fill="none" stroke="#A6AAA8" stroke-width="2.00" transform="matrix(0.00, 1.00, 1.00, 0.00, 456.4, 196.8)"></path><path d="M 0.0 0.0 L 547.8 0.0 " fill="none" stroke="#A6AAA8" stroke-width="2.00" transform="matrix(0.00, 1.00, 1.00, 0.00, 1419.3, 196.7)"></path><path d="M 0.0 0.0 L 547.8 0.0 " fill="none" stroke="#A6AAA8" stroke-width="2.00" transform="matrix(0.00, 1.00, 1.00, 0.00, 922.3, 186.8)"></path><text xml:space="preserve" font-family="Helvetica-Light" font-size="40.0" fill="#FE3772" transform="matrix(1.00, 0.00, -0.00, -1.00, 114.0, 261.0)">b</text><text xml:space="preserve" font-family="Helvetica-Light" font-size="40.0" fill="#FE3772" transform="matrix(1.00, 0.00, -0.00, -1.00, 138.4, 261.0)">i</text><text xml:space="preserve" font-family="Helvetica-Light" font-size="40.0" fill="#FE3772" transform="matrix(1.00, 0.00, -0.00, -1.00, 147.3, 261.0)">t</text><text xml:space="preserve" font-family="Helvetica-Light" font-size="40.0" fill="#FE3772" transform="matrix(1.00, 0.00, -0.00, -1.00, 158.4, 261.0)">.</text><text xml:space="preserve" font-family="Helvetica-Light" font-size="40.0" fill="#FE3772" transform="matrix(1.00, 0.00, -0.00, -1.00, 169.6, 261.0)">l</text><text xml:space="preserve" font-family="Helvetica-Light" font-size="40.0" fill="#FE3772" transform="matrix(1.00, 0.00, -0.00, -1.00, 178.4, 261.0)">y</text><text xml:space="preserve" font-family="Helvetica-Light" font-size="40.0" fill="#FE3772" transform="matrix(1.00, 0.00, -0.00, -1.00, 198.4, 261.0)">/</text><text xml:space="preserve" font-family="Helvetica-Light" font-size="40.0" fill="#FE3772" transform="matrix(1.00, 0.00, -0.00, -1.00, 209.6, 261.0)">2</text><text xml:space="preserve" font-family="Helvetica-Light" font-size="40.0" fill="#FE3772" transform="matrix(1.00, 0.00, -0.00, -1.00, 231.8, 261.0)">h</text><text xml:space="preserve" font-family="Helvetica-Light" font-size="40.0" fill="#FE3772" transform="matrix(1.00, 0.00, -0.00, -1.00, 254.0, 261.0)">b</text><text xml:space="preserve" font-family="Helvetica-Light" font-size="40.0" fill="#FE3772" transform="matrix(1.00, 0.00, -0.00, -1.00, 278.5, 261.0)">f</text><text xml:space="preserve" font-family="Helvetica-Light" font-size="40.0" fill="#FE3772" transform="matrix(1.00, 0.00, -0.00, -1.00, 289.6, 261.0)">M</text><text xml:space="preserve" font-family="Helvetica-Light" font-size="40.0" fill="#FE3772" transform="matrix(1.00, 0.00, -0.00, -1.00, 322.9, 261.0)">G</text><text xml:space="preserve" font-family="Helvetica-Light" font-size="40.0" fill="#FE3772" transform="matrix(1.00, 0.00, -0.00, -1.00, 354.0, 261.0)">G</text><g><clipPath id="clip-53"><path d="M 112.7 256.2 L 384.8 256.2 L 384.8 260.2 L 112.7 260.2 Z M 112.7 256.2 "></path></clipPath><g clip-path="url(#clip-53)"><path d="M 5.6 47.4 L 276.8 47.4 " fill="none" stroke="#FE3772" stroke-width="2.00" stroke-miterlimit="0.00" transform="matrix(1.00, 0.00, 0.00, -1.00, 108.0, 305.6)"></path></g></g><text xml:space="preserve" font-family="Helvetica-Light" font-size="40.0" fill="#FE3772" transform="matrix(1.00, 0.00, -0.00, -1.00, 544.0, 261.0)">o</text><text xml:space="preserve" font-family="Helvetica-Light" font-size="40.0" fill="#FE3772" transform="matrix(1.00, 0.00, -0.00, -1.00, 566.2, 261.0)">c</text><text xml:space="preserve" font-family="Helvetica-Light" font-size="40.0" fill="#FE3772" transform="matrix(1.00, 0.00, -0.00, -1.00, 588.5, 261.0)">u</text><text xml:space="preserve" font-family="Helvetica-Light" font-size="40.0" fill="#FE3772" transform="matrix(1.00, 0.00, -0.00, -1.00, 610.7, 261.0)">l</text><text xml:space="preserve" font-family="Helvetica-Light" font-size="40.0" fill="#FE3772" transform="matrix(1.00, 0.00, -0.00, -1.00, 619.6, 261.0)">u</text><text xml:space="preserve" font-family="Helvetica-Light" font-size="40.0" fill="#FE3772" transform="matrix(1.00, 0.00, -0.00, -1.00, 641.8, 261.0)">s</text><text xml:space="preserve" font-family="Helvetica-Light" font-size="40.0" fill="#FE3772" transform="matrix(1.00, 0.00, -0.00, -1.00, 661.8, 261.0)">.</text><text xml:space="preserve" font-family="Helvetica-Light" font-size="40.0" fill="#FE3772" transform="matrix(1.00, 0.00, -0.00, -1.00, 673.0, 261.0)">c</text><text xml:space="preserve" font-family="Helvetica-Light" font-size="40.0" fill="#FE3772" transform="matrix(1.00, 0.00, -0.00, -1.00, 695.2, 261.0)">o</text><text xml:space="preserve" font-family="Helvetica-Light" font-size="40.0" fill="#FE3772" transform="matrix(1.00, 0.00, -0.00, -1.00, 717.4, 261.0)">m</text><text xml:space="preserve" font-family="Helvetica-Light" font-size="40.0" fill="#FE3772" transform="matrix(1.00, 0.00, -0.00, -1.00, 750.8, 261.0)">/</text><text xml:space="preserve" font-family="Helvetica-Light" font-size="40.0" fill="#FE3772" transform="matrix(1.00, 0.00, -0.00, -1.00, 761.9, 261.0)">w</text><text xml:space="preserve" font-family="Helvetica-Light" font-size="40.0" fill="#FE3772" transform="matrix(1.00, 0.00, -0.00, -1.00, 790.8, 261.0)">e</text><text xml:space="preserve" font-family="Helvetica-Light" font-size="40.0" fill="#FE3772" transform="matrix(1.00, 0.00, -0.00, -1.00, 813.0, 261.0)">b</text><text xml:space="preserve" font-family="Helvetica-Light" font-size="40.0" fill="#FE3772" transform="matrix(1.00, 0.00, -0.00, -1.00, 837.4, 261.0)">v</text><text xml:space="preserve" font-family="Helvetica-Light" font-size="40.0" fill="#FE3772" transform="matrix(1.00, 0.00, -0.00, -1.00, 857.4, 261.0)">r</text><g><clipPath id="clip-54"><path d="M 542.7 256.2 L 870.4 256.2 L 870.4 260.2 L 542.7 260.2 Z M 542.7 256.2 "></path></clipPath><g clip-path="url(#clip-54)"><path d="M 5.6 47.4 L 332.4 47.4 " fill="none" stroke="#FE3772" stroke-width="2.00" stroke-miterlimit="0.00" transform="matrix(1.00, 0.00, 0.00, -1.00, 538.0, 305.6)"></path></g></g><text xml:space="preserve" font-family="Helvetica-Light" font-size="40.0" fill="#FE3772" transform="matrix(1.00, 0.00, -0.00, -1.00, 984.0, 261.0)">v</text><text xml:space="preserve" font-family="Helvetica-Light" font-size="40.0" fill="#FE3772" transform="matrix(1.00, 0.00, -0.00, -1.00, 1004.0, 261.0)">r</text><text xml:space="preserve" font-family="Helvetica-Light" font-size="40.0" fill="#FE3772" transform="matrix(1.00, 0.00, -0.00, -1.00, 1013.6, 261.0)">.</text><text xml:space="preserve" font-family="Helvetica-Light" font-size="40.0" fill="#FE3772" transform="matrix(1.00, 0.00, -0.00, -1.00, 1024.8, 261.0)">g</text><text xml:space="preserve" font-family="Helvetica-Light" font-size="40.0" fill="#FE3772" transform="matrix(1.00, 0.00, -0.00, -1.00, 1049.2, 261.0)">o</text><text xml:space="preserve" font-family="Helvetica-Light" font-size="40.0" fill="#FE3772" transform="matrix(1.00, 0.00, -0.00, -1.00, 1071.4, 261.0)">o</text><text xml:space="preserve" font-family="Helvetica-Light" font-size="40.0" fill="#FE3772" transform="matrix(1.00, 0.00, -0.00, -1.00, 1093.7, 261.0)">g</text><text xml:space="preserve" font-family="Helvetica-Light" font-size="40.0" fill="#FE3772" transform="matrix(1.00, 0.00, -0.00, -1.00, 1118.1, 261.0)">l</text><text xml:space="preserve" font-family="Helvetica-Light" font-size="40.0" fill="#FE3772" transform="matrix(1.00, 0.00, -0.00, -1.00, 1127.0, 261.0)">e</text><text xml:space="preserve" font-family="Helvetica-Light" font-size="40.0" fill="#FE3772" transform="matrix(1.00, 0.00, -0.00, -1.00, 1149.2, 261.0)">.</text><text xml:space="preserve" font-family="Helvetica-Light" font-size="40.0" fill="#FE3772" transform="matrix(1.00, 0.00, -0.00, -1.00, 1160.4, 261.0)">c</text><text xml:space="preserve" font-family="Helvetica-Light" font-size="40.0" fill="#FE3772" transform="matrix(1.00, 0.00, -0.00, -1.00, 1182.6, 261.0)">o</text><text xml:space="preserve" font-family="Helvetica-Light" font-size="40.0" fill="#FE3772" transform="matrix(1.00, 0.00, -0.00, -1.00, 1204.8, 261.0)">m</text><g><clipPath id="clip-55"><path d="M 982.8 256.2 L 1238.0 256.2 L 1238.0 260.2 L 982.8 260.2 Z M 982.8 256.2 "></path></clipPath><g clip-path="url(#clip-55)"><path d="M 5.6 47.4 L 259.8 47.4 " fill="none" stroke="#FE3772" stroke-width="2.00" stroke-miterlimit="0.00" transform="matrix(1.00, 0.00, 0.00, -1.00, 978.2, 305.6)"></path></g></g><text xml:space="preserve" font-family="Helvetica-Light" font-size="40.0" fill="#FE3772" transform="matrix(1.00, 0.00, -0.00, -1.00, 1508.0, 261.0)">b</text><text xml:space="preserve" font-family="Helvetica-Light" font-size="40.0" fill="#FE3772" transform="matrix(1.00, 0.00, -0.00, -1.00, 1532.4, 261.0)">i</text><text xml:space="preserve" font-family="Helvetica-Light" font-size="40.0" fill="#FE3772" transform="matrix(1.00, 0.00, -0.00, -1.00, 1541.3, 261.0)">t</text><text xml:space="preserve" font-family="Helvetica-Light" font-size="40.0" fill="#FE3772" transform="matrix(1.00, 0.00, -0.00, -1.00, 1552.4, 261.0)">.</text><text xml:space="preserve" font-family="Helvetica-Light" font-size="40.0" fill="#FE3772" transform="matrix(1.00, 0.00, -0.00, -1.00, 1563.6, 261.0)">l</text><text xml:space="preserve" font-family="Helvetica-Light" font-size="40.0" fill="#FE3772" transform="matrix(1.00, 0.00, -0.00, -1.00, 1572.4, 261.0)">y</text><text xml:space="preserve" font-family="Helvetica-Light" font-size="40.0" fill="#FE3772" transform="matrix(1.00, 0.00, -0.00, -1.00, 1592.4, 261.0)">/</text><text xml:space="preserve" font-family="Helvetica-Light" font-size="40.0" fill="#FE3772" transform="matrix(1.00, 0.00, -0.00, -1.00, 1603.6, 261.0)">2</text><text xml:space="preserve" font-family="Helvetica-Light" font-size="40.0" fill="#FE3772" transform="matrix(1.00, 0.00, -0.00, -1.00, 1625.8, 261.0)">h</text><text xml:space="preserve" font-family="Helvetica-Light" font-size="40.0" fill="#FE3772" transform="matrix(1.00, 0.00, -0.00, -1.00, 1648.0, 261.0)">a</text><text xml:space="preserve" font-family="Helvetica-Light" font-size="40.0" fill="#FE3772" transform="matrix(1.00, 0.00, -0.00, -1.00, 1670.3, 261.0)">t</text><text xml:space="preserve" font-family="Helvetica-Light" font-size="40.0" fill="#FE3772" transform="matrix(1.00, 0.00, -0.00, -1.00, 1681.4, 261.0)">6</text><text xml:space="preserve" font-family="Helvetica-Light" font-size="40.0" fill="#FE3772" transform="matrix(1.00, 0.00, -0.00, -1.00, 1703.6, 261.0)">x</text><text xml:space="preserve" font-family="Helvetica-Light" font-size="40.0" fill="#FE3772" transform="matrix(1.00, 0.00, -0.00, -1.00, 1723.6, 261.0)">c</text><g><clipPath id="clip-56"><path d="M 1506.8 256.2 L 1745.7 256.2 L 1745.7 260.2 L 1506.8 260.2 Z M 1506.8 256.2 "></path></clipPath><g clip-path="url(#clip-56)"><path d="M 5.6 47.4 L 243.5 47.4 " fill="none" stroke="#FE3772" stroke-width="2.00" stroke-miterlimit="0.00" transform="matrix(1.00, 0.00, 0.00, -1.00, 1502.2, 305.6)"></path></g></g><image xlink:href="2092BC3E8E6BC538FE4504BC2848444F.png" width="193.00" height="206.00" transform="matrix(1.00, 0.00, -0.00, -1.00, 132.0, 692.0)"></image><g><clipPath id="clip-57"><path d="M 509.0 706.0 L 860.0 706.0 L 860.0 489.0 L 509.0 489.0 Z M 508.9 706.0 "></path></clipPath><g clip-path="url(#clip-57)"><image xlink:href="84B1F7D081C56DC9ACC62A6539FF1F40.png" width="394.00" height="243.00" transform="matrix(1.00, 0.00, -0.00, -1.00, 487.0, 719.0)"></image></g></g><image xlink:href="D4566F6A0BF52EE21503F833FBD8556C.png" width="396.00" height="293.00" transform="matrix(1.00, 0.00, -0.00, -1.00, 973.0, 750.0)"></image><image xlink:href="8DF1379EEF7C7A317693A9F8ED300685.png" width="286.00" height="74.00" transform="matrix(1.00, 0.00, -0.00, -1.00, 1525.0, 636.0)"></image></g></svg>