<?xml version="1.0" encoding="UTF-8" standalone="no"?><svg xmlns="http://www.w3.org/2000/svg" xmlns:xlink="http://www.w3.org/1999/xlink" clip-rule="evenodd" stroke-miterlimit="4.00" viewBox="0 0 1920 1080"><desc>SVG generated by Keynote</desc><defs></defs><g transform="matrix(1.00, 0.00, -0.00, -1.00, 0.0, 1080.0)"><path d="M 0.0 1080.0 L 1920.0 1080.0 L 1920.0 0.0 L 0.0 0.0 Z M 0.0 1080.0 " fill="#000000"></path><text xml:space="preserve" font-family="Helvetica-Light" font-size="70.0" fill="#FE3772" transform="matrix(1.00, 0.00, -0.00, -1.00, 421.0, 274.0)">g</text><text xml:space="preserve" font-family="Helvetica-Light" font-size="70.0" fill="#FE3772" transform="matrix(1.00, 0.00, -0.00, -1.00, 463.8, 274.0)">i</text><text xml:space="preserve" font-family="Helvetica-Light" font-size="70.0" fill="#FE3772" transform="matrix(1.00, 0.00, -0.00, -1.00, 479.3, 274.0)">t</text><text xml:space="preserve" font-family="Helvetica-Light" font-size="70.0" fill="#FE3772" transform="matrix(1.00, 0.00, -0.00, -1.00, 498.8, 274.0)">h</text><text xml:space="preserve" font-family="Helvetica-Light" font-size="70.0" fill="#FE3772" transform="matrix(1.00, 0.00, -0.00, -1.00, 537.7, 274.0)">u</text><text xml:space="preserve" font-family="Helvetica-Light" font-size="70.0" fill="#FE3772" transform="matrix(1.00, 0.00, -0.00, -1.00, 576.6, 274.0)">b</text><text xml:space="preserve" font-family="Helvetica-Light" font-size="70.0" fill="#FE3772" transform="matrix(1.00, 0.00, -0.00, -1.00, 619.4, 274.0)">.</text><text xml:space="preserve" font-family="Helvetica-Light" font-size="70.0" fill="#FE3772" transform="matrix(1.00, 0.00, -0.00, -1.00, 638.8, 274.0)">c</text><text xml:space="preserve" font-family="Helvetica-Light" font-size="70.0" fill="#FE3772" transform="matrix(1.00, 0.00, -0.00, -1.00, 677.8, 274.0)">o</text><text xml:space="preserve" font-family="Helvetica-Light" font-size="70.0" fill="#FE3772" transform="matrix(1.00, 0.00, -0.00, -1.00, 716.7, 274.0)">m</text><text xml:space="preserve" font-family="Helvetica-Light" font-size="70.0" fill="#FE3772" transform="matrix(1.00, 0.00, -0.00, -1.00, 775.0, 274.0)">/</text><text xml:space="preserve" font-family="Helvetica-Light" font-size="70.0" fill="#FE3772" transform="matrix(1.00, 0.00, -0.00, -1.00, 794.5, 274.0)">g</text><text xml:space="preserve" font-family="Helvetica-Light" font-size="70.0" fill="#FE3772" transform="matrix(1.00, 0.00, -0.00, -1.00, 837.2, 274.0)">o</text><text xml:space="preserve" font-family="Helvetica-Light" font-size="70.0" fill="#FE3772" transform="matrix(1.00, 0.00, -0.00, -1.00, 876.1, 274.0)">o</text><text xml:space="preserve" font-family="Helvetica-Light" font-size="70.0" fill="#FE3772" transform="matrix(1.00, 0.00, -0.00, -1.00, 915.1, 274.0)">g</text><text xml:space="preserve" font-family="Helvetica-Light" font-size="70.0" fill="#FE3772" transform="matrix(1.00, 0.00, -0.00, -1.00, 957.8, 274.0)">l</text><text xml:space="preserve" font-family="Helvetica-Light" font-size="70.0" fill="#FE3772" transform="matrix(1.00, 0.00, -0.00, -1.00, 973.4, 274.0)">e</text><text xml:space="preserve" font-family="Helvetica-Light" font-size="70.0" fill="#FE3772" transform="matrix(1.00, 0.00, -0.00, -1.00, 1012.3, 274.0)">v</text><text xml:space="preserve" font-family="Helvetica-Light" font-size="70.0" fill="#FE3772" transform="matrix(1.00, 0.00, -0.00, -1.00, 1047.3, 274.0)">r</text><text xml:space="preserve" font-family="Helvetica-Light" font-size="70.0" fill="#FE3772" transform="matrix(1.00, 0.00, -0.00, -1.00, 1070.6, 274.0)">/</text><text xml:space="preserve" font-family="Helvetica-Light" font-size="70.0" fill="#FE3772" transform="matrix(1.00, 0.00, -0.00, -1.00, 1090.1, 274.0)">w</text><text xml:space="preserve" font-family="Helvetica-Light" font-size="70.0" fill="#FE3772" transform="matrix(1.00, 0.00, -0.00, -1.00, 1140.6, 274.0)">e</text><text xml:space="preserve" font-family="Helvetica-Light" font-size="70.0" fill="#FE3772" transform="matrix(1.00, 0.00, -0.00, -1.00, 1179.5, 274.0)">b</text><text xml:space="preserve" font-family="Helvetica-Light" font-size="70.0" fill="#FE3772" transform="matrix(1.00, 0.00, -0.00, -1.00, 1222.3, 274.0)">v</text><text xml:space="preserve" font-family="Helvetica-Light" font-size="70.0" fill="#FE3772" transform="matrix(1.00, 0.00, -0.00, -1.00, 1257.3, 274.0)">r</text><text xml:space="preserve" font-family="Helvetica-Light" font-size="70.0" fill="#FE3772" transform="matrix(1.00, 0.00, -0.00, -1.00, 1276.8, 274.0)">-</text><text xml:space="preserve" font-family="Helvetica-Light" font-size="70.0" fill="#FE3772" transform="matrix(1.00, 0.00, -0.00, -1.00, 1300.1, 274.0)">p</text><text xml:space="preserve" font-family="Helvetica-Light" font-size="70.0" fill="#FE3772" transform="matrix(1.00, 0.00, -0.00, -1.00, 1342.8, 274.0)">o</text><text xml:space="preserve" font-family="Helvetica-Light" font-size="70.0" fill="#FE3772" transform="matrix(1.00, 0.00, -0.00, -1.00, 1381.8, 274.0)">l</text><text xml:space="preserve" font-family="Helvetica-Light" font-size="70.0" fill="#FE3772" transform="matrix(1.00, 0.00, -0.00, -1.00, 1397.3, 274.0)">y</text><text xml:space="preserve" font-family="Helvetica-Light" font-size="70.0" fill="#FE3772" transform="matrix(1.00, 0.00, -0.00, -1.00, 1432.3, 274.0)">ﬁ</text><text xml:space="preserve" font-family="Helvetica-Light" font-size="70.0" fill="#FE3772" transform="matrix(1.00, 0.00, -0.00, -1.00, 1467.3, 274.0)">l</text><text xml:space="preserve" font-family="Helvetica-Light" font-size="70.0" fill="#FE3772" transform="matrix(1.00, 0.00, -0.00, -1.00, 1482.8, 274.0)">l</text><g><clipPath id="clip-65"><path d="M 419.8 265.8 L 1498.2 265.8 L 1498.2 271.3 L 419.8 271.3 Z M 419.8 265.8 "></path></clipPath><g clip-path="url(#clip-65)"><path d="M 5.6 78.8 L 1083.0 78.8 " fill="none" stroke="#FE3772" stroke-width="3.50" stroke-miterlimit="0.00" transform="matrix(1.00, 0.00, 0.00, -1.00, 415.2, 347.3)"></path></g></g><image xlink:href="../../CE8D4C51-D87D-4ECA-B313-F7DE83083AC6/assets/7FE3FFB332C7D22AE85E7001C19B731B.jpeg" width="507.00" height="314.00" transform="matrix(1.00, 0.00, -0.00, -1.00, 707.0, 762.0)"></image><text xml:space="preserve" font-family="Helvetica-Bold" font-weight="bold" font-size="90.0" fill="#FEFFFF" transform="matrix(1.00, 0.00, -0.00, -1.00, 630.0, 891.0)">W</text><text xml:space="preserve" font-family="Helvetica-Bold" font-weight="bold" font-size="90.0" fill="#FEFFFF" transform="matrix(1.00, 0.00, -0.00, -1.00, 713.4, 891.0)">e</text><text xml:space="preserve" font-family="Helvetica-Bold" font-weight="bold" font-size="90.0" fill="#FEFFFF" transform="matrix(1.00, 0.00, -0.00, -1.00, 763.4, 891.0)">b</text><text xml:space="preserve" font-family="Helvetica-Bold" font-weight="bold" font-size="90.0" fill="#FEFFFF" transform="matrix(1.00, 0.00, -0.00, -1.00, 818.4, 891.0)">V</text><text xml:space="preserve" font-family="Helvetica-Bold" font-weight="bold" font-size="90.0" fill="#FEFFFF" transform="matrix(1.00, 0.00, -0.00, -1.00, 878.4, 891.0)">R</text><text xml:space="preserve" font-family="Helvetica-Bold" font-weight="bold" font-size="90.0" fill="#FEFFFF" transform="matrix(1.00, 0.00, -0.00, -1.00, 943.4, 891.0)"> </text><text xml:space="preserve" font-family="Helvetica-Bold" font-weight="bold" font-size="90.0" fill="#FEFFFF" transform="matrix(1.00, 0.00, -0.00, -1.00, 968.4, 891.0)">P</text><text xml:space="preserve" font-family="Helvetica-Bold" font-weight="bold" font-size="90.0" fill="#FEFFFF" transform="matrix(1.00, 0.00, -0.00, -1.00, 1028.4, 891.0)">o</text><text xml:space="preserve" font-family="Helvetica-Bold" font-weight="bold" font-size="90.0" fill="#FEFFFF" transform="matrix(1.00, 0.00, -0.00, -1.00, 1083.4, 891.0)">l</text><text xml:space="preserve" font-family="Helvetica-Bold" font-weight="bold" font-size="90.0" fill="#FEFFFF" transform="matrix(1.00, 0.00, -0.00, -1.00, 1108.4, 891.0)">y</text><text xml:space="preserve" font-family="Helvetica-Bold" font-weight="bold" font-size="90.0" fill="#FEFFFF" transform="matrix(1.00, 0.00, -0.00, -1.00, 1158.5, 891.0)">ﬁ</text><text xml:space="preserve" font-family="Helvetica-Bold" font-weight="bold" font-size="90.0" fill="#FEFFFF" transform="matrix(1.00, 0.00, -0.00, -1.00, 1213.4, 891.0)">l</text><text xml:space="preserve" font-family="Helvetica-Bold" font-weight="bold" font-size="90.0" fill="#FEFFFF" transform="matrix(1.00, 0.00, -0.00, -1.00, 1238.4, 891.0)">l</text></g></svg>