<?xml version="1.0" encoding="UTF-8" standalone="no"?><svg xmlns="http://www.w3.org/2000/svg" xmlns:xlink="http://www.w3.org/1999/xlink" clip-rule="evenodd" stroke-miterlimit="4.00" viewBox="0 0 738 51"><desc>SVG generated by Keynote</desc><defs></defs><g transform="matrix(1.00, 0.00, -0.00, -1.00, 0.0, 51.0)"><text xml:space="preserve" font-family="Helvetica-Light" font-size="50.0" fill="#FE3772" transform="matrix(1.00, 0.00, -0.00, -1.00, -2.0, 12.0)">h</text><text xml:space="preserve" font-family="Helvetica-Light" font-size="50.0" fill="#FE3772" transform="matrix(1.00, 0.00, -0.00, -1.00, 25.8, 12.0)">t</text><text xml:space="preserve" font-family="Helvetica-Light" font-size="50.0" fill="#FE3772" transform="matrix(1.00, 0.00, -0.00, -1.00, 39.7, 12.0)">t</text><text xml:space="preserve" font-family="Helvetica-Light" font-size="50.0" fill="#FE3772" transform="matrix(1.00, 0.00, -0.00, -1.00, 53.6, 12.0)">p</text><text xml:space="preserve" font-family="Helvetica-Light" font-size="50.0" fill="#FE3772" transform="matrix(1.00, 0.00, -0.00, -1.00, 84.2, 12.0)">s</text><text xml:space="preserve" font-family="Helvetica-Light" font-size="50.0" fill="#FE3772" transform="matrix(1.00, 0.00, -0.00, -1.00, 109.2, 12.0)">:</text><text xml:space="preserve" font-family="Helvetica-Light" font-size="50.0" fill="#FE3772" transform="matrix(1.00, 0.00, -0.00, -1.00, 123.1, 12.0)">/</text><text xml:space="preserve" font-family="Helvetica-Light" font-size="50.0" fill="#FE3772" transform="matrix(1.00, 0.00, -0.00, -1.00, 137.0, 12.0)">/</text><text xml:space="preserve" font-family="Helvetica-Light" font-size="50.0" fill="#FE3772" transform="matrix(1.00, 0.00, -0.00, -1.00, 150.9, 12.0)">b</text><text xml:space="preserve" font-family="Helvetica-Light" font-size="50.0" fill="#FE3772" transform="matrix(1.00, 0.00, -0.00, -1.00, 181.4, 12.0)">l</text><text xml:space="preserve" font-family="Helvetica-Light" font-size="50.0" fill="#FE3772" transform="matrix(1.00, 0.00, -0.00, -1.00, 192.5, 12.0)">o</text><text xml:space="preserve" font-family="Helvetica-Light" font-size="50.0" fill="#FE3772" transform="matrix(1.00, 0.00, -0.00, -1.00, 220.3, 12.0)">g</text><text xml:space="preserve" font-family="Helvetica-Light" font-size="50.0" fill="#FE3772" transform="matrix(1.00, 0.00, -0.00, -1.00, 250.9, 12.0)">.</text><text xml:space="preserve" font-family="Helvetica-Light" font-size="50.0" fill="#FE3772" transform="matrix(1.00, 0.00, -0.00, -1.00, 264.8, 12.0)">m</text><text xml:space="preserve" font-family="Helvetica-Light" font-size="50.0" fill="#FE3772" transform="matrix(1.00, 0.00, -0.00, -1.00, 306.4, 12.0)">o</text><text xml:space="preserve" font-family="Helvetica-Light" font-size="50.0" fill="#FE3772" transform="matrix(1.00, 0.00, -0.00, -1.00, 334.2, 12.0)">z</text><text xml:space="preserve" font-family="Helvetica-Light" font-size="50.0" fill="#FE3772" transform="matrix(1.00, 0.00, -0.00, -1.00, 359.2, 12.0)">v</text><text xml:space="preserve" font-family="Helvetica-Light" font-size="50.0" fill="#FE3772" transform="matrix(1.00, 0.00, -0.00, -1.00, 384.2, 12.0)">r</text><text xml:space="preserve" font-family="Helvetica-Light" font-size="50.0" fill="#FE3772" transform="matrix(1.00, 0.00, -0.00, -1.00, 396.3, 12.0)">.</text><text xml:space="preserve" font-family="Helvetica-Light" font-size="50.0" fill="#FE3772" transform="matrix(1.00, 0.00, -0.00, -1.00, 410.2, 12.0)">c</text><text xml:space="preserve" font-family="Helvetica-Light" font-size="50.0" fill="#FE3772" transform="matrix(1.00, 0.00, -0.00, -1.00, 438.0, 12.0)">o</text><text xml:space="preserve" font-family="Helvetica-Light" font-size="50.0" fill="#FE3772" transform="matrix(1.00, 0.00, -0.00, -1.00, 465.8, 12.0)">m</text><text xml:space="preserve" font-family="Helvetica-Light" font-size="50.0" fill="#FE3772" transform="matrix(1.00, 0.00, -0.00, -1.00, 507.4, 12.0)">/</text><text xml:space="preserve" font-family="Helvetica-Light" font-size="50.0" fill="#FE3772" transform="matrix(1.00, 0.00, -0.00, -1.00, 521.3, 12.0)">a</text><text xml:space="preserve" font-family="Helvetica-Light" font-size="50.0" fill="#FE3772" transform="matrix(1.00, 0.00, -0.00, -1.00, 549.1, 12.0)">-</text><text xml:space="preserve" font-family="Helvetica-Light" font-size="50.0" fill="#FE3772" transform="matrix(1.00, 0.00, -0.00, -1.00, 565.8, 12.0)">p</text><text xml:space="preserve" font-family="Helvetica-Light" font-size="50.0" fill="#FE3772" transform="matrix(1.00, 0.00, -0.00, -1.00, 596.3, 12.0)">a</text><text xml:space="preserve" font-family="Helvetica-Light" font-size="50.0" fill="#FE3772" transform="matrix(1.00, 0.00, -0.00, -1.00, 624.1, 12.0)">i</text><text xml:space="preserve" font-family="Helvetica-Light" font-size="50.0" fill="#FE3772" transform="matrix(1.00, 0.00, -0.00, -1.00, 635.2, 12.0)">n</text><text xml:space="preserve" font-family="Helvetica-Light" font-size="50.0" fill="#FE3772" transform="matrix(1.00, 0.00, -0.00, -1.00, 663.0, 12.0)">t</text><text xml:space="preserve" font-family="Helvetica-Light" font-size="50.0" fill="#FE3772" transform="matrix(1.00, 0.00, -0.00, -1.00, 676.9, 12.0)">e</text><text xml:space="preserve" font-family="Helvetica-Light" font-size="50.0" fill="#FE3772" transform="matrix(1.00, 0.00, -0.00, -1.00, 704.7, 12.0)">r</text><text xml:space="preserve" font-family="Helvetica-Light" font-size="50.0" fill="#FE3772" transform="matrix(1.00, 0.00, -0.00, -1.00, 721.3, 12.0)">/</text></g></svg>