<?xml version="1.0" encoding="UTF-8" standalone="no"?><svg xmlns="http://www.w3.org/2000/svg" xmlns:xlink="http://www.w3.org/1999/xlink" clip-rule="evenodd" stroke-miterlimit="4.00" viewBox="0 0 1920 1080"><desc>SVG generated by Keynote</desc><defs></defs><g transform="matrix(1.00, 0.00, -0.00, -1.00, 0.0, 1080.0)"><path d="M 0.0 1080.0 L 1920.0 1080.0 L 1920.0 0.0 L 0.0 0.0 Z M 0.0 1080.0 " fill="#000000"></path><image xlink:href="F8E03D8B1DC6E44548DA4F224864941A.png" width="1280.00" height="720.00" transform="matrix(1.50, 0.00, -0.00, -1.50, -3.0, 1079.0)"></image><text xml:space="preserve" font-family="Helvetica" font-size="48.0" fill="#FE3772" transform="matrix(1.00, 0.00, -0.00, -1.00, 883.0, 117.0)">@</text><text xml:space="preserve" font-family="Helvetica" font-size="48.0" fill="#FE3772" transform="matrix(1.00, 0.00, -0.00, -1.00, 931.7, 117.0)">m</text><text xml:space="preserve" font-family="Helvetica" font-size="48.0" fill="#FE3772" transform="matrix(1.00, 0.00, -0.00, -1.00, 971.7, 117.0)">a</text><text xml:space="preserve" font-family="Helvetica" font-size="48.0" fill="#FE3772" transform="matrix(1.00, 0.00, -0.00, -1.00, 998.4, 117.0)">r</text><text xml:space="preserve" font-family="Helvetica" font-size="48.0" fill="#FE3772" transform="matrix(1.00, 0.00, -0.00, -1.00, 1014.4, 117.0)">p</text><text xml:space="preserve" font-family="Helvetica" font-size="48.0" fill="#FE3772" transform="matrix(1.00, 0.00, -0.00, -1.00, 1041.1, 117.0)">i</text><text xml:space="preserve" font-family="Helvetica" font-size="48.0" fill="#FE3772" transform="matrix(1.00, 0.00, -0.00, -1.00, 1051.8, 117.0)">_</text><g><clipPath id="clip-25"><path d="M 881.9 111.4 L 1078.3 111.4 L 1078.3 115.8 L 881.9 115.8 Z M 881.9 111.4 "></path></clipPath><g clip-path="url(#clip-25)"><path d="M 481.7 76.2 L 677.1 76.2 " fill="none" stroke="#FE3772" stroke-width="2.37" stroke-miterlimit="0.00" transform="matrix(1.00, 0.00, 0.00, -1.00, 401.2, 189.8)"></path></g></g></g></svg>