<?xml version="1.0" encoding="UTF-8" standalone="no"?><svg xmlns="http://www.w3.org/2000/svg" xmlns:xlink="http://www.w3.org/1999/xlink" clip-rule="evenodd" stroke-miterlimit="4.00" viewBox="0 0 1920 1080"><desc>SVG generated by Keynote</desc><defs></defs><g transform="matrix(1.00, 0.00, -0.00, -1.00, 0.0, 1080.0)"><path d="M 0.0 1080.0 L 1920.0 1080.0 L 1920.0 0.0 L 0.0 0.0 Z M 0.0 1080.0 " fill="#000000"></path><g><clipPath id="clip-38"><path d="M 265.0 501.0 L 460.0 501.0 L 460.0 696.0 L 265.0 696.0 Z M 265.0 501.0 "></path></clipPath><g clip-path="url(#clip-38)"><image xlink:href="3EE3D0300554E1DCEADBE16FAB7BCB58.png" width="1000.00" height="1000.00" transform="matrix(0.22, 0.00, -0.00, -0.22, 253.5, 710.4)"></image></g></g><g><clipPath id="clip-39"><path d="M 883.0 485.0 L 1075.0 485.0 L 1075.0 680.0 L 883.0 680.0 Z M 883.0 485.0 "></path></clipPath><g clip-path="url(#clip-39)"><image xlink:href="3EB55101A7F401B1A1DFC7902A19C338.png" width="256.00" height="256.00" transform="matrix(0.78, 0.00, -0.00, -0.78, 878.3, 680.0)"></image></g></g><g><clipPath id="clip-40"><path d="M 1474.0 488.0 L 1662.0 488.0 L 1662.0 677.0 L 1474.0 677.0 Z M 1474.0 488.0 "></path></clipPath><g clip-path="url(#clip-40)"><image xlink:href="EB431AC6AC412CC9CBB25E5BD5A7327F.png" width="292.00" height="295.00" transform="matrix(0.64, 0.00, -0.00, -0.64, 1474.0, 677.0)"></image></g></g><text xml:space="preserve" font-family="Helvetica-Bold" font-weight="bold" font-size="40.0" fill="#FEFFFF" transform="matrix(1.00, 0.00, -0.00, -1.00, 205.0, 381.0)">E</text><text xml:space="preserve" font-family="Helvetica-Bold" font-weight="bold" font-size="40.0" fill="#FEFFFF" transform="matrix(1.00, 0.00, -0.00, -1.00, 231.7, 381.0)">x</text><text xml:space="preserve" font-family="Helvetica-Bold" font-weight="bold" font-size="40.0" fill="#FEFFFF" transform="matrix(1.00, 0.00, -0.00, -1.00, 253.9, 381.0)">p</text><text xml:space="preserve" font-family="Helvetica-Bold" font-weight="bold" font-size="40.0" fill="#FEFFFF" transform="matrix(1.00, 0.00, -0.00, -1.00, 278.4, 381.0)">e</text><text xml:space="preserve" font-family="Helvetica-Bold" font-weight="bold" font-size="40.0" fill="#FEFFFF" transform="matrix(1.00, 0.00, -0.00, -1.00, 300.6, 381.0)">r</text><text xml:space="preserve" font-family="Helvetica-Bold" font-weight="bold" font-size="40.0" fill="#FEFFFF" transform="matrix(1.00, 0.00, -0.00, -1.00, 316.2, 381.0)">i</text><text xml:space="preserve" font-family="Helvetica-Bold" font-weight="bold" font-size="40.0" fill="#FEFFFF" transform="matrix(1.00, 0.00, -0.00, -1.00, 327.3, 381.0)">m</text><text xml:space="preserve" font-family="Helvetica-Bold" font-weight="bold" font-size="40.0" fill="#FEFFFF" transform="matrix(1.00, 0.00, -0.00, -1.00, 362.9, 381.0)">e</text><text xml:space="preserve" font-family="Helvetica-Bold" font-weight="bold" font-size="40.0" fill="#FEFFFF" transform="matrix(1.00, 0.00, -0.00, -1.00, 385.1, 381.0)">n</text><text xml:space="preserve" font-family="Helvetica-Bold" font-weight="bold" font-size="40.0" fill="#FEFFFF" transform="matrix(1.00, 0.00, -0.00, -1.00, 409.5, 381.0)">t</text><text xml:space="preserve" font-family="Helvetica-Bold" font-weight="bold" font-size="40.0" fill="#FEFFFF" transform="matrix(1.00, 0.00, -0.00, -1.00, 422.9, 381.0)">a</text><text xml:space="preserve" font-family="Helvetica-Bold" font-weight="bold" font-size="40.0" fill="#FEFFFF" transform="matrix(1.00, 0.00, -0.00, -1.00, 445.1, 381.0)">l</text><text xml:space="preserve" font-family="Helvetica-Bold" font-weight="bold" font-size="40.0" fill="#FEFFFF" transform="matrix(1.00, 0.00, -0.00, -1.00, 205.0, 333.0)">C</text><text xml:space="preserve" font-family="Helvetica-Bold" font-weight="bold" font-size="40.0" fill="#FEFFFF" transform="matrix(1.00, 0.00, -0.00, -1.00, 233.9, 333.0)">h</text><text xml:space="preserve" font-family="Helvetica-Bold" font-weight="bold" font-size="40.0" fill="#FEFFFF" transform="matrix(1.00, 0.00, -0.00, -1.00, 258.3, 333.0)">r</text><text xml:space="preserve" font-family="Helvetica-Bold" font-weight="bold" font-size="40.0" fill="#FEFFFF" transform="matrix(1.00, 0.00, -0.00, -1.00, 273.9, 333.0)">o</text><text xml:space="preserve" font-family="Helvetica-Bold" font-weight="bold" font-size="40.0" fill="#FEFFFF" transform="matrix(1.00, 0.00, -0.00, -1.00, 298.4, 333.0)">m</text><text xml:space="preserve" font-family="Helvetica-Bold" font-weight="bold" font-size="40.0" fill="#FEFFFF" transform="matrix(1.00, 0.00, -0.00, -1.00, 333.9, 333.0)">i</text><text xml:space="preserve" font-family="Helvetica-Bold" font-weight="bold" font-size="40.0" fill="#FEFFFF" transform="matrix(1.00, 0.00, -0.00, -1.00, 345.0, 333.0)">u</text><text xml:space="preserve" font-family="Helvetica-Bold" font-weight="bold" font-size="40.0" fill="#FEFFFF" transform="matrix(1.00, 0.00, -0.00, -1.00, 369.5, 333.0)">m</text><text xml:space="preserve" font-family="Helvetica-Bold" font-weight="bold" font-size="40.0" fill="#FEFFFF" transform="matrix(1.00, 0.00, -0.00, -1.00, 804.0, 385.0)">F</text><text xml:space="preserve" font-family="Helvetica-Bold" font-weight="bold" font-size="40.0" fill="#FEFFFF" transform="matrix(1.00, 0.00, -0.00, -1.00, 828.4, 385.0)">i</text><text xml:space="preserve" font-family="Helvetica-Bold" font-weight="bold" font-size="40.0" fill="#FEFFFF" transform="matrix(1.00, 0.00, -0.00, -1.00, 839.5, 385.0)">r</text><text xml:space="preserve" font-family="Helvetica-Bold" font-weight="bold" font-size="40.0" fill="#FEFFFF" transform="matrix(1.00, 0.00, -0.00, -1.00, 855.1, 385.0)">e</text><text xml:space="preserve" font-family="Helvetica-Bold" font-weight="bold" font-size="40.0" fill="#FEFFFF" transform="matrix(1.00, 0.00, -0.00, -1.00, 877.4, 385.0)">f</text><text xml:space="preserve" font-family="Helvetica-Bold" font-weight="bold" font-size="40.0" fill="#FEFFFF" transform="matrix(1.00, 0.00, -0.00, -1.00, 890.7, 385.0)">o</text><text xml:space="preserve" font-family="Helvetica-Bold" font-weight="bold" font-size="40.0" fill="#FEFFFF" transform="matrix(1.00, 0.00, -0.00, -1.00, 915.1, 385.0)">x</text><text xml:space="preserve" font-family="Helvetica-Bold" font-weight="bold" font-size="40.0" fill="#FEFFFF" transform="matrix(1.00, 0.00, -0.00, -1.00, 804.0, 337.0)">N</text><text xml:space="preserve" font-family="Helvetica-Bold" font-weight="bold" font-size="40.0" fill="#FEFFFF" transform="matrix(1.00, 0.00, -0.00, -1.00, 832.9, 337.0)">i</text><text xml:space="preserve" font-family="Helvetica-Bold" font-weight="bold" font-size="40.0" fill="#FEFFFF" transform="matrix(1.00, 0.00, -0.00, -1.00, 844.0, 337.0)">g</text><text xml:space="preserve" font-family="Helvetica-Bold" font-weight="bold" font-size="40.0" fill="#FEFFFF" transform="matrix(1.00, 0.00, -0.00, -1.00, 868.4, 337.0)">h</text><text xml:space="preserve" font-family="Helvetica-Bold" font-weight="bold" font-size="40.0" fill="#FEFFFF" transform="matrix(1.00, 0.00, -0.00, -1.00, 892.9, 337.0)">t</text><text xml:space="preserve" font-family="Helvetica-Bold" font-weight="bold" font-size="40.0" fill="#FEFFFF" transform="matrix(1.00, 0.00, -0.00, -1.00, 906.2, 337.0)">l</text><text xml:space="preserve" font-family="Helvetica-Bold" font-weight="bold" font-size="40.0" fill="#FEFFFF" transform="matrix(1.00, 0.00, -0.00, -1.00, 917.3, 337.0)">y</text><text xml:space="preserve" font-family="Helvetica-Bold" font-weight="bold" font-size="40.0" fill="#FEFFFF" transform="matrix(1.00, 0.00, -0.00, -1.00, 939.5, 337.0)"> </text><text xml:space="preserve" font-family="Helvetica-Bold" font-weight="bold" font-size="40.0" fill="#FEFFFF" transform="matrix(1.00, 0.00, -0.00, -1.00, 950.6, 337.0)">/</text><text xml:space="preserve" font-family="Helvetica-Bold" font-weight="bold" font-size="40.0" fill="#FEFFFF" transform="matrix(1.00, 0.00, -0.00, -1.00, 961.7, 337.0)"> </text><text xml:space="preserve" font-family="Helvetica-Bold" font-weight="bold" font-size="40.0" fill="#FEFFFF" transform="matrix(1.00, 0.00, -0.00, -1.00, 972.8, 337.0)">D</text><text xml:space="preserve" font-family="Helvetica-Bold" font-weight="bold" font-size="40.0" fill="#FEFFFF" transform="matrix(1.00, 0.00, -0.00, -1.00, 1001.7, 337.0)">e</text><text xml:space="preserve" font-family="Helvetica-Bold" font-weight="bold" font-size="40.0" fill="#FEFFFF" transform="matrix(1.00, 0.00, -0.00, -1.00, 1024.0, 337.0)">v</text><text xml:space="preserve" font-family="Helvetica-Bold" font-weight="bold" font-size="40.0" fill="#FEFFFF" transform="matrix(1.00, 0.00, -0.00, -1.00, 1393.0, 373.0)">S</text><text xml:space="preserve" font-family="Helvetica-Bold" font-weight="bold" font-size="40.0" fill="#FEFFFF" transform="matrix(1.00, 0.00, -0.00, -1.00, 1419.7, 373.0)">a</text><text xml:space="preserve" font-family="Helvetica-Bold" font-weight="bold" font-size="40.0" fill="#FEFFFF" transform="matrix(1.00, 0.00, -0.00, -1.00, 1441.9, 373.0)">m</text><text xml:space="preserve" font-family="Helvetica-Bold" font-weight="bold" font-size="40.0" fill="#FEFFFF" transform="matrix(1.00, 0.00, -0.00, -1.00, 1477.5, 373.0)">s</text><text xml:space="preserve" font-family="Helvetica-Bold" font-weight="bold" font-size="40.0" fill="#FEFFFF" transform="matrix(1.00, 0.00, -0.00, -1.00, 1499.8, 373.0)">u</text><text xml:space="preserve" font-family="Helvetica-Bold" font-weight="bold" font-size="40.0" fill="#FEFFFF" transform="matrix(1.00, 0.00, -0.00, -1.00, 1524.2, 373.0)">n</text><text xml:space="preserve" font-family="Helvetica-Bold" font-weight="bold" font-size="40.0" fill="#FEFFFF" transform="matrix(1.00, 0.00, -0.00, -1.00, 1548.6, 373.0)">g</text><text xml:space="preserve" font-family="Helvetica-Bold" font-weight="bold" font-size="40.0" fill="#FEFFFF" transform="matrix(1.00, 0.00, -0.00, -1.00, 1573.0, 373.0)"> </text><text xml:space="preserve" font-family="Helvetica-Bold" font-weight="bold" font-size="40.0" fill="#FEFFFF" transform="matrix(1.00, 0.00, -0.00, -1.00, 1584.1, 373.0)">I</text><text xml:space="preserve" font-family="Helvetica-Bold" font-weight="bold" font-size="40.0" fill="#FEFFFF" transform="matrix(1.00, 0.00, -0.00, -1.00, 1595.2, 373.0)">n</text><text xml:space="preserve" font-family="Helvetica-Bold" font-weight="bold" font-size="40.0" fill="#FEFFFF" transform="matrix(1.00, 0.00, -0.00, -1.00, 1619.7, 373.0)">t</text><text xml:space="preserve" font-family="Helvetica-Bold" font-weight="bold" font-size="40.0" fill="#FEFFFF" transform="matrix(1.00, 0.00, -0.00, -1.00, 1633.0, 373.0)">e</text><text xml:space="preserve" font-family="Helvetica-Bold" font-weight="bold" font-size="40.0" fill="#FEFFFF" transform="matrix(1.00, 0.00, -0.00, -1.00, 1655.2, 373.0)">r</text><text xml:space="preserve" font-family="Helvetica-Bold" font-weight="bold" font-size="40.0" fill="#FEFFFF" transform="matrix(1.00, 0.00, -0.00, -1.00, 1670.8, 373.0)">n</text><text xml:space="preserve" font-family="Helvetica-Bold" font-weight="bold" font-size="40.0" fill="#FEFFFF" transform="matrix(1.00, 0.00, -0.00, -1.00, 1695.2, 373.0)">e</text><text xml:space="preserve" font-family="Helvetica-Bold" font-weight="bold" font-size="40.0" fill="#FEFFFF" transform="matrix(1.00, 0.00, -0.00, -1.00, 1717.5, 373.0)">t</text><text xml:space="preserve" font-family="Helvetica-Bold" font-weight="bold" font-size="40.0" fill="#FEFFFF" transform="matrix(1.00, 0.00, -0.00, -1.00, 1393.0, 325.0)">B</text><text xml:space="preserve" font-family="Helvetica-Bold" font-weight="bold" font-size="40.0" fill="#FEFFFF" transform="matrix(1.00, 0.00, -0.00, -1.00, 1421.9, 325.0)">r</text><text xml:space="preserve" font-family="Helvetica-Bold" font-weight="bold" font-size="40.0" fill="#FEFFFF" transform="matrix(1.00, 0.00, -0.00, -1.00, 1437.5, 325.0)">o</text><text xml:space="preserve" font-family="Helvetica-Bold" font-weight="bold" font-size="40.0" fill="#FEFFFF" transform="matrix(1.00, 0.00, -0.00, -1.00, 1461.9, 325.0)">w</text><text xml:space="preserve" font-family="Helvetica-Bold" font-weight="bold" font-size="40.0" fill="#FEFFFF" transform="matrix(1.00, 0.00, -0.00, -1.00, 1493.0, 325.0)">s</text><text xml:space="preserve" font-family="Helvetica-Bold" font-weight="bold" font-size="40.0" fill="#FEFFFF" transform="matrix(1.00, 0.00, -0.00, -1.00, 1515.3, 325.0)">e</text><text xml:space="preserve" font-family="Helvetica-Bold" font-weight="bold" font-size="40.0" fill="#FEFFFF" transform="matrix(1.00, 0.00, -0.00, -1.00, 1537.5, 325.0)">r</text><text xml:space="preserve" font-family="Helvetica-Light" font-size="40.0" fill="#FE3772" transform="matrix(1.00, 0.00, -0.00, -1.00, 211.0, 245.0)">w</text><text xml:space="preserve" font-family="Helvetica-Light" font-size="40.0" fill="#FE3772" transform="matrix(1.00, 0.00, -0.00, -1.00, 239.9, 245.0)">e</text><text xml:space="preserve" font-family="Helvetica-Light" font-size="40.0" fill="#FE3772" transform="matrix(1.00, 0.00, -0.00, -1.00, 262.1, 245.0)">b</text><text xml:space="preserve" font-family="Helvetica-Light" font-size="40.0" fill="#FE3772" transform="matrix(1.00, 0.00, -0.00, -1.00, 286.6, 245.0)">v</text><text xml:space="preserve" font-family="Helvetica-Light" font-size="40.0" fill="#FE3772" transform="matrix(1.00, 0.00, -0.00, -1.00, 306.6, 245.0)">r</text><text xml:space="preserve" font-family="Helvetica-Light" font-size="40.0" fill="#FE3772" transform="matrix(1.00, 0.00, -0.00, -1.00, 316.2, 245.0)">.</text><text xml:space="preserve" font-family="Helvetica-Light" font-size="40.0" fill="#FE3772" transform="matrix(1.00, 0.00, -0.00, -1.00, 327.3, 245.0)">i</text><text xml:space="preserve" font-family="Helvetica-Light" font-size="40.0" fill="#FE3772" transform="matrix(1.00, 0.00, -0.00, -1.00, 336.2, 245.0)">n</text><text xml:space="preserve" font-family="Helvetica-Light" font-size="40.0" fill="#FE3772" transform="matrix(1.00, 0.00, -0.00, -1.00, 358.4, 245.0)">f</text><text xml:space="preserve" font-family="Helvetica-Light" font-size="40.0" fill="#FE3772" transform="matrix(1.00, 0.00, -0.00, -1.00, 369.6, 245.0)">o</text><text xml:space="preserve" font-family="Helvetica-Light" font-size="40.0" fill="#FE3772" transform="matrix(1.00, 0.00, -0.00, -1.00, 391.8, 245.0)">/</text><text xml:space="preserve" font-family="Helvetica-Light" font-size="40.0" fill="#FE3772" transform="matrix(1.00, 0.00, -0.00, -1.00, 402.9, 245.0)">g</text><text xml:space="preserve" font-family="Helvetica-Light" font-size="40.0" fill="#FE3772" transform="matrix(1.00, 0.00, -0.00, -1.00, 427.4, 245.0)">e</text><text xml:space="preserve" font-family="Helvetica-Light" font-size="40.0" fill="#FE3772" transform="matrix(1.00, 0.00, -0.00, -1.00, 449.6, 245.0)">t</text><text xml:space="preserve" font-family="Helvetica-Light" font-size="40.0" fill="#FE3772" transform="matrix(1.00, 0.00, -0.00, -1.00, 460.7, 245.0)">-</text><text xml:space="preserve" font-family="Helvetica-Light" font-size="40.0" fill="#FE3772" transform="matrix(1.00, 0.00, -0.00, -1.00, 474.0, 245.0)">c</text><text xml:space="preserve" font-family="Helvetica-Light" font-size="40.0" fill="#FE3772" transform="matrix(1.00, 0.00, -0.00, -1.00, 496.3, 245.0)">h</text><text xml:space="preserve" font-family="Helvetica-Light" font-size="40.0" fill="#FE3772" transform="matrix(1.00, 0.00, -0.00, -1.00, 518.5, 245.0)">r</text><text xml:space="preserve" font-family="Helvetica-Light" font-size="40.0" fill="#FE3772" transform="matrix(1.00, 0.00, -0.00, -1.00, 531.1, 245.0)">o</text><text xml:space="preserve" font-family="Helvetica-Light" font-size="40.0" fill="#FE3772" transform="matrix(1.00, 0.00, -0.00, -1.00, 553.4, 245.0)">m</text><text xml:space="preserve" font-family="Helvetica-Light" font-size="40.0" fill="#FE3772" transform="matrix(1.00, 0.00, -0.00, -1.00, 586.7, 245.0)">e</text><g><clipPath id="clip-41"><path d="M 210.2 239.9 L 609.1 239.9 L 609.1 243.9 L 210.2 243.9 Z M 210.2 239.9 "></path></clipPath><g clip-path="url(#clip-41)"><path d="M 6.1 47.4 L 404.0 47.4 " fill="none" stroke="#FE3772" stroke-width="2.00" stroke-miterlimit="0.00" transform="matrix(1.00, 0.00, 0.00, -1.00, 205.1, 289.3)"></path></g></g><text xml:space="preserve" font-family="Helvetica-Light" font-size="40.0" fill="#FE3772" transform="matrix(1.00, 0.00, -0.00, -1.00, 799.0, 245.0)">n</text><text xml:space="preserve" font-family="Helvetica-Light" font-size="40.0" fill="#FE3772" transform="matrix(1.00, 0.00, -0.00, -1.00, 821.2, 245.0)">i</text><text xml:space="preserve" font-family="Helvetica-Light" font-size="40.0" fill="#FE3772" transform="matrix(1.00, 0.00, -0.00, -1.00, 830.1, 245.0)">g</text><text xml:space="preserve" font-family="Helvetica-Light" font-size="40.0" fill="#FE3772" transform="matrix(1.00, 0.00, -0.00, -1.00, 854.6, 245.0)">h</text><text xml:space="preserve" font-family="Helvetica-Light" font-size="40.0" fill="#FE3772" transform="matrix(1.00, 0.00, -0.00, -1.00, 876.8, 245.0)">t</text><text xml:space="preserve" font-family="Helvetica-Light" font-size="40.0" fill="#FE3772" transform="matrix(1.00, 0.00, -0.00, -1.00, 887.9, 245.0)">l</text><text xml:space="preserve" font-family="Helvetica-Light" font-size="40.0" fill="#FE3772" transform="matrix(1.00, 0.00, -0.00, -1.00, 896.8, 245.0)">y</text><text xml:space="preserve" font-family="Helvetica-Light" font-size="40.0" fill="#FE3772" transform="matrix(1.00, 0.00, -0.00, -1.00, 913.1, 245.0)">.</text><text xml:space="preserve" font-family="Helvetica-Light" font-size="40.0" fill="#FE3772" transform="matrix(1.00, 0.00, -0.00, -1.00, 924.2, 245.0)">m</text><text xml:space="preserve" font-family="Helvetica-Light" font-size="40.0" fill="#FE3772" transform="matrix(1.00, 0.00, -0.00, -1.00, 957.6, 245.0)">o</text><text xml:space="preserve" font-family="Helvetica-Light" font-size="40.0" fill="#FE3772" transform="matrix(1.00, 0.00, -0.00, -1.00, 979.8, 245.0)">z</text><text xml:space="preserve" font-family="Helvetica-Light" font-size="40.0" fill="#FE3772" transform="matrix(1.00, 0.00, -0.00, -1.00, 999.8, 245.0)">i</text><text xml:space="preserve" font-family="Helvetica-Light" font-size="40.0" fill="#FE3772" transform="matrix(1.00, 0.00, -0.00, -1.00, 1008.7, 245.0)">l</text><text xml:space="preserve" font-family="Helvetica-Light" font-size="40.0" fill="#FE3772" transform="matrix(1.00, 0.00, -0.00, -1.00, 1017.6, 245.0)">l</text><text xml:space="preserve" font-family="Helvetica-Light" font-size="40.0" fill="#FE3772" transform="matrix(1.00, 0.00, -0.00, -1.00, 1026.4, 245.0)">a</text><text xml:space="preserve" font-family="Helvetica-Light" font-size="40.0" fill="#FE3772" transform="matrix(1.00, 0.00, -0.00, -1.00, 1048.7, 245.0)">.</text><text xml:space="preserve" font-family="Helvetica-Light" font-size="40.0" fill="#FE3772" transform="matrix(1.00, 0.00, -0.00, -1.00, 1059.8, 245.0)">o</text><text xml:space="preserve" font-family="Helvetica-Light" font-size="40.0" fill="#FE3772" transform="matrix(1.00, 0.00, -0.00, -1.00, 1082.0, 245.0)">r</text><text xml:space="preserve" font-family="Helvetica-Light" font-size="40.0" fill="#FE3772" transform="matrix(1.00, 0.00, -0.00, -1.00, 1095.4, 245.0)">g</text><g><clipPath id="clip-42"><path d="M 798.1 239.9 L 1119.9 239.9 L 1119.9 243.9 L 798.1 243.9 Z M 798.1 239.9 "></path></clipPath><g clip-path="url(#clip-42)"><path d="M 5.6 47.4 L 326.4 47.4 " fill="none" stroke="#FE3772" stroke-width="2.00" stroke-miterlimit="0.00" transform="matrix(1.00, 0.00, 0.00, -1.00, 793.5, 289.3)"></path></g></g><text xml:space="preserve" font-family="Helvetica-Light" font-size="40.0" fill="#FE3772" transform="matrix(1.00, 0.00, -0.00, -1.00, 1393.0, 242.0)">s</text><text xml:space="preserve" font-family="Helvetica-Light" font-size="40.0" fill="#FE3772" transform="matrix(1.00, 0.00, -0.00, -1.00, 1413.0, 242.0)">a</text><text xml:space="preserve" font-family="Helvetica-Light" font-size="40.0" fill="#FE3772" transform="matrix(1.00, 0.00, -0.00, -1.00, 1435.2, 242.0)">m</text><text xml:space="preserve" font-family="Helvetica-Light" font-size="40.0" fill="#FE3772" transform="matrix(1.00, 0.00, -0.00, -1.00, 1468.6, 242.0)">s</text><text xml:space="preserve" font-family="Helvetica-Light" font-size="40.0" fill="#FE3772" transform="matrix(1.00, 0.00, -0.00, -1.00, 1488.6, 242.0)">u</text><text xml:space="preserve" font-family="Helvetica-Light" font-size="40.0" fill="#FE3772" transform="matrix(1.00, 0.00, -0.00, -1.00, 1510.8, 242.0)">n</text><text xml:space="preserve" font-family="Helvetica-Light" font-size="40.0" fill="#FE3772" transform="matrix(1.00, 0.00, -0.00, -1.00, 1533.0, 242.0)">g</text><text xml:space="preserve" font-family="Helvetica-Light" font-size="40.0" fill="#FE3772" transform="matrix(1.00, 0.00, -0.00, -1.00, 1557.5, 242.0)">.</text><text xml:space="preserve" font-family="Helvetica-Light" font-size="40.0" fill="#FE3772" transform="matrix(1.00, 0.00, -0.00, -1.00, 1568.6, 242.0)">c</text><text xml:space="preserve" font-family="Helvetica-Light" font-size="40.0" fill="#FE3772" transform="matrix(1.00, 0.00, -0.00, -1.00, 1590.8, 242.0)">o</text><text xml:space="preserve" font-family="Helvetica-Light" font-size="40.0" fill="#FE3772" transform="matrix(1.00, 0.00, -0.00, -1.00, 1613.1, 242.0)">m</text><text xml:space="preserve" font-family="Helvetica-Light" font-size="40.0" fill="#FE3772" transform="matrix(1.00, 0.00, -0.00, -1.00, 1646.4, 242.0)">/</text><text xml:space="preserve" font-family="Helvetica-Light" font-size="40.0" fill="#FE3772" transform="matrix(1.00, 0.00, -0.00, -1.00, 1657.5, 242.0)">u</text><text xml:space="preserve" font-family="Helvetica-Light" font-size="40.0" fill="#FE3772" transform="matrix(1.00, 0.00, -0.00, -1.00, 1679.8, 242.0)">s</text><text xml:space="preserve" font-family="Helvetica-Light" font-size="40.0" fill="#FE3772" transform="matrix(1.00, 0.00, -0.00, -1.00, 1699.8, 242.0)">/</text><text xml:space="preserve" font-family="Helvetica-Light" font-size="40.0" fill="#FE3772" transform="matrix(1.00, 0.00, -0.00, -1.00, 1710.9, 242.0)">e</text><text xml:space="preserve" font-family="Helvetica-Light" font-size="40.0" fill="#FE3772" transform="matrix(1.00, 0.00, -0.00, -1.00, 1733.1, 242.0)">x</text><text xml:space="preserve" font-family="Helvetica-Light" font-size="40.0" fill="#FE3772" transform="matrix(1.00, 0.00, -0.00, -1.00, 1753.1, 242.0)">p</text><text xml:space="preserve" font-family="Helvetica-Light" font-size="40.0" fill="#FE3772" transform="matrix(1.00, 0.00, -0.00, -1.00, 1777.6, 242.0)">l</text><text xml:space="preserve" font-family="Helvetica-Light" font-size="40.0" fill="#FE3772" transform="matrix(1.00, 0.00, -0.00, -1.00, 1786.4, 242.0)">o</text><text xml:space="preserve" font-family="Helvetica-Light" font-size="40.0" fill="#FE3772" transform="matrix(1.00, 0.00, -0.00, -1.00, 1808.7, 242.0)">r</text><text xml:space="preserve" font-family="Helvetica-Light" font-size="40.0" fill="#FE3772" transform="matrix(1.00, 0.00, -0.00, -1.00, 1821.3, 242.0)">e</text><text xml:space="preserve" font-family="Helvetica-Light" font-size="40.0" fill="#FE3772" transform="matrix(1.00, 0.00, -0.00, -1.00, 1843.5, 242.0)"> </text><g><clipPath id="clip-43"><path d="M 1391.8 236.7 L 1843.3 236.7 L 1843.3 240.7 L 1391.8 240.7 Z M 1391.8 236.7 "></path></clipPath><g clip-path="url(#clip-43)"><path d="M 5.6 47.4 L 456.1 47.4 " fill="none" stroke="#FE3772" stroke-width="2.00" stroke-miterlimit="0.00" transform="matrix(1.00, 0.00, 0.00, -1.00, 1387.2, 286.1)"></path></g></g><text xml:space="preserve" font-family="Helvetica-Light" font-size="40.0" fill="#FE3772" transform="matrix(1.00, 0.00, -0.00, -1.00, 1393.0, 194.0)">/</text><text xml:space="preserve" font-family="Helvetica-Light" font-size="40.0" fill="#FE3772" transform="matrix(1.00, 0.00, -0.00, -1.00, 1404.1, 194.0)">g</text><text xml:space="preserve" font-family="Helvetica-Light" font-size="40.0" fill="#FE3772" transform="matrix(1.00, 0.00, -0.00, -1.00, 1428.6, 194.0)">e</text><text xml:space="preserve" font-family="Helvetica-Light" font-size="40.0" fill="#FE3772" transform="matrix(1.00, 0.00, -0.00, -1.00, 1450.8, 194.0)">a</text><text xml:space="preserve" font-family="Helvetica-Light" font-size="40.0" fill="#FE3772" transform="matrix(1.00, 0.00, -0.00, -1.00, 1473.0, 194.0)">r</text><text xml:space="preserve" font-family="Helvetica-Light" font-size="40.0" fill="#FE3772" transform="matrix(1.00, 0.00, -0.00, -1.00, 1484.2, 194.0)">-</text><text xml:space="preserve" font-family="Helvetica-Light" font-size="40.0" fill="#FE3772" transform="matrix(1.00, 0.00, -0.00, -1.00, 1497.5, 194.0)">v</text><text xml:space="preserve" font-family="Helvetica-Light" font-size="40.0" fill="#FE3772" transform="matrix(1.00, 0.00, -0.00, -1.00, 1517.5, 194.0)">r</text><text xml:space="preserve" font-family="Helvetica-Light" font-size="40.0" fill="#FE3772" transform="matrix(1.00, 0.00, -0.00, -1.00, 1530.8, 194.0)">/</text><g><clipPath id="clip-44"><path d="M 1391.8 188.7 L 1541.7 188.7 L 1541.7 192.7 L 1391.8 192.7 Z M 1391.8 188.7 "></path></clipPath><g clip-path="url(#clip-44)"><path d="M 5.6 95.4 L 154.5 95.4 " fill="none" stroke="#FE3772" stroke-width="2.00" stroke-miterlimit="0.00" transform="matrix(1.00, 0.00, 0.00, -1.00, 1387.2, 286.1)"></path></g></g><text xml:space="preserve" font-family="Helvetica-Bold" font-weight="bold" font-size="90.0" fill="#FEFFFF" transform="matrix(1.00, 0.00, -0.00, -1.00, 620.0, 910.0)">W</text><text xml:space="preserve" font-family="Helvetica-Bold" font-weight="bold" font-size="90.0" fill="#FEFFFF" transform="matrix(1.00, 0.00, -0.00, -1.00, 703.4, 910.0)">e</text><text xml:space="preserve" font-family="Helvetica-Bold" font-weight="bold" font-size="90.0" fill="#FEFFFF" transform="matrix(1.00, 0.00, -0.00, -1.00, 753.4, 910.0)">b</text><text xml:space="preserve" font-family="Helvetica-Bold" font-weight="bold" font-size="90.0" fill="#FEFFFF" transform="matrix(1.00, 0.00, -0.00, -1.00, 808.4, 910.0)">V</text><text xml:space="preserve" font-family="Helvetica-Bold" font-weight="bold" font-size="90.0" fill="#FEFFFF" transform="matrix(1.00, 0.00, -0.00, -1.00, 868.4, 910.0)">R</text><text xml:space="preserve" font-family="Helvetica-Bold" font-weight="bold" font-size="90.0" fill="#FEFFFF" transform="matrix(1.00, 0.00, -0.00, -1.00, 933.4, 910.0)"> </text><text xml:space="preserve" font-family="Helvetica-Bold" font-weight="bold" font-size="90.0" fill="#FEFFFF" transform="matrix(1.00, 0.00, -0.00, -1.00, 958.4, 910.0)">B</text><text xml:space="preserve" font-family="Helvetica-Bold" font-weight="bold" font-size="90.0" fill="#FEFFFF" transform="matrix(1.00, 0.00, -0.00, -1.00, 1023.4, 910.0)">r</text><text xml:space="preserve" font-family="Helvetica-Bold" font-weight="bold" font-size="90.0" fill="#FEFFFF" transform="matrix(1.00, 0.00, -0.00, -1.00, 1058.5, 910.0)">o</text><text xml:space="preserve" font-family="Helvetica-Bold" font-weight="bold" font-size="90.0" fill="#FEFFFF" transform="matrix(1.00, 0.00, -0.00, -1.00, 1113.4, 910.0)">w</text><text xml:space="preserve" font-family="Helvetica-Bold" font-weight="bold" font-size="90.0" fill="#FEFFFF" transform="matrix(1.00, 0.00, -0.00, -1.00, 1183.4, 910.0)">s</text><text xml:space="preserve" font-family="Helvetica-Bold" font-weight="bold" font-size="90.0" fill="#FEFFFF" transform="matrix(1.00, 0.00, -0.00, -1.00, 1233.5, 910.0)">e</text><text xml:space="preserve" font-family="Helvetica-Bold" font-weight="bold" font-size="90.0" fill="#FEFFFF" transform="matrix(1.00, 0.00, -0.00, -1.00, 1283.6, 910.0)">r</text><text xml:space="preserve" font-family="Helvetica-Bold" font-weight="bold" font-size="90.0" fill="#FEFFFF" transform="matrix(1.00, 0.00, -0.00, -1.00, 1318.6, 910.0)">s</text><path d="M 0.0 0.0 L 547.8 0.0 " fill="none" stroke="#A6AAA8" stroke-width="2.00" transform="matrix(0.00, 1.00, 1.00, 0.00, 694.0, 186.8)"></path><path d="M 0.0 0.0 L 547.8 0.0 " fill="none" stroke="#A6AAA8" stroke-width="2.00" transform="matrix(0.00, 1.00, 1.00, 0.00, 1264.8, 176.8)"></path></g></svg>