<?xml version="1.0" encoding="UTF-8" standalone="no"?><svg xmlns="http://www.w3.org/2000/svg" xmlns:xlink="http://www.w3.org/1999/xlink" clip-rule="evenodd" stroke-miterlimit="4.00" viewBox="0 0 520 50"><desc>SVG generated by Keynote</desc><defs></defs><g transform="matrix(1.00, 0.00, -0.00, -1.00, 0.0, 50.0)"><text xml:space="preserve" font-family="Helvetica" font-size="48.0" fill="#FEFFFF" transform="matrix(1.00, 0.00, -0.00, -1.00, 1.0, 13.0)">V</text><text xml:space="preserve" font-family="Helvetica" font-size="48.0" fill="#FEFFFF" transform="matrix(1.00, 0.00, -0.00, -1.00, 33.0, 13.0)">R</text><text xml:space="preserve" font-family="Helvetica" font-size="48.0" fill="#FEFFFF" transform="matrix(1.00, 0.00, -0.00, -1.00, 67.7, 13.0)"> </text><text xml:space="preserve" font-family="Helvetica" font-size="48.0" fill="#FEFFFF" transform="matrix(1.00, 0.00, -0.00, -1.00, 81.0, 13.0)">d</text><text xml:space="preserve" font-family="Helvetica" font-size="48.0" fill="#FEFFFF" transform="matrix(1.00, 0.00, -0.00, -1.00, 107.7, 13.0)">i</text><text xml:space="preserve" font-family="Helvetica" font-size="48.0" fill="#FEFFFF" transform="matrix(1.00, 0.00, -0.00, -1.00, 118.4, 13.0)">s</text><text xml:space="preserve" font-family="Helvetica" font-size="48.0" fill="#FEFFFF" transform="matrix(1.00, 0.00, -0.00, -1.00, 142.4, 13.0)">p</text><text xml:space="preserve" font-family="Helvetica" font-size="48.0" fill="#FEFFFF" transform="matrix(1.00, 0.00, -0.00, -1.00, 169.1, 13.0)">l</text><text xml:space="preserve" font-family="Helvetica" font-size="48.0" fill="#FEFFFF" transform="matrix(1.00, 0.00, -0.00, -1.00, 179.8, 13.0)">a</text><text xml:space="preserve" font-family="Helvetica" font-size="48.0" fill="#FEFFFF" transform="matrix(1.00, 0.00, -0.00, -1.00, 206.5, 13.0)">y</text><text xml:space="preserve" font-family="Helvetica" font-size="48.0" fill="#FEFFFF" transform="matrix(1.00, 0.00, -0.00, -1.00, 230.5, 13.0)"> </text><text xml:space="preserve" font-family="Helvetica" font-size="48.0" fill="#FEFFFF" transform="matrix(1.00, 0.00, -0.00, -1.00, 243.8, 13.0)">u</text><text xml:space="preserve" font-family="Helvetica" font-size="48.0" fill="#FEFFFF" transform="matrix(1.00, 0.00, -0.00, -1.00, 270.5, 13.0)">s</text><text xml:space="preserve" font-family="Helvetica" font-size="48.0" fill="#FEFFFF" transform="matrix(1.00, 0.00, -0.00, -1.00, 294.5, 13.0)">i</text><text xml:space="preserve" font-family="Helvetica" font-size="48.0" fill="#FEFFFF" transform="matrix(1.00, 0.00, -0.00, -1.00, 305.2, 13.0)">n</text><text xml:space="preserve" font-family="Helvetica" font-size="48.0" fill="#FEFFFF" transform="matrix(1.00, 0.00, -0.00, -1.00, 331.9, 13.0)">g</text><text xml:space="preserve" font-family="Helvetica" font-size="48.0" fill="#FEFFFF" transform="matrix(1.00, 0.00, -0.00, -1.00, 358.6, 13.0)"> </text><text xml:space="preserve" font-family="Helvetica" font-size="48.0" fill="#FEFFFF" transform="matrix(1.00, 0.00, -0.00, -1.00, 371.9, 13.0)">F</text><text xml:space="preserve" font-family="Helvetica" font-size="48.0" fill="#FEFFFF" transform="matrix(1.00, 0.00, -0.00, -1.00, 401.2, 13.0)">i</text><text xml:space="preserve" font-family="Helvetica" font-size="48.0" fill="#FEFFFF" transform="matrix(1.00, 0.00, -0.00, -1.00, 411.9, 13.0)">r</text><text xml:space="preserve" font-family="Helvetica" font-size="48.0" fill="#FEFFFF" transform="matrix(1.00, 0.00, -0.00, -1.00, 427.9, 13.0)">e</text><text xml:space="preserve" font-family="Helvetica" font-size="48.0" fill="#FEFFFF" transform="matrix(1.00, 0.00, -0.00, -1.00, 454.6, 13.0)">f</text><text xml:space="preserve" font-family="Helvetica" font-size="48.0" fill="#FEFFFF" transform="matrix(1.00, 0.00, -0.00, -1.00, 467.9, 13.0)">o</text><text xml:space="preserve" font-family="Helvetica" font-size="48.0" fill="#FEFFFF" transform="matrix(1.00, 0.00, -0.00, -1.00, 494.6, 13.0)">x</text></g></svg>