<?xml version="1.0" encoding="UTF-8" standalone="no"?><svg xmlns="http://www.w3.org/2000/svg" xmlns:xlink="http://www.w3.org/1999/xlink" clip-rule="evenodd" stroke-miterlimit="4.00" viewBox="0 0 1920 1080"><desc>SVG generated by Keynote</desc><defs></defs><g transform="matrix(1.00, 0.00, -0.00, -1.00, 0.0, 1080.0)"><path d="M 0.0 1080.0 L 1920.0 1080.0 L 1920.0 0.0 L 0.0 0.0 Z M 0.0 1080.0 " fill="#000000"></path><text xml:space="preserve" font-family="Helvetica-Light" font-size="39.0" fill="#FEFFFF" transform="matrix(1.00, 0.00, -0.00, -1.00, 351.1, 431.0)">•</text><text xml:space="preserve" font-family="Helvetica-Light" font-size="52.0" fill="#FEFFFF" transform="matrix(1.00, 0.00, -0.00, -1.00, 399.0, 426.0)">m</text><image xlink:href="A5BD5C666507984A5F40A4ADDE23A905.png" width="960.00" height="540.00" transform="matrix(2.00, 0.00, -0.00, -2.00, 0.0, 1080.0)"></image><text xml:space="preserve" font-family="Helvetica" font-size="48.0" fill="#FEFFFF" transform="matrix(1.00, 0.00, -0.00, -1.00, 697.0, 117.0)">F</text><text xml:space="preserve" font-family="Helvetica" font-size="48.0" fill="#FEFFFF" transform="matrix(1.00, 0.00, -0.00, -1.00, 726.3, 117.0)">u</text><text xml:space="preserve" font-family="Helvetica" font-size="48.0" fill="#FEFFFF" transform="matrix(1.00, 0.00, -0.00, -1.00, 753.0, 117.0)">l</text><text xml:space="preserve" font-family="Helvetica" font-size="48.0" fill="#FEFFFF" transform="matrix(1.00, 0.00, -0.00, -1.00, 763.7, 117.0)">l</text><text xml:space="preserve" font-family="Helvetica" font-size="48.0" fill="#FEFFFF" transform="matrix(1.00, 0.00, -0.00, -1.00, 774.4, 117.0)">-</text><text xml:space="preserve" font-family="Helvetica" font-size="48.0" fill="#FEFFFF" transform="matrix(1.00, 0.00, -0.00, -1.00, 790.3, 117.0)">V</text><text xml:space="preserve" font-family="Helvetica" font-size="48.0" fill="#FEFFFF" transform="matrix(1.00, 0.00, -0.00, -1.00, 822.4, 117.0)">R</text><text xml:space="preserve" font-family="Helvetica" font-size="48.0" fill="#FEFFFF" transform="matrix(1.00, 0.00, -0.00, -1.00, 857.0, 117.0)"> </text><text xml:space="preserve" font-family="Helvetica" font-size="48.0" fill="#FEFFFF" transform="matrix(1.00, 0.00, -0.00, -1.00, 870.4, 117.0)">B</text><text xml:space="preserve" font-family="Helvetica" font-size="48.0" fill="#FEFFFF" transform="matrix(1.00, 0.00, -0.00, -1.00, 902.4, 117.0)">r</text><text xml:space="preserve" font-family="Helvetica" font-size="48.0" fill="#FEFFFF" transform="matrix(1.00, 0.00, -0.00, -1.00, 918.4, 117.0)">o</text><text xml:space="preserve" font-family="Helvetica" font-size="48.0" fill="#FEFFFF" transform="matrix(1.00, 0.00, -0.00, -1.00, 945.1, 117.0)">w</text><text xml:space="preserve" font-family="Helvetica" font-size="48.0" fill="#FEFFFF" transform="matrix(1.00, 0.00, -0.00, -1.00, 979.7, 117.0)">s</text><text xml:space="preserve" font-family="Helvetica" font-size="48.0" fill="#FEFFFF" transform="matrix(1.00, 0.00, -0.00, -1.00, 1003.7, 117.0)">e</text><text xml:space="preserve" font-family="Helvetica" font-size="48.0" fill="#FEFFFF" transform="matrix(1.00, 0.00, -0.00, -1.00, 1030.4, 117.0)">r</text><text xml:space="preserve" font-family="Helvetica" font-size="48.0" fill="#FEFFFF" transform="matrix(1.00, 0.00, -0.00, -1.00, 1046.4, 117.0)"> </text><text xml:space="preserve" font-family="Helvetica" font-size="48.0" fill="#FEFFFF" transform="matrix(1.00, 0.00, -0.00, -1.00, 1059.8, 117.0)">P</text><text xml:space="preserve" font-family="Helvetica" font-size="48.0" fill="#FEFFFF" transform="matrix(1.00, 0.00, -0.00, -1.00, 1091.8, 117.0)">r</text><text xml:space="preserve" font-family="Helvetica" font-size="48.0" fill="#FEFFFF" transform="matrix(1.00, 0.00, -0.00, -1.00, 1107.8, 117.0)">o</text><text xml:space="preserve" font-family="Helvetica" font-size="48.0" fill="#FEFFFF" transform="matrix(1.00, 0.00, -0.00, -1.00, 1134.5, 117.0)">t</text><text xml:space="preserve" font-family="Helvetica" font-size="48.0" fill="#FEFFFF" transform="matrix(1.00, 0.00, -0.00, -1.00, 1147.8, 117.0)">o</text><text xml:space="preserve" font-family="Helvetica" font-size="48.0" fill="#FEFFFF" transform="matrix(1.00, 0.00, -0.00, -1.00, 1174.5, 117.0)">t</text><text xml:space="preserve" font-family="Helvetica" font-size="48.0" fill="#FEFFFF" transform="matrix(1.00, 0.00, -0.00, -1.00, 1187.8, 117.0)">y</text><text xml:space="preserve" font-family="Helvetica" font-size="48.0" fill="#FEFFFF" transform="matrix(1.00, 0.00, -0.00, -1.00, 1211.8, 117.0)">p</text><text xml:space="preserve" font-family="Helvetica" font-size="48.0" fill="#FEFFFF" transform="matrix(1.00, 0.00, -0.00, -1.00, 1238.5, 117.0)">e</text></g></svg>