<?xml version="1.0" encoding="UTF-8" standalone="no"?><svg xmlns="http://www.w3.org/2000/svg" xmlns:xlink="http://www.w3.org/1999/xlink" clip-rule="evenodd" stroke-miterlimit="4.00" viewBox="0 0 1920 1080"><desc>SVG generated by Keynote</desc><defs></defs><g transform="matrix(1.00, 0.00, -0.00, -1.00, 0.0, 1080.0)"><path d="M 0.0 1080.0 L 1920.0 1080.0 L 1920.0 0.0 L 0.0 0.0 Z M 0.0 1080.0 " fill="#000000"></path><image xlink:href="80D7E5C64F45C103B4FFFCA9835EFB13.png" width="1064.00" height="1140.00" transform="matrix(0.79, 0.00, -0.00, -0.79, 539.0, 1099.0)"></image><text xml:space="preserve" font-family="Helvetica" font-size="48.0" fill="#FEFFFF" transform="matrix(1.00, 0.00, -0.00, -1.00, 823.0, 86.0)">T</text><text xml:space="preserve" font-family="Helvetica" font-size="48.0" fill="#FEFFFF" transform="matrix(1.00, 0.00, -0.00, -1.00, 847.0, 86.0)">e</text><text xml:space="preserve" font-family="Helvetica" font-size="48.0" fill="#FEFFFF" transform="matrix(1.00, 0.00, -0.00, -1.00, 873.7, 86.0)">l</text><text xml:space="preserve" font-family="Helvetica" font-size="48.0" fill="#FEFFFF" transform="matrix(1.00, 0.00, -0.00, -1.00, 884.4, 86.0)">e</text><text xml:space="preserve" font-family="Helvetica" font-size="48.0" fill="#FEFFFF" transform="matrix(1.00, 0.00, -0.00, -1.00, 911.1, 86.0)">p</text><text xml:space="preserve" font-family="Helvetica" font-size="48.0" fill="#FEFFFF" transform="matrix(1.00, 0.00, -0.00, -1.00, 937.8, 86.0)">o</text><text xml:space="preserve" font-family="Helvetica" font-size="48.0" fill="#FEFFFF" transform="matrix(1.00, 0.00, -0.00, -1.00, 964.5, 86.0)">r</text><text xml:space="preserve" font-family="Helvetica" font-size="48.0" fill="#FEFFFF" transform="matrix(1.00, 0.00, -0.00, -1.00, 980.5, 86.0)">t</text><text xml:space="preserve" font-family="Helvetica" font-size="48.0" fill="#FEFFFF" transform="matrix(1.00, 0.00, -0.00, -1.00, 993.8, 86.0)">a</text><text xml:space="preserve" font-family="Helvetica" font-size="48.0" fill="#FEFFFF" transform="matrix(1.00, 0.00, -0.00, -1.00, 1020.5, 86.0)">t</text><text xml:space="preserve" font-family="Helvetica" font-size="48.0" fill="#FEFFFF" transform="matrix(1.00, 0.00, -0.00, -1.00, 1033.8, 86.0)">i</text><text xml:space="preserve" font-family="Helvetica" font-size="48.0" fill="#FEFFFF" transform="matrix(1.00, 0.00, -0.00, -1.00, 1044.5, 86.0)">o</text><text xml:space="preserve" font-family="Helvetica" font-size="48.0" fill="#FEFFFF" transform="matrix(1.00, 0.00, -0.00, -1.00, 1071.2, 86.0)">n</text></g></svg>