<?xml version="1.0" encoding="UTF-8" standalone="no"?><svg xmlns="http://www.w3.org/2000/svg" xmlns:xlink="http://www.w3.org/1999/xlink" clip-rule="evenodd" stroke-miterlimit="4.00" viewBox="0 0 1920 1080"><desc>SVG generated by Keynote</desc><defs><pattern id="4B6976C3-3842-4E4E-A32A-7ED2BCCA13D0" patternUnits="userSpaceOnUse" width="256" height="256" viewBox="0 0 256 256" patternTransform="matrix(0.500000, 0.000000, 0.000000, -0.500000, 238.258900, 221.741100)"><image xlink:href="../../F4E454F4-72F5-4F5A-901D-6A49E8C26D77/assets/C2E6FBB4C3857A0E73F6D4A465A166F0.jpeg" width="256.00" height="256.00"></image></pattern></defs><g transform="matrix(1.00, 0.00, -0.00, -1.00, 0.0, 1080.0)"><path d="M 0.0 1080.0 L 1920.0 1080.0 L 1920.0 0.0 L 0.0 0.0 Z M 0.0 1080.0 " fill="#000000"></path><image xlink:href="309D882234C64073676CF8CA1E28FC0A.png" width="961.00" height="511.00" transform="matrix(2.16, 0.00, -0.00, -2.17, -80.0, 1094.0)"></image><g><clipPath id="clip-172"><path d="M 238.3 221.7 L 1681.7 221.7 L 1681.7 -2.1 L 238.3 -2.1 Z M 238.3 221.7 "></path></clipPath><g clip-path="url(#clip-172)"><path d="M 238.3 0.0 L 1681.7 0.0 L 1681.7 221.7 L 238.3 221.7 Z M 238.3 0.0 " fill="url(#4B6976C3-3842-4E4E-A32A-7ED2BCCA13D0)"></path><path d="M 238.3 221.7 L 1681.7 221.7 L 1681.7 -2.1 L 238.3 -2.1 Z M 238.3 221.7 " fill="#222222"></path></g></g><text xml:space="preserve" font-family="Helvetica" font-size="112.0" fill="#000000" transform="matrix(1.00, 0.00, -0.00, -1.00, 284.0, 953.0)">M</text><text xml:space="preserve" font-family="Helvetica" font-size="112.0" fill="#000000" transform="matrix(1.00, 0.00, -0.00, -1.00, 377.3, 953.0)">u</text><text xml:space="preserve" font-family="Helvetica" font-size="112.0" fill="#000000" transform="matrix(1.00, 0.00, -0.00, -1.00, 439.6, 953.0)">l</text><text xml:space="preserve" font-family="Helvetica" font-size="112.0" fill="#000000" transform="matrix(1.00, 0.00, -0.00, -1.00, 464.5, 953.0)">t</text><text xml:space="preserve" font-family="Helvetica" font-size="112.0" fill="#000000" transform="matrix(1.00, 0.00, -0.00, -1.00, 495.6, 953.0)">i</text><text xml:space="preserve" font-family="Helvetica" font-size="112.0" fill="#000000" transform="matrix(1.00, 0.00, -0.00, -1.00, 520.5, 953.0)">-</text><text xml:space="preserve" font-family="Helvetica" font-size="112.0" fill="#000000" transform="matrix(1.00, 0.00, -0.00, -1.00, 557.8, 953.0)">u</text><text xml:space="preserve" font-family="Helvetica" font-size="112.0" fill="#000000" transform="matrix(1.00, 0.00, -0.00, -1.00, 620.1, 953.0)">s</text><text xml:space="preserve" font-family="Helvetica" font-size="112.0" fill="#000000" transform="matrix(1.00, 0.00, -0.00, -1.00, 676.1, 953.0)">e</text><text xml:space="preserve" font-family="Helvetica" font-size="112.0" fill="#000000" transform="matrix(1.00, 0.00, -0.00, -1.00, 738.4, 953.0)">r</text><text xml:space="preserve" font-family="FiraMono-Regular" font-size="26.0" fill="#FEFFFF" transform="matrix(1.00, 0.00, -0.00, -1.00, 274.0, 135.0)">&lt;</text><text xml:space="preserve" font-family="FiraMono-Regular" font-size="26.0" fill="#FEFFFF" transform="matrix(1.00, 0.00, -0.00, -1.00, 289.6, 135.0)">a</text><text xml:space="preserve" font-family="FiraMono-Regular" font-size="26.0" fill="#FEFFFF" transform="matrix(1.00, 0.00, -0.00, -1.00, 305.2, 135.0)">-</text><text xml:space="preserve" font-family="FiraMono-Bold" font-weight="bold" font-size="26.0" fill="#FE3772" transform="matrix(1.00, 0.00, -0.00, -1.00, 320.8, 135.0)">s</text><text xml:space="preserve" font-family="FiraMono-Bold" font-weight="bold" font-size="26.0" fill="#FE3772" transform="matrix(1.00, 0.00, -0.00, -1.00, 336.4, 135.0)">c</text><text xml:space="preserve" font-family="FiraMono-Bold" font-weight="bold" font-size="26.0" fill="#FE3772" transform="matrix(1.00, 0.00, -0.00, -1.00, 352.0, 135.0)">e</text><text xml:space="preserve" font-family="FiraMono-Bold" font-weight="bold" font-size="26.0" fill="#FE3772" transform="matrix(1.00, 0.00, -0.00, -1.00, 367.6, 135.0)">n</text><text xml:space="preserve" font-family="FiraMono-Bold" font-weight="bold" font-size="26.0" fill="#FE3772" transform="matrix(1.00, 0.00, -0.00, -1.00, 383.2, 135.0)">e</text><text xml:space="preserve" font-family="FiraMono-Bold" font-weight="bold" font-size="26.0" fill="#FE3772" transform="matrix(1.00, 0.00, -0.00, -1.00, 398.8, 135.0)"> </text><text xml:space="preserve" font-family="FiraMono-Bold" font-weight="bold" font-size="26.0" fill="#10DAE2" transform="matrix(1.00, 0.00, -0.00, -1.00, 414.4, 135.0)">f</text><text xml:space="preserve" font-family="FiraMono-Bold" font-weight="bold" font-size="26.0" fill="#10DAE2" transform="matrix(1.00, 0.00, -0.00, -1.00, 430.0, 135.0)">i</text><text xml:space="preserve" font-family="FiraMono-Bold" font-weight="bold" font-size="26.0" fill="#10DAE2" transform="matrix(1.00, 0.00, -0.00, -1.00, 445.6, 135.0)">r</text><text xml:space="preserve" font-family="FiraMono-Bold" font-weight="bold" font-size="26.0" fill="#10DAE2" transform="matrix(1.00, 0.00, -0.00, -1.00, 461.2, 135.0)">e</text><text xml:space="preserve" font-family="FiraMono-Bold" font-weight="bold" font-size="26.0" fill="#10DAE2" transform="matrix(1.00, 0.00, -0.00, -1.00, 476.8, 135.0)">b</text><text xml:space="preserve" font-family="FiraMono-Bold" font-weight="bold" font-size="26.0" fill="#10DAE2" transform="matrix(1.00, 0.00, -0.00, -1.00, 492.4, 135.0)">a</text><text xml:space="preserve" font-family="FiraMono-Bold" font-weight="bold" font-size="26.0" fill="#10DAE2" transform="matrix(1.00, 0.00, -0.00, -1.00, 508.0, 135.0)">s</text><text xml:space="preserve" font-family="FiraMono-Bold" font-weight="bold" font-size="26.0" fill="#10DAE2" transform="matrix(1.00, 0.00, -0.00, -1.00, 523.6, 135.0)">e</text><text xml:space="preserve" font-family="FiraMono-Regular" font-size="26.0" fill="#FEFFFF" transform="matrix(1.00, 0.00, -0.00, -1.00, 539.2, 135.0)">=</text><text xml:space="preserve" font-family="FiraMono-Regular" font-size="26.0" fill="#FEFFFF" transform="matrix(1.00, 0.00, -0.00, -1.00, 554.8, 135.0)">"</text><text xml:space="preserve" font-family="FiraMono-Regular" font-size="26.0" fill="#FEFFFF" transform="matrix(1.00, 0.00, -0.00, -1.00, 570.4, 135.0)">a</text><text xml:space="preserve" font-family="FiraMono-Regular" font-size="26.0" fill="#FEFFFF" transform="matrix(1.00, 0.00, -0.00, -1.00, 586.0, 135.0)">p</text><text xml:space="preserve" font-family="FiraMono-Regular" font-size="26.0" fill="#FEFFFF" transform="matrix(1.00, 0.00, -0.00, -1.00, 601.6, 135.0)">i</text><text xml:space="preserve" font-family="FiraMono-Regular" font-size="26.0" fill="#FEFFFF" transform="matrix(1.00, 0.00, -0.00, -1.00, 617.2, 135.0)">K</text><text xml:space="preserve" font-family="FiraMono-Regular" font-size="26.0" fill="#FEFFFF" transform="matrix(1.00, 0.00, -0.00, -1.00, 632.8, 135.0)">e</text><text xml:space="preserve" font-family="FiraMono-Regular" font-size="26.0" fill="#FEFFFF" transform="matrix(1.00, 0.00, -0.00, -1.00, 648.4, 135.0)">y</text><text xml:space="preserve" font-family="FiraMono-Regular" font-size="26.0" fill="#FEFFFF" transform="matrix(1.00, 0.00, -0.00, -1.00, 664.0, 135.0)">:</text><text xml:space="preserve" font-family="FiraMono-Regular" font-size="26.0" fill="#FEFFFF" transform="matrix(1.00, 0.00, -0.00, -1.00, 679.6, 135.0)"> </text><text xml:space="preserve" font-family="FiraMono-Bold" font-weight="bold" font-size="26.0" fill="#FBF567" transform="matrix(1.00, 0.00, -0.00, -1.00, 695.2, 135.0)">a</text><text xml:space="preserve" font-family="FiraMono-Bold" font-weight="bold" font-size="26.0" fill="#FBF567" transform="matrix(1.00, 0.00, -0.00, -1.00, 710.8, 135.0)">b</text><text xml:space="preserve" font-family="FiraMono-Bold" font-weight="bold" font-size="26.0" fill="#FBF567" transform="matrix(1.00, 0.00, -0.00, -1.00, 726.4, 135.0)">c</text><text xml:space="preserve" font-family="FiraMono-Regular" font-size="26.0" fill="#FEFFFF" transform="matrix(1.00, 0.00, -0.00, -1.00, 742.0, 135.0)">;</text><text xml:space="preserve" font-family="FiraMono-Regular" font-size="26.0" fill="#FEFFFF" transform="matrix(1.00, 0.00, -0.00, -1.00, 757.6, 135.0)"> </text><text xml:space="preserve" font-family="FiraMono-Regular" font-size="26.0" fill="#FEFFFF" transform="matrix(1.00, 0.00, -0.00, -1.00, 773.2, 135.0)">a</text><text xml:space="preserve" font-family="FiraMono-Regular" font-size="26.0" fill="#FEFFFF" transform="matrix(1.00, 0.00, -0.00, -1.00, 788.8, 135.0)">u</text><text xml:space="preserve" font-family="FiraMono-Regular" font-size="26.0" fill="#FEFFFF" transform="matrix(1.00, 0.00, -0.00, -1.00, 804.4, 135.0)">t</text><text xml:space="preserve" font-family="FiraMono-Regular" font-size="26.0" fill="#FEFFFF" transform="matrix(1.00, 0.00, -0.00, -1.00, 820.0, 135.0)">h</text><text xml:space="preserve" font-family="FiraMono-Regular" font-size="26.0" fill="#FEFFFF" transform="matrix(1.00, 0.00, -0.00, -1.00, 835.6, 135.0)">D</text><text xml:space="preserve" font-family="FiraMono-Regular" font-size="26.0" fill="#FEFFFF" transform="matrix(1.00, 0.00, -0.00, -1.00, 851.2, 135.0)">o</text><text xml:space="preserve" font-family="FiraMono-Regular" font-size="26.0" fill="#FEFFFF" transform="matrix(1.00, 0.00, -0.00, -1.00, 866.8, 135.0)">m</text><text xml:space="preserve" font-family="FiraMono-Regular" font-size="26.0" fill="#FEFFFF" transform="matrix(1.00, 0.00, -0.00, -1.00, 882.4, 135.0)">a</text><text xml:space="preserve" font-family="FiraMono-Regular" font-size="26.0" fill="#FEFFFF" transform="matrix(1.00, 0.00, -0.00, -1.00, 898.0, 135.0)">i</text><text xml:space="preserve" font-family="FiraMono-Regular" font-size="26.0" fill="#FEFFFF" transform="matrix(1.00, 0.00, -0.00, -1.00, 913.6, 135.0)">n</text><text xml:space="preserve" font-family="FiraMono-Regular" font-size="26.0" fill="#FEFFFF" transform="matrix(1.00, 0.00, -0.00, -1.00, 929.2, 135.0)">:</text><text xml:space="preserve" font-family="FiraMono-Regular" font-size="26.0" fill="#FEFFFF" transform="matrix(1.00, 0.00, -0.00, -1.00, 944.8, 135.0)"> </text><text xml:space="preserve" font-family="FiraMono-Bold" font-weight="bold" font-size="26.0" fill="#FBF567" transform="matrix(1.00, 0.00, -0.00, -1.00, 960.4, 135.0)">m</text><text xml:space="preserve" font-family="FiraMono-Bold" font-weight="bold" font-size="26.0" fill="#FBF567" transform="matrix(1.00, 0.00, -0.00, -1.00, 976.0, 135.0)">y</text><text xml:space="preserve" font-family="FiraMono-Bold" font-weight="bold" font-size="26.0" fill="#FBF567" transform="matrix(1.00, 0.00, -0.00, -1.00, 991.6, 135.0)">s</text><text xml:space="preserve" font-family="FiraMono-Bold" font-weight="bold" font-size="26.0" fill="#FBF567" transform="matrix(1.00, 0.00, -0.00, -1.00, 1007.2, 135.0)">i</text><text xml:space="preserve" font-family="FiraMono-Bold" font-weight="bold" font-size="26.0" fill="#FBF567" transform="matrix(1.00, 0.00, -0.00, -1.00, 1022.8, 135.0)">t</text><text xml:space="preserve" font-family="FiraMono-Bold" font-weight="bold" font-size="26.0" fill="#FBF567" transform="matrix(1.00, 0.00, -0.00, -1.00, 1038.4, 135.0)">e</text><text xml:space="preserve" font-family="FiraMono-Bold" font-weight="bold" font-size="26.0" fill="#FBF567" transform="matrix(1.00, 0.00, -0.00, -1.00, 1054.0, 135.0)">.</text><text xml:space="preserve" font-family="FiraMono-Bold" font-weight="bold" font-size="26.0" fill="#FBF567" transform="matrix(1.00, 0.00, -0.00, -1.00, 1069.6, 135.0)">f</text><text xml:space="preserve" font-family="FiraMono-Bold" font-weight="bold" font-size="26.0" fill="#FBF567" transform="matrix(1.00, 0.00, -0.00, -1.00, 1085.2, 135.0)">i</text><text xml:space="preserve" font-family="FiraMono-Bold" font-weight="bold" font-size="26.0" fill="#FBF567" transform="matrix(1.00, 0.00, -0.00, -1.00, 1100.8, 135.0)">r</text><text xml:space="preserve" font-family="FiraMono-Bold" font-weight="bold" font-size="26.0" fill="#FBF567" transform="matrix(1.00, 0.00, -0.00, -1.00, 1116.4, 135.0)">e</text><text xml:space="preserve" font-family="FiraMono-Bold" font-weight="bold" font-size="26.0" fill="#FBF567" transform="matrix(1.00, 0.00, -0.00, -1.00, 1132.0, 135.0)">b</text><text xml:space="preserve" font-family="FiraMono-Bold" font-weight="bold" font-size="26.0" fill="#FBF567" transform="matrix(1.00, 0.00, -0.00, -1.00, 1147.6, 135.0)">a</text><text xml:space="preserve" font-family="FiraMono-Bold" font-weight="bold" font-size="26.0" fill="#FBF567" transform="matrix(1.00, 0.00, -0.00, -1.00, 1163.2, 135.0)">s</text><text xml:space="preserve" font-family="FiraMono-Bold" font-weight="bold" font-size="26.0" fill="#FBF567" transform="matrix(1.00, 0.00, -0.00, -1.00, 1178.8, 135.0)">e</text><text xml:space="preserve" font-family="FiraMono-Bold" font-weight="bold" font-size="26.0" fill="#FBF567" transform="matrix(1.00, 0.00, -0.00, -1.00, 1194.4, 135.0)">a</text><text xml:space="preserve" font-family="FiraMono-Bold" font-weight="bold" font-size="26.0" fill="#FBF567" transform="matrix(1.00, 0.00, -0.00, -1.00, 1210.0, 135.0)">p</text><text xml:space="preserve" font-family="FiraMono-Bold" font-weight="bold" font-size="26.0" fill="#FBF567" transform="matrix(1.00, 0.00, -0.00, -1.00, 1225.6, 135.0)">p</text><text xml:space="preserve" font-family="FiraMono-Bold" font-weight="bold" font-size="26.0" fill="#FBF567" transform="matrix(1.00, 0.00, -0.00, -1.00, 1241.2, 135.0)">.</text><text xml:space="preserve" font-family="FiraMono-Bold" font-weight="bold" font-size="26.0" fill="#FBF567" transform="matrix(1.00, 0.00, -0.00, -1.00, 1256.8, 135.0)">c</text><text xml:space="preserve" font-family="FiraMono-Bold" font-weight="bold" font-size="26.0" fill="#FBF567" transform="matrix(1.00, 0.00, -0.00, -1.00, 1272.4, 135.0)">o</text><text xml:space="preserve" font-family="FiraMono-Bold" font-weight="bold" font-size="26.0" fill="#FBF567" transform="matrix(1.00, 0.00, -0.00, -1.00, 1288.0, 135.0)">m</text><text xml:space="preserve" font-family="FiraMono-Regular" font-size="26.0" fill="#FEFFFF" transform="matrix(1.00, 0.00, -0.00, -1.00, 1303.6, 135.0)">"</text><text xml:space="preserve" font-family="FiraMono-Regular" font-size="26.0" fill="#FEFFFF" transform="matrix(1.00, 0.00, -0.00, -1.00, 1319.2, 135.0)">&gt;</text><text xml:space="preserve" font-family="FiraMono-Regular" font-size="26.0" fill="#FEFFFF" transform="matrix(1.00, 0.00, -0.00, -1.00, 1334.8, 135.0)"> </text><text xml:space="preserve" font-family="FiraMono-Regular" font-size="26.0" fill="#FEFFFF" transform="matrix(1.00, 0.00, -0.00, -1.00, 274.0, 98.0)"> </text><text xml:space="preserve" font-family="FiraMono-Regular" font-size="26.0" fill="#FEFFFF" transform="matrix(1.00, 0.00, -0.00, -1.00, 289.6, 98.0)"> </text><text xml:space="preserve" font-family="FiraMono-Regular" font-size="26.0" fill="#FEFFFF" transform="matrix(1.00, 0.00, -0.00, -1.00, 305.2, 98.0)">&lt;</text><text xml:space="preserve" font-family="FiraMono-Regular" font-size="26.0" fill="#FEFFFF" transform="matrix(1.00, 0.00, -0.00, -1.00, 320.8, 98.0)">a</text><text xml:space="preserve" font-family="FiraMono-Regular" font-size="26.0" fill="#FEFFFF" transform="matrix(1.00, 0.00, -0.00, -1.00, 336.4, 98.0)">-</text><text xml:space="preserve" font-family="FiraMono-Regular" font-size="26.0" fill="#FEFFFF" transform="matrix(1.00, 0.00, -0.00, -1.00, 352.0, 98.0)">e</text><text xml:space="preserve" font-family="FiraMono-Regular" font-size="26.0" fill="#FEFFFF" transform="matrix(1.00, 0.00, -0.00, -1.00, 367.6, 98.0)">n</text><text xml:space="preserve" font-family="FiraMono-Regular" font-size="26.0" fill="#FEFFFF" transform="matrix(1.00, 0.00, -0.00, -1.00, 383.2, 98.0)">t</text><text xml:space="preserve" font-family="FiraMono-Regular" font-size="26.0" fill="#FEFFFF" transform="matrix(1.00, 0.00, -0.00, -1.00, 398.8, 98.0)">i</text><text xml:space="preserve" font-family="FiraMono-Regular" font-size="26.0" fill="#FEFFFF" transform="matrix(1.00, 0.00, -0.00, -1.00, 414.4, 98.0)">t</text><text xml:space="preserve" font-family="FiraMono-Regular" font-size="26.0" fill="#FEFFFF" transform="matrix(1.00, 0.00, -0.00, -1.00, 430.0, 98.0)">y</text><text xml:space="preserve" font-family="FiraMono-Regular" font-size="26.0" fill="#FEFFFF" transform="matrix(1.00, 0.00, -0.00, -1.00, 445.6, 98.0)"> </text><text xml:space="preserve" font-family="FiraMono-Bold" font-weight="bold" font-size="26.0" fill="#10DAE2" transform="matrix(1.00, 0.00, -0.00, -1.00, 461.2, 98.0)">f</text><text xml:space="preserve" font-family="FiraMono-Bold" font-weight="bold" font-size="26.0" fill="#10DAE2" transform="matrix(1.00, 0.00, -0.00, -1.00, 476.8, 98.0)">i</text><text xml:space="preserve" font-family="FiraMono-Bold" font-weight="bold" font-size="26.0" fill="#10DAE2" transform="matrix(1.00, 0.00, -0.00, -1.00, 492.4, 98.0)">r</text><text xml:space="preserve" font-family="FiraMono-Bold" font-weight="bold" font-size="26.0" fill="#10DAE2" transform="matrix(1.00, 0.00, -0.00, -1.00, 508.0, 98.0)">e</text><text xml:space="preserve" font-family="FiraMono-Bold" font-weight="bold" font-size="26.0" fill="#10DAE2" transform="matrix(1.00, 0.00, -0.00, -1.00, 523.6, 98.0)">b</text><text xml:space="preserve" font-family="FiraMono-Bold" font-weight="bold" font-size="26.0" fill="#10DAE2" transform="matrix(1.00, 0.00, -0.00, -1.00, 539.2, 98.0)">a</text><text xml:space="preserve" font-family="FiraMono-Bold" font-weight="bold" font-size="26.0" fill="#10DAE2" transform="matrix(1.00, 0.00, -0.00, -1.00, 554.8, 98.0)">s</text><text xml:space="preserve" font-family="FiraMono-Bold" font-weight="bold" font-size="26.0" fill="#10DAE2" transform="matrix(1.00, 0.00, -0.00, -1.00, 570.4, 98.0)">e</text><text xml:space="preserve" font-family="FiraMono-Bold" font-weight="bold" font-size="26.0" fill="#10DAE2" transform="matrix(1.00, 0.00, -0.00, -1.00, 586.0, 98.0)">-</text><text xml:space="preserve" font-family="FiraMono-Bold" font-weight="bold" font-size="26.0" fill="#10DAE2" transform="matrix(1.00, 0.00, -0.00, -1.00, 601.6, 98.0)">b</text><text xml:space="preserve" font-family="FiraMono-Bold" font-weight="bold" font-size="26.0" fill="#10DAE2" transform="matrix(1.00, 0.00, -0.00, -1.00, 617.2, 98.0)">r</text><text xml:space="preserve" font-family="FiraMono-Bold" font-weight="bold" font-size="26.0" fill="#10DAE2" transform="matrix(1.00, 0.00, -0.00, -1.00, 632.8, 98.0)">o</text><text xml:space="preserve" font-family="FiraMono-Bold" font-weight="bold" font-size="26.0" fill="#10DAE2" transform="matrix(1.00, 0.00, -0.00, -1.00, 648.4, 98.0)">a</text><text xml:space="preserve" font-family="FiraMono-Bold" font-weight="bold" font-size="26.0" fill="#10DAE2" transform="matrix(1.00, 0.00, -0.00, -1.00, 664.0, 98.0)">d</text><text xml:space="preserve" font-family="FiraMono-Bold" font-weight="bold" font-size="26.0" fill="#10DAE2" transform="matrix(1.00, 0.00, -0.00, -1.00, 679.6, 98.0)">c</text><text xml:space="preserve" font-family="FiraMono-Bold" font-weight="bold" font-size="26.0" fill="#10DAE2" transform="matrix(1.00, 0.00, -0.00, -1.00, 695.2, 98.0)">a</text><text xml:space="preserve" font-family="FiraMono-Bold" font-weight="bold" font-size="26.0" fill="#10DAE2" transform="matrix(1.00, 0.00, -0.00, -1.00, 710.8, 98.0)">s</text><text xml:space="preserve" font-family="FiraMono-Bold" font-weight="bold" font-size="26.0" fill="#10DAE2" transform="matrix(1.00, 0.00, -0.00, -1.00, 726.4, 98.0)">t</text><text xml:space="preserve" font-family="FiraMono-Regular" font-size="26.0" fill="#FEFFFF" transform="matrix(1.00, 0.00, -0.00, -1.00, 742.0, 98.0)">=</text><text xml:space="preserve" font-family="FiraMono-Regular" font-size="26.0" fill="#FEFFFF" transform="matrix(1.00, 0.00, -0.00, -1.00, 757.6, 98.0)">"</text><text xml:space="preserve" font-family="FiraMono-Regular" font-size="26.0" fill="#FEFFFF" transform="matrix(1.00, 0.00, -0.00, -1.00, 773.2, 98.0)">c</text><text xml:space="preserve" font-family="FiraMono-Regular" font-size="26.0" fill="#FEFFFF" transform="matrix(1.00, 0.00, -0.00, -1.00, 788.8, 98.0)">o</text><text xml:space="preserve" font-family="FiraMono-Regular" font-size="26.0" fill="#FEFFFF" transform="matrix(1.00, 0.00, -0.00, -1.00, 804.4, 98.0)">m</text><text xml:space="preserve" font-family="FiraMono-Regular" font-size="26.0" fill="#FEFFFF" transform="matrix(1.00, 0.00, -0.00, -1.00, 820.0, 98.0)">p</text><text xml:space="preserve" font-family="FiraMono-Regular" font-size="26.0" fill="#FEFFFF" transform="matrix(1.00, 0.00, -0.00, -1.00, 835.6, 98.0)">o</text><text xml:space="preserve" font-family="FiraMono-Regular" font-size="26.0" fill="#FEFFFF" transform="matrix(1.00, 0.00, -0.00, -1.00, 851.2, 98.0)">n</text><text xml:space="preserve" font-family="FiraMono-Regular" font-size="26.0" fill="#FEFFFF" transform="matrix(1.00, 0.00, -0.00, -1.00, 866.8, 98.0)">e</text><text xml:space="preserve" font-family="FiraMono-Regular" font-size="26.0" fill="#FEFFFF" transform="matrix(1.00, 0.00, -0.00, -1.00, 882.4, 98.0)">n</text><text xml:space="preserve" font-family="FiraMono-Regular" font-size="26.0" fill="#FEFFFF" transform="matrix(1.00, 0.00, -0.00, -1.00, 898.0, 98.0)">t</text><text xml:space="preserve" font-family="FiraMono-Regular" font-size="26.0" fill="#FEFFFF" transform="matrix(1.00, 0.00, -0.00, -1.00, 913.6, 98.0)">s</text><text xml:space="preserve" font-family="FiraMono-Regular" font-size="26.0" fill="#FEFFFF" transform="matrix(1.00, 0.00, -0.00, -1.00, 929.2, 98.0)">:</text><text xml:space="preserve" font-family="FiraMono-Regular" font-size="26.0" fill="#FEFFFF" transform="matrix(1.00, 0.00, -0.00, -1.00, 944.8, 98.0)"> </text><text xml:space="preserve" font-family="FiraMono-Bold" font-weight="bold" font-size="26.0" fill="#FBF567" transform="matrix(1.00, 0.00, -0.00, -1.00, 960.4, 98.0)">p</text><text xml:space="preserve" font-family="FiraMono-Bold" font-weight="bold" font-size="26.0" fill="#FBF567" transform="matrix(1.00, 0.00, -0.00, -1.00, 976.0, 98.0)">o</text><text xml:space="preserve" font-family="FiraMono-Bold" font-weight="bold" font-size="26.0" fill="#FBF567" transform="matrix(1.00, 0.00, -0.00, -1.00, 991.6, 98.0)">s</text><text xml:space="preserve" font-family="FiraMono-Bold" font-weight="bold" font-size="26.0" fill="#FBF567" transform="matrix(1.00, 0.00, -0.00, -1.00, 1007.2, 98.0)">i</text><text xml:space="preserve" font-family="FiraMono-Bold" font-weight="bold" font-size="26.0" fill="#FBF567" transform="matrix(1.00, 0.00, -0.00, -1.00, 1022.8, 98.0)">t</text><text xml:space="preserve" font-family="FiraMono-Bold" font-weight="bold" font-size="26.0" fill="#FBF567" transform="matrix(1.00, 0.00, -0.00, -1.00, 1038.4, 98.0)">i</text><text xml:space="preserve" font-family="FiraMono-Bold" font-weight="bold" font-size="26.0" fill="#FBF567" transform="matrix(1.00, 0.00, -0.00, -1.00, 1054.0, 98.0)">o</text><text xml:space="preserve" font-family="FiraMono-Bold" font-weight="bold" font-size="26.0" fill="#FBF567" transform="matrix(1.00, 0.00, -0.00, -1.00, 1069.6, 98.0)">n</text><text xml:space="preserve" font-family="FiraMono-Regular" font-size="26.0" fill="#FEFFFF" transform="matrix(1.00, 0.00, -0.00, -1.00, 1085.2, 98.0)">"</text><text xml:space="preserve" font-family="FiraMono-Regular" font-size="26.0" fill="#FEFFFF" transform="matrix(1.00, 0.00, -0.00, -1.00, 1100.8, 98.0)"> </text><text xml:space="preserve" font-family="FiraMono-Bold" font-weight="bold" font-size="26.0" fill="#10DAE2" transform="matrix(1.00, 0.00, -0.00, -1.00, 1116.4, 98.0)">p</text><text xml:space="preserve" font-family="FiraMono-Bold" font-weight="bold" font-size="26.0" fill="#10DAE2" transform="matrix(1.00, 0.00, -0.00, -1.00, 1132.0, 98.0)">o</text><text xml:space="preserve" font-family="FiraMono-Bold" font-weight="bold" font-size="26.0" fill="#10DAE2" transform="matrix(1.00, 0.00, -0.00, -1.00, 1147.6, 98.0)">s</text><text xml:space="preserve" font-family="FiraMono-Bold" font-weight="bold" font-size="26.0" fill="#10DAE2" transform="matrix(1.00, 0.00, -0.00, -1.00, 1163.2, 98.0)">i</text><text xml:space="preserve" font-family="FiraMono-Bold" font-weight="bold" font-size="26.0" fill="#10DAE2" transform="matrix(1.00, 0.00, -0.00, -1.00, 1178.8, 98.0)">t</text><text xml:space="preserve" font-family="FiraMono-Bold" font-weight="bold" font-size="26.0" fill="#10DAE2" transform="matrix(1.00, 0.00, -0.00, -1.00, 1194.4, 98.0)">i</text><text xml:space="preserve" font-family="FiraMono-Bold" font-weight="bold" font-size="26.0" fill="#10DAE2" transform="matrix(1.00, 0.00, -0.00, -1.00, 1210.0, 98.0)">o</text><text xml:space="preserve" font-family="FiraMono-Bold" font-weight="bold" font-size="26.0" fill="#10DAE2" transform="matrix(1.00, 0.00, -0.00, -1.00, 1225.6, 98.0)">n</text><text xml:space="preserve" font-family="FiraMono-Regular" font-size="26.0" fill="#FEFFFF" transform="matrix(1.00, 0.00, -0.00, -1.00, 1241.2, 98.0)">=</text><text xml:space="preserve" font-family="FiraMono-Regular" font-size="26.0" fill="#FEFFFF" transform="matrix(1.00, 0.00, -0.00, -1.00, 1256.8, 98.0)">"</text><text xml:space="preserve" font-family="FiraMono-Bold" font-weight="bold" font-size="26.0" fill="#FBF567" transform="matrix(1.00, 0.00, -0.00, -1.00, 1272.4, 98.0)">0</text><text xml:space="preserve" font-family="FiraMono-Bold" font-weight="bold" font-size="26.0" fill="#FBF567" transform="matrix(1.00, 0.00, -0.00, -1.00, 1288.0, 98.0)"> </text><text xml:space="preserve" font-family="FiraMono-Bold" font-weight="bold" font-size="26.0" fill="#FBF567" transform="matrix(1.00, 0.00, -0.00, -1.00, 1303.6, 98.0)">1</text><text xml:space="preserve" font-family="FiraMono-Bold" font-weight="bold" font-size="26.0" fill="#FBF567" transform="matrix(1.00, 0.00, -0.00, -1.00, 1319.2, 98.0)">.</text><text xml:space="preserve" font-family="FiraMono-Bold" font-weight="bold" font-size="26.0" fill="#FBF567" transform="matrix(1.00, 0.00, -0.00, -1.00, 1334.8, 98.0)">8</text><text xml:space="preserve" font-family="FiraMono-Bold" font-weight="bold" font-size="26.0" fill="#FBF567" transform="matrix(1.00, 0.00, -0.00, -1.00, 1350.4, 98.0)"> </text><text xml:space="preserve" font-family="FiraMono-Bold" font-weight="bold" font-size="26.0" fill="#FBF567" transform="matrix(1.00, 0.00, -0.00, -1.00, 1366.0, 98.0)">5</text><text xml:space="preserve" font-family="FiraMono-Regular" font-size="26.0" fill="#FEFFFF" transform="matrix(1.00, 0.00, -0.00, -1.00, 1381.6, 98.0)">"</text><text xml:space="preserve" font-family="FiraMono-Regular" font-size="26.0" fill="#FEFFFF" transform="matrix(1.00, 0.00, -0.00, -1.00, 1397.2, 98.0)">&gt;</text><text xml:space="preserve" font-family="FiraMono-Regular" font-size="26.0" fill="#FEFFFF" transform="matrix(1.00, 0.00, -0.00, -1.00, 1412.8, 98.0)">&lt;</text><text xml:space="preserve" font-family="FiraMono-Regular" font-size="26.0" fill="#FEFFFF" transform="matrix(1.00, 0.00, -0.00, -1.00, 1428.4, 98.0)">/</text><text xml:space="preserve" font-family="FiraMono-Regular" font-size="26.0" fill="#FEFFFF" transform="matrix(1.00, 0.00, -0.00, -1.00, 1444.0, 98.0)">a</text><text xml:space="preserve" font-family="FiraMono-Regular" font-size="26.0" fill="#FEFFFF" transform="matrix(1.00, 0.00, -0.00, -1.00, 1459.6, 98.0)">-</text><text xml:space="preserve" font-family="FiraMono-Regular" font-size="26.0" fill="#FEFFFF" transform="matrix(1.00, 0.00, -0.00, -1.00, 1475.2, 98.0)">e</text><text xml:space="preserve" font-family="FiraMono-Regular" font-size="26.0" fill="#FEFFFF" transform="matrix(1.00, 0.00, -0.00, -1.00, 1490.8, 98.0)">n</text><text xml:space="preserve" font-family="FiraMono-Regular" font-size="26.0" fill="#FEFFFF" transform="matrix(1.00, 0.00, -0.00, -1.00, 1506.4, 98.0)">t</text><text xml:space="preserve" font-family="FiraMono-Regular" font-size="26.0" fill="#FEFFFF" transform="matrix(1.00, 0.00, -0.00, -1.00, 1522.0, 98.0)">i</text><text xml:space="preserve" font-family="FiraMono-Regular" font-size="26.0" fill="#FEFFFF" transform="matrix(1.00, 0.00, -0.00, -1.00, 1537.6, 98.0)">t</text><text xml:space="preserve" font-family="FiraMono-Regular" font-size="26.0" fill="#FEFFFF" transform="matrix(1.00, 0.00, -0.00, -1.00, 1553.2, 98.0)">y</text><text xml:space="preserve" font-family="FiraMono-Regular" font-size="26.0" fill="#FEFFFF" transform="matrix(1.00, 0.00, -0.00, -1.00, 1568.8, 98.0)">&gt;</text><text xml:space="preserve" font-family="FiraMono-Regular" font-size="26.0" fill="#FEFFFF" transform="matrix(1.00, 0.00, -0.00, -1.00, 1584.4, 98.0)"> </text><g><clipPath id="clip-173"><path d="M 266.0 54.2 L 1667.7 54.2 L 1667.7 216.0 L 266.0 216.0 Z M 266.0 54.2 "></path></clipPath><g clip-path="url(#clip-173)"><text xml:space="preserve" font-family="FiraMono-Regular" font-size="26.0" fill="#FEFFFF" transform="matrix(1.00, 0.00, -0.00, -1.00, 274.0, 61.0)">&lt;</text><text xml:space="preserve" font-family="FiraMono-Regular" font-size="26.0" fill="#FEFFFF" transform="matrix(1.00, 0.00, -0.00, -1.00, 289.6, 61.0)">/</text><text xml:space="preserve" font-family="FiraMono-Regular" font-size="26.0" fill="#FEFFFF" transform="matrix(1.00, 0.00, -0.00, -1.00, 305.2, 61.0)">a</text><text xml:space="preserve" font-family="FiraMono-Regular" font-size="26.0" fill="#FEFFFF" transform="matrix(1.00, 0.00, -0.00, -1.00, 320.8, 61.0)">-</text><text xml:space="preserve" font-family="FiraMono-Bold" font-weight="bold" font-size="26.0" fill="#FE3772" transform="matrix(1.00, 0.00, -0.00, -1.00, 336.4, 61.0)">s</text><text xml:space="preserve" font-family="FiraMono-Bold" font-weight="bold" font-size="26.0" fill="#FE3772" transform="matrix(1.00, 0.00, -0.00, -1.00, 352.0, 61.0)">c</text><text xml:space="preserve" font-family="FiraMono-Bold" font-weight="bold" font-size="26.0" fill="#FE3772" transform="matrix(1.00, 0.00, -0.00, -1.00, 367.6, 61.0)">e</text><text xml:space="preserve" font-family="FiraMono-Bold" font-weight="bold" font-size="26.0" fill="#FE3772" transform="matrix(1.00, 0.00, -0.00, -1.00, 383.2, 61.0)">n</text><text xml:space="preserve" font-family="FiraMono-Bold" font-weight="bold" font-size="26.0" fill="#FE3772" transform="matrix(1.00, 0.00, -0.00, -1.00, 398.8, 61.0)">e</text><text xml:space="preserve" font-family="FiraMono-Regular" font-size="26.0" fill="#FEFFFF" transform="matrix(1.00, 0.00, -0.00, -1.00, 414.4, 61.0)">&gt;</text></g></g></g></svg>