<?xml version="1.0" encoding="UTF-8" standalone="no"?><svg xmlns="http://www.w3.org/2000/svg" xmlns:xlink="http://www.w3.org/1999/xlink" clip-rule="evenodd" stroke-miterlimit="4.00" viewBox="0 0 1920 1080"><desc>SVG generated by Keynote</desc><defs><pattern id="DE6420C9-EEA1-4013-8882-EEC4473D4F64" patternUnits="userSpaceOnUse" width="256" height="256" viewBox="0 0 256 256" patternTransform="matrix(0.500000, 0.000000, 0.000000, -0.500000, 238.258900, 245.694400)"><image xlink:href="../../F4E454F4-72F5-4F5A-901D-6A49E8C26D77/assets/C2E6FBB4C3857A0E73F6D4A465A166F0.jpeg" width="256.00" height="256.00"></image></pattern></defs><g transform="matrix(1.00, 0.00, -0.00, -1.00, 0.0, 1080.0)"><path d="M 0.0 1080.0 L 1920.0 1080.0 L 1920.0 0.0 L 0.0 0.0 Z M 0.0 1080.0 " fill="#000000"></path><image xlink:href="5CBAE9F20F6A3506FEFA5DCB49404D91.png" width="1920.00" height="1080.00" transform="matrix(1.00, 0.00, -0.00, -1.00, 0.0, 1080.0)"></image><g><clipPath id="clip-182"><path d="M 238.3 245.7 L 1681.7 245.7 L 1681.7 -2.1 L 238.3 -2.1 Z M 238.3 245.7 "></path></clipPath><g clip-path="url(#clip-182)"><path d="M 238.3 0.0 L 1681.7 0.0 L 1681.7 245.7 L 238.3 245.7 Z M 238.3 0.0 " fill="url(#DE6420C9-EEA1-4013-8882-EEC4473D4F64)"></path><path d="M 238.3 245.7 L 1681.7 245.7 L 1681.7 -2.1 L 238.3 -2.1 Z M 238.3 245.7 " fill="#222222"></path></g></g><text xml:space="preserve" font-family="Helvetica" font-size="112.0" fill="#FEFFFF" transform="matrix(1.00, 0.00, -0.00, -1.00, 284.0, 937.0)">G</text><text xml:space="preserve" font-family="Helvetica" font-size="112.0" fill="#FEFFFF" transform="matrix(1.00, 0.00, -0.00, -1.00, 371.1, 937.0)">a</text><text xml:space="preserve" font-family="Helvetica" font-size="112.0" fill="#FEFFFF" transform="matrix(1.00, 0.00, -0.00, -1.00, 433.4, 937.0)">m</text><text xml:space="preserve" font-family="Helvetica" font-size="112.0" fill="#FEFFFF" transform="matrix(1.00, 0.00, -0.00, -1.00, 526.7, 937.0)">e</text><text xml:space="preserve" font-family="Helvetica" font-size="112.0" fill="#FEFFFF" transform="matrix(1.00, 0.00, -0.00, -1.00, 589.0, 937.0)">s</text><text xml:space="preserve" font-family="FiraMono-Regular" font-size="20.0" fill="#FEFFFF" transform="matrix(1.00, 0.00, -0.00, -1.00, 288.0, 189.0)">&lt;</text><text xml:space="preserve" font-family="FiraMono-Regular" font-size="20.0" fill="#FEFFFF" transform="matrix(1.00, 0.00, -0.00, -1.00, 300.0, 189.0)">a</text><text xml:space="preserve" font-family="FiraMono-Regular" font-size="20.0" fill="#FEFFFF" transform="matrix(1.00, 0.00, -0.00, -1.00, 312.0, 189.0)">-</text><text xml:space="preserve" font-family="FiraMono-Bold" font-weight="bold" font-size="20.0" fill="#FEFFFF" transform="matrix(1.00, 0.00, -0.00, -1.00, 324.0, 189.0)">e</text><text xml:space="preserve" font-family="FiraMono-Bold" font-weight="bold" font-size="20.0" fill="#FEFFFF" transform="matrix(1.00, 0.00, -0.00, -1.00, 336.0, 189.0)">n</text><text xml:space="preserve" font-family="FiraMono-Bold" font-weight="bold" font-size="20.0" fill="#FEFFFF" transform="matrix(1.00, 0.00, -0.00, -1.00, 348.0, 189.0)">t</text><text xml:space="preserve" font-family="FiraMono-Bold" font-weight="bold" font-size="20.0" fill="#FEFFFF" transform="matrix(1.00, 0.00, -0.00, -1.00, 360.0, 189.0)">i</text><text xml:space="preserve" font-family="FiraMono-Bold" font-weight="bold" font-size="20.0" fill="#FEFFFF" transform="matrix(1.00, 0.00, -0.00, -1.00, 372.0, 189.0)">t</text><text xml:space="preserve" font-family="FiraMono-Bold" font-weight="bold" font-size="20.0" fill="#FEFFFF" transform="matrix(1.00, 0.00, -0.00, -1.00, 384.0, 189.0)">y</text><text xml:space="preserve" font-family="FiraMono-Regular" font-size="20.0" fill="#FEFFFF" transform="matrix(1.00, 0.00, -0.00, -1.00, 396.0, 189.0)"> </text><text xml:space="preserve" font-family="FiraMono-Bold" font-weight="bold" font-size="20.0" fill="#10DAE2" transform="matrix(1.00, 0.00, -0.00, -1.00, 408.0, 189.0)">i</text><text xml:space="preserve" font-family="FiraMono-Bold" font-weight="bold" font-size="20.0" fill="#10DAE2" transform="matrix(1.00, 0.00, -0.00, -1.00, 420.0, 189.0)">d</text><text xml:space="preserve" font-family="FiraMono-Regular" font-size="20.0" fill="#FEFFFF" transform="matrix(1.00, 0.00, -0.00, -1.00, 432.0, 189.0)">=</text><text xml:space="preserve" font-family="FiraMono-Regular" font-size="20.0" fill="#FEFFFF" transform="matrix(1.00, 0.00, -0.00, -1.00, 444.0, 189.0)">“</text><text xml:space="preserve" font-family="FiraMono-Regular" font-size="20.0" fill="#FEFFFF" transform="matrix(1.00, 0.00, -0.00, -1.00, 456.0, 189.0)">l</text><text xml:space="preserve" font-family="FiraMono-Regular" font-size="20.0" fill="#FEFFFF" transform="matrix(1.00, 0.00, -0.00, -1.00, 468.0, 189.0)">e</text><text xml:space="preserve" font-family="FiraMono-Regular" font-size="20.0" fill="#FEFFFF" transform="matrix(1.00, 0.00, -0.00, -1.00, 480.0, 189.0)">f</text><text xml:space="preserve" font-family="FiraMono-Regular" font-size="20.0" fill="#FEFFFF" transform="matrix(1.00, 0.00, -0.00, -1.00, 492.0, 189.0)">t</text><text xml:space="preserve" font-family="FiraMono-Regular" font-size="20.0" fill="#FEFFFF" transform="matrix(1.00, 0.00, -0.00, -1.00, 504.0, 189.0)">-</text><text xml:space="preserve" font-family="FiraMono-Regular" font-size="20.0" fill="#FEFFFF" transform="matrix(1.00, 0.00, -0.00, -1.00, 516.0, 189.0)">h</text><text xml:space="preserve" font-family="FiraMono-Regular" font-size="20.0" fill="#FEFFFF" transform="matrix(1.00, 0.00, -0.00, -1.00, 528.0, 189.0)">a</text><text xml:space="preserve" font-family="FiraMono-Regular" font-size="20.0" fill="#FEFFFF" transform="matrix(1.00, 0.00, -0.00, -1.00, 540.0, 189.0)">n</text><text xml:space="preserve" font-family="FiraMono-Regular" font-size="20.0" fill="#FEFFFF" transform="matrix(1.00, 0.00, -0.00, -1.00, 552.0, 189.0)">d</text><text xml:space="preserve" font-family="FiraMono-Regular" font-size="20.0" fill="#FEFFFF" transform="matrix(1.00, 0.00, -0.00, -1.00, 564.0, 189.0)">"</text><text xml:space="preserve" font-family="FiraMono-Regular" font-size="20.0" fill="#FEFFFF" transform="matrix(1.00, 0.00, -0.00, -1.00, 576.0, 189.0)"> </text><text xml:space="preserve" font-family="FiraMono-Regular" font-size="20.0" fill="#FEFFFF" transform="matrix(1.00, 0.00, -0.00, -1.00, 288.0, 160.0)"> </text><text xml:space="preserve" font-family="FiraMono-Regular" font-size="20.0" fill="#FEFFFF" transform="matrix(1.00, 0.00, -0.00, -1.00, 300.0, 160.0)"> </text><text xml:space="preserve" font-family="FiraMono-Regular" font-size="20.0" fill="#FEFFFF" transform="matrix(1.00, 0.00, -0.00, -1.00, 312.0, 160.0)"> </text><text xml:space="preserve" font-family="FiraMono-Bold" font-weight="bold" font-size="20.0" fill="#10DAE2" transform="matrix(1.00, 0.00, -0.00, -1.00, 324.0, 160.0)">h</text><text xml:space="preserve" font-family="FiraMono-Bold" font-weight="bold" font-size="20.0" fill="#10DAE2" transform="matrix(1.00, 0.00, -0.00, -1.00, 336.0, 160.0)">a</text><text xml:space="preserve" font-family="FiraMono-Bold" font-weight="bold" font-size="20.0" fill="#10DAE2" transform="matrix(1.00, 0.00, -0.00, -1.00, 348.0, 160.0)">n</text><text xml:space="preserve" font-family="FiraMono-Bold" font-weight="bold" font-size="20.0" fill="#10DAE2" transform="matrix(1.00, 0.00, -0.00, -1.00, 360.0, 160.0)">d</text><text xml:space="preserve" font-family="FiraMono-Bold" font-weight="bold" font-size="20.0" fill="#10DAE2" transform="matrix(1.00, 0.00, -0.00, -1.00, 372.0, 160.0)">-</text><text xml:space="preserve" font-family="FiraMono-Bold" font-weight="bold" font-size="20.0" fill="#10DAE2" transform="matrix(1.00, 0.00, -0.00, -1.00, 384.0, 160.0)">c</text><text xml:space="preserve" font-family="FiraMono-Bold" font-weight="bold" font-size="20.0" fill="#10DAE2" transform="matrix(1.00, 0.00, -0.00, -1.00, 396.0, 160.0)">o</text><text xml:space="preserve" font-family="FiraMono-Bold" font-weight="bold" font-size="20.0" fill="#10DAE2" transform="matrix(1.00, 0.00, -0.00, -1.00, 408.0, 160.0)">n</text><text xml:space="preserve" font-family="FiraMono-Bold" font-weight="bold" font-size="20.0" fill="#10DAE2" transform="matrix(1.00, 0.00, -0.00, -1.00, 420.0, 160.0)">t</text><text xml:space="preserve" font-family="FiraMono-Bold" font-weight="bold" font-size="20.0" fill="#10DAE2" transform="matrix(1.00, 0.00, -0.00, -1.00, 432.0, 160.0)">r</text><text xml:space="preserve" font-family="FiraMono-Bold" font-weight="bold" font-size="20.0" fill="#10DAE2" transform="matrix(1.00, 0.00, -0.00, -1.00, 444.0, 160.0)">o</text><text xml:space="preserve" font-family="FiraMono-Bold" font-weight="bold" font-size="20.0" fill="#10DAE2" transform="matrix(1.00, 0.00, -0.00, -1.00, 456.0, 160.0)">l</text><text xml:space="preserve" font-family="FiraMono-Bold" font-weight="bold" font-size="20.0" fill="#10DAE2" transform="matrix(1.00, 0.00, -0.00, -1.00, 468.0, 160.0)">s</text><text xml:space="preserve" font-family="FiraMono-Regular" font-size="20.0" fill="#FEFFFF" transform="matrix(1.00, 0.00, -0.00, -1.00, 480.0, 160.0)">=</text><text xml:space="preserve" font-family="FiraMono-Regular" font-size="20.0" fill="#FEFFFF" transform="matrix(1.00, 0.00, -0.00, -1.00, 492.0, 160.0)">"</text><text xml:space="preserve" font-family="FiraMono-Regular" font-size="20.0" fill="#FEFFFF" transform="matrix(1.00, 0.00, -0.00, -1.00, 504.0, 160.0)">h</text><text xml:space="preserve" font-family="FiraMono-Regular" font-size="20.0" fill="#FEFFFF" transform="matrix(1.00, 0.00, -0.00, -1.00, 516.0, 160.0)">a</text><text xml:space="preserve" font-family="FiraMono-Regular" font-size="20.0" fill="#FEFFFF" transform="matrix(1.00, 0.00, -0.00, -1.00, 528.0, 160.0)">n</text><text xml:space="preserve" font-family="FiraMono-Regular" font-size="20.0" fill="#FEFFFF" transform="matrix(1.00, 0.00, -0.00, -1.00, 540.0, 160.0)">d</text><text xml:space="preserve" font-family="FiraMono-Regular" font-size="20.0" fill="#FEFFFF" transform="matrix(1.00, 0.00, -0.00, -1.00, 552.0, 160.0)">:</text><text xml:space="preserve" font-family="FiraMono-Regular" font-size="20.0" fill="#FEFFFF" transform="matrix(1.00, 0.00, -0.00, -1.00, 564.0, 160.0)"> </text><text xml:space="preserve" font-family="FiraMono-Bold" font-weight="bold" font-size="20.0" fill="#FBF567" transform="matrix(1.00, 0.00, -0.00, -1.00, 576.0, 160.0)">l</text><text xml:space="preserve" font-family="FiraMono-Bold" font-weight="bold" font-size="20.0" fill="#FBF567" transform="matrix(1.00, 0.00, -0.00, -1.00, 588.0, 160.0)">e</text><text xml:space="preserve" font-family="FiraMono-Bold" font-weight="bold" font-size="20.0" fill="#FBF567" transform="matrix(1.00, 0.00, -0.00, -1.00, 600.0, 160.0)">f</text><text xml:space="preserve" font-family="FiraMono-Bold" font-weight="bold" font-size="20.0" fill="#FBF567" transform="matrix(1.00, 0.00, -0.00, -1.00, 612.0, 160.0)">t</text><text xml:space="preserve" font-family="FiraMono-Regular" font-size="20.0" fill="#FEFFFF" transform="matrix(1.00, 0.00, -0.00, -1.00, 624.0, 160.0)">"</text><text xml:space="preserve" font-family="FiraMono-Regular" font-size="20.0" fill="#FEFFFF" transform="matrix(1.00, 0.00, -0.00, -1.00, 636.0, 160.0)"> </text><text xml:space="preserve" font-family="FiraMono-Regular" font-size="20.0" fill="#FEFFFF" transform="matrix(1.00, 0.00, -0.00, -1.00, 288.0, 131.0)"> </text><text xml:space="preserve" font-family="FiraMono-Regular" font-size="20.0" fill="#FEFFFF" transform="matrix(1.00, 0.00, -0.00, -1.00, 300.0, 131.0)"> </text><text xml:space="preserve" font-family="FiraMono-Regular" font-size="20.0" fill="#FEFFFF" transform="matrix(1.00, 0.00, -0.00, -1.00, 312.0, 131.0)"> </text><text xml:space="preserve" font-family="FiraMono-Bold" font-weight="bold" font-size="20.0" fill="#10DAE2" transform="matrix(1.00, 0.00, -0.00, -1.00, 324.0, 131.0)">c</text><text xml:space="preserve" font-family="FiraMono-Bold" font-weight="bold" font-size="20.0" fill="#10DAE2" transform="matrix(1.00, 0.00, -0.00, -1.00, 336.0, 131.0)">o</text><text xml:space="preserve" font-family="FiraMono-Bold" font-weight="bold" font-size="20.0" fill="#10DAE2" transform="matrix(1.00, 0.00, -0.00, -1.00, 348.0, 131.0)">l</text><text xml:space="preserve" font-family="FiraMono-Bold" font-weight="bold" font-size="20.0" fill="#10DAE2" transform="matrix(1.00, 0.00, -0.00, -1.00, 360.0, 131.0)">l</text><text xml:space="preserve" font-family="FiraMono-Bold" font-weight="bold" font-size="20.0" fill="#10DAE2" transform="matrix(1.00, 0.00, -0.00, -1.00, 372.0, 131.0)">a</text><text xml:space="preserve" font-family="FiraMono-Bold" font-weight="bold" font-size="20.0" fill="#10DAE2" transform="matrix(1.00, 0.00, -0.00, -1.00, 384.0, 131.0)">d</text><text xml:space="preserve" font-family="FiraMono-Bold" font-weight="bold" font-size="20.0" fill="#10DAE2" transform="matrix(1.00, 0.00, -0.00, -1.00, 396.0, 131.0)">a</text><text xml:space="preserve" font-family="FiraMono-Bold" font-weight="bold" font-size="20.0" fill="#10DAE2" transform="matrix(1.00, 0.00, -0.00, -1.00, 408.0, 131.0)">-</text><text xml:space="preserve" font-family="FiraMono-Bold" font-weight="bold" font-size="20.0" fill="#10DAE2" transform="matrix(1.00, 0.00, -0.00, -1.00, 420.0, 131.0)">m</text><text xml:space="preserve" font-family="FiraMono-Bold" font-weight="bold" font-size="20.0" fill="#10DAE2" transform="matrix(1.00, 0.00, -0.00, -1.00, 432.0, 131.0)">o</text><text xml:space="preserve" font-family="FiraMono-Bold" font-weight="bold" font-size="20.0" fill="#10DAE2" transform="matrix(1.00, 0.00, -0.00, -1.00, 444.0, 131.0)">d</text><text xml:space="preserve" font-family="FiraMono-Bold" font-weight="bold" font-size="20.0" fill="#10DAE2" transform="matrix(1.00, 0.00, -0.00, -1.00, 456.0, 131.0)">e</text><text xml:space="preserve" font-family="FiraMono-Bold" font-weight="bold" font-size="20.0" fill="#10DAE2" transform="matrix(1.00, 0.00, -0.00, -1.00, 468.0, 131.0)">l</text><text xml:space="preserve" font-family="FiraMono-Regular" font-size="20.0" fill="#FEFFFF" transform="matrix(1.00, 0.00, -0.00, -1.00, 480.0, 131.0)">=</text><text xml:space="preserve" font-family="FiraMono-Regular" font-size="20.0" fill="#FEFFFF" transform="matrix(1.00, 0.00, -0.00, -1.00, 492.0, 131.0)">"</text><text xml:space="preserve" font-family="FiraMono-Regular" font-size="20.0" fill="#FEFFFF" transform="matrix(1.00, 0.00, -0.00, -1.00, 504.0, 131.0)">o</text><text xml:space="preserve" font-family="FiraMono-Regular" font-size="20.0" fill="#FEFFFF" transform="matrix(1.00, 0.00, -0.00, -1.00, 516.0, 131.0)">b</text><text xml:space="preserve" font-family="FiraMono-Regular" font-size="20.0" fill="#FEFFFF" transform="matrix(1.00, 0.00, -0.00, -1.00, 528.0, 131.0)">j</text><text xml:space="preserve" font-family="FiraMono-Regular" font-size="20.0" fill="#FEFFFF" transform="matrix(1.00, 0.00, -0.00, -1.00, 540.0, 131.0)">:</text><text xml:space="preserve" font-family="FiraMono-Regular" font-size="20.0" fill="#FEFFFF" transform="matrix(1.00, 0.00, -0.00, -1.00, 552.0, 131.0)"> </text><text xml:space="preserve" font-family="FiraMono-Regular" font-size="20.0" fill="#FEFFFF" transform="matrix(1.00, 0.00, -0.00, -1.00, 564.0, 131.0)">u</text><text xml:space="preserve" font-family="FiraMono-Regular" font-size="20.0" fill="#FEFFFF" transform="matrix(1.00, 0.00, -0.00, -1.00, 576.0, 131.0)">r</text><text xml:space="preserve" font-family="FiraMono-Regular" font-size="20.0" fill="#FEFFFF" transform="matrix(1.00, 0.00, -0.00, -1.00, 588.0, 131.0)">l</text><text xml:space="preserve" font-family="FiraMono-Regular" font-size="20.0" fill="#FEFFFF" transform="matrix(1.00, 0.00, -0.00, -1.00, 600.0, 131.0)">(</text><text xml:space="preserve" font-family="FiraMono-Bold" font-weight="bold" font-size="20.0" fill="#FBF567" transform="matrix(1.00, 0.00, -0.00, -1.00, 612.0, 131.0)">g</text><text xml:space="preserve" font-family="FiraMono-Bold" font-weight="bold" font-size="20.0" fill="#FBF567" transform="matrix(1.00, 0.00, -0.00, -1.00, 624.0, 131.0)">u</text><text xml:space="preserve" font-family="FiraMono-Bold" font-weight="bold" font-size="20.0" fill="#FBF567" transform="matrix(1.00, 0.00, -0.00, -1.00, 636.0, 131.0)">n</text><text xml:space="preserve" font-family="FiraMono-Bold" font-weight="bold" font-size="20.0" fill="#FBF567" transform="matrix(1.00, 0.00, -0.00, -1.00, 648.0, 131.0)">.</text><text xml:space="preserve" font-family="FiraMono-Bold" font-weight="bold" font-size="20.0" fill="#FBF567" transform="matrix(1.00, 0.00, -0.00, -1.00, 660.0, 131.0)">d</text><text xml:space="preserve" font-family="FiraMono-Bold" font-weight="bold" font-size="20.0" fill="#FBF567" transform="matrix(1.00, 0.00, -0.00, -1.00, 672.0, 131.0)">a</text><text xml:space="preserve" font-family="FiraMono-Bold" font-weight="bold" font-size="20.0" fill="#FBF567" transform="matrix(1.00, 0.00, -0.00, -1.00, 684.0, 131.0)">e</text><text xml:space="preserve" font-family="FiraMono-Regular" font-size="20.0" fill="#FEFFFF" transform="matrix(1.00, 0.00, -0.00, -1.00, 696.0, 131.0)">)</text><text xml:space="preserve" font-family="FiraMono-Regular" font-size="20.0" fill="#FEFFFF" transform="matrix(1.00, 0.00, -0.00, -1.00, 708.0, 131.0)">"</text><text xml:space="preserve" font-family="FiraMono-Regular" font-size="20.0" fill="#FEFFFF" transform="matrix(1.00, 0.00, -0.00, -1.00, 720.0, 131.0)"> </text><text xml:space="preserve" font-family="FiraMono-Regular" font-size="20.0" fill="#FEFFFF" transform="matrix(1.00, 0.00, -0.00, -1.00, 732.0, 131.0)"> </text><text xml:space="preserve" font-family="FiraMono-Regular" font-size="20.0" fill="#FEFFFF" transform="matrix(1.00, 0.00, -0.00, -1.00, 288.0, 102.0)"> </text><text xml:space="preserve" font-family="FiraMono-Regular" font-size="20.0" fill="#FEFFFF" transform="matrix(1.00, 0.00, -0.00, -1.00, 300.0, 102.0)"> </text><text xml:space="preserve" font-family="FiraMono-Regular" font-size="20.0" fill="#FEFFFF" transform="matrix(1.00, 0.00, -0.00, -1.00, 312.0, 102.0)"> </text><text xml:space="preserve" font-family="FiraMono-Bold" font-weight="bold" font-size="20.0" fill="#10DAE2" transform="matrix(1.00, 0.00, -0.00, -1.00, 324.0, 102.0)">s</text><text xml:space="preserve" font-family="FiraMono-Bold" font-weight="bold" font-size="20.0" fill="#10DAE2" transform="matrix(1.00, 0.00, -0.00, -1.00, 336.0, 102.0)">o</text><text xml:space="preserve" font-family="FiraMono-Bold" font-weight="bold" font-size="20.0" fill="#10DAE2" transform="matrix(1.00, 0.00, -0.00, -1.00, 348.0, 102.0)">u</text><text xml:space="preserve" font-family="FiraMono-Bold" font-weight="bold" font-size="20.0" fill="#10DAE2" transform="matrix(1.00, 0.00, -0.00, -1.00, 360.0, 102.0)">n</text><text xml:space="preserve" font-family="FiraMono-Bold" font-weight="bold" font-size="20.0" fill="#10DAE2" transform="matrix(1.00, 0.00, -0.00, -1.00, 372.0, 102.0)">d</text><text xml:space="preserve" font-family="FiraMono-Regular" font-size="20.0" fill="#FEFFFF" transform="matrix(1.00, 0.00, -0.00, -1.00, 384.0, 102.0)">=</text><text xml:space="preserve" font-family="FiraMono-Regular" font-size="20.0" fill="#FEFFFF" transform="matrix(1.00, 0.00, -0.00, -1.00, 396.0, 102.0)">"</text><text xml:space="preserve" font-family="FiraMono-Regular" font-size="20.0" fill="#FEFFFF" transform="matrix(1.00, 0.00, -0.00, -1.00, 408.0, 102.0)">s</text><text xml:space="preserve" font-family="FiraMono-Regular" font-size="20.0" fill="#FEFFFF" transform="matrix(1.00, 0.00, -0.00, -1.00, 420.0, 102.0)">r</text><text xml:space="preserve" font-family="FiraMono-Regular" font-size="20.0" fill="#FEFFFF" transform="matrix(1.00, 0.00, -0.00, -1.00, 432.0, 102.0)">c</text><text xml:space="preserve" font-family="FiraMono-Regular" font-size="20.0" fill="#FEFFFF" transform="matrix(1.00, 0.00, -0.00, -1.00, 444.0, 102.0)">:</text><text xml:space="preserve" font-family="FiraMono-Regular" font-size="20.0" fill="#FEFFFF" transform="matrix(1.00, 0.00, -0.00, -1.00, 456.0, 102.0)"> </text><text xml:space="preserve" font-family="FiraMono-Bold" font-weight="bold" font-size="20.0" fill="#FBF567" transform="matrix(1.00, 0.00, -0.00, -1.00, 468.0, 102.0)">g</text><text xml:space="preserve" font-family="FiraMono-Bold" font-weight="bold" font-size="20.0" fill="#FBF567" transform="matrix(1.00, 0.00, -0.00, -1.00, 480.0, 102.0)">u</text><text xml:space="preserve" font-family="FiraMono-Bold" font-weight="bold" font-size="20.0" fill="#FBF567" transform="matrix(1.00, 0.00, -0.00, -1.00, 492.0, 102.0)">n</text><text xml:space="preserve" font-family="FiraMono-Bold" font-weight="bold" font-size="20.0" fill="#FBF567" transform="matrix(1.00, 0.00, -0.00, -1.00, 504.0, 102.0)">s</text><text xml:space="preserve" font-family="FiraMono-Bold" font-weight="bold" font-size="20.0" fill="#FBF567" transform="matrix(1.00, 0.00, -0.00, -1.00, 516.0, 102.0)">h</text><text xml:space="preserve" font-family="FiraMono-Bold" font-weight="bold" font-size="20.0" fill="#FBF567" transform="matrix(1.00, 0.00, -0.00, -1.00, 528.0, 102.0)">o</text><text xml:space="preserve" font-family="FiraMono-Bold" font-weight="bold" font-size="20.0" fill="#FBF567" transform="matrix(1.00, 0.00, -0.00, -1.00, 540.0, 102.0)">t</text><text xml:space="preserve" font-family="FiraMono-Bold" font-weight="bold" font-size="20.0" fill="#FBF567" transform="matrix(1.00, 0.00, -0.00, -1.00, 552.0, 102.0)">.</text><text xml:space="preserve" font-family="FiraMono-Bold" font-weight="bold" font-size="20.0" fill="#FBF567" transform="matrix(1.00, 0.00, -0.00, -1.00, 564.0, 102.0)">o</text><text xml:space="preserve" font-family="FiraMono-Bold" font-weight="bold" font-size="20.0" fill="#FBF567" transform="matrix(1.00, 0.00, -0.00, -1.00, 576.0, 102.0)">g</text><text xml:space="preserve" font-family="FiraMono-Bold" font-weight="bold" font-size="20.0" fill="#FBF567" transform="matrix(1.00, 0.00, -0.00, -1.00, 588.0, 102.0)">g</text><text xml:space="preserve" font-family="FiraMono-Regular" font-size="20.0" fill="#FEFFFF" transform="matrix(1.00, 0.00, -0.00, -1.00, 600.0, 102.0)">;</text><text xml:space="preserve" font-family="FiraMono-Regular" font-size="20.0" fill="#FEFFFF" transform="matrix(1.00, 0.00, -0.00, -1.00, 612.0, 102.0)"> </text><text xml:space="preserve" font-family="FiraMono-Regular" font-size="20.0" fill="#FEFFFF" transform="matrix(1.00, 0.00, -0.00, -1.00, 624.0, 102.0)">o</text><text xml:space="preserve" font-family="FiraMono-Regular" font-size="20.0" fill="#FEFFFF" transform="matrix(1.00, 0.00, -0.00, -1.00, 636.0, 102.0)">n</text><text xml:space="preserve" font-family="FiraMono-Regular" font-size="20.0" fill="#FEFFFF" transform="matrix(1.00, 0.00, -0.00, -1.00, 648.0, 102.0)">:</text><text xml:space="preserve" font-family="FiraMono-Regular" font-size="20.0" fill="#FEFFFF" transform="matrix(1.00, 0.00, -0.00, -1.00, 660.0, 102.0)"> </text><text xml:space="preserve" font-family="FiraMono-Bold" font-weight="bold" font-size="20.0" fill="#FBF567" transform="matrix(1.00, 0.00, -0.00, -1.00, 672.0, 102.0)">s</text><text xml:space="preserve" font-family="FiraMono-Bold" font-weight="bold" font-size="20.0" fill="#FBF567" transform="matrix(1.00, 0.00, -0.00, -1.00, 684.0, 102.0)">h</text><text xml:space="preserve" font-family="FiraMono-Bold" font-weight="bold" font-size="20.0" fill="#FBF567" transform="matrix(1.00, 0.00, -0.00, -1.00, 696.0, 102.0)">o</text><text xml:space="preserve" font-family="FiraMono-Bold" font-weight="bold" font-size="20.0" fill="#FBF567" transform="matrix(1.00, 0.00, -0.00, -1.00, 708.0, 102.0)">o</text><text xml:space="preserve" font-family="FiraMono-Bold" font-weight="bold" font-size="20.0" fill="#FBF567" transform="matrix(1.00, 0.00, -0.00, -1.00, 720.0, 102.0)">t</text><text xml:space="preserve" font-family="FiraMono-Regular" font-size="20.0" fill="#FEFFFF" transform="matrix(1.00, 0.00, -0.00, -1.00, 732.0, 102.0)">"</text><text xml:space="preserve" font-family="FiraMono-Regular" font-size="20.0" fill="#FEFFFF" transform="matrix(1.00, 0.00, -0.00, -1.00, 744.0, 102.0)">&gt;</text><text xml:space="preserve" font-family="FiraMono-Regular" font-size="20.0" fill="#FEFFFF" transform="matrix(1.00, 0.00, -0.00, -1.00, 756.0, 102.0)">&lt;</text><text xml:space="preserve" font-family="FiraMono-Regular" font-size="20.0" fill="#FEFFFF" transform="matrix(1.00, 0.00, -0.00, -1.00, 768.0, 102.0)">/</text><text xml:space="preserve" font-family="FiraMono-Regular" font-size="20.0" fill="#FEFFFF" transform="matrix(1.00, 0.00, -0.00, -1.00, 780.0, 102.0)">a</text><text xml:space="preserve" font-family="FiraMono-Regular" font-size="20.0" fill="#FEFFFF" transform="matrix(1.00, 0.00, -0.00, -1.00, 792.0, 102.0)">-</text><text xml:space="preserve" font-family="FiraMono-Bold" font-weight="bold" font-size="20.0" fill="#FEFFFF" transform="matrix(1.00, 0.00, -0.00, -1.00, 804.0, 102.0)">e</text><text xml:space="preserve" font-family="FiraMono-Bold" font-weight="bold" font-size="20.0" fill="#FEFFFF" transform="matrix(1.00, 0.00, -0.00, -1.00, 816.0, 102.0)">n</text><text xml:space="preserve" font-family="FiraMono-Bold" font-weight="bold" font-size="20.0" fill="#FEFFFF" transform="matrix(1.00, 0.00, -0.00, -1.00, 828.0, 102.0)">t</text><text xml:space="preserve" font-family="FiraMono-Bold" font-weight="bold" font-size="20.0" fill="#FEFFFF" transform="matrix(1.00, 0.00, -0.00, -1.00, 840.0, 102.0)">i</text><text xml:space="preserve" font-family="FiraMono-Bold" font-weight="bold" font-size="20.0" fill="#FEFFFF" transform="matrix(1.00, 0.00, -0.00, -1.00, 852.0, 102.0)">t</text><text xml:space="preserve" font-family="FiraMono-Bold" font-weight="bold" font-size="20.0" fill="#FEFFFF" transform="matrix(1.00, 0.00, -0.00, -1.00, 864.0, 102.0)">y</text><text xml:space="preserve" font-family="FiraMono-Regular" font-size="20.0" fill="#FEFFFF" transform="matrix(1.00, 0.00, -0.00, -1.00, 876.0, 102.0)">&gt;</text><text xml:space="preserve" font-family="FiraMono-Regular" font-size="20.0" fill="#FEFFFF" transform="matrix(1.00, 0.00, -0.00, -1.00, 888.0, 102.0)"> </text><g><clipPath id="clip-183"><path d="M 1562.3 284.1 C 1555.8 275.9 1545.8 270.7 1534.7 270.7 C 1515.0 270.7 1499.0 287.1 1499.0 307.3 C 1499.0 327.2 1514.4 343.4 1533.5 344.0 L 1533.5 344.0 L 1591.1 344.0 L 1591.1 344.0 C 1610.2 343.4 1625.6 327.2 1625.6 307.3 C 1625.6 287.1 1609.6 270.7 1589.9 270.7 C 1578.8 270.7 1568.8 275.9 1562.3 284.1 Z M 1534.7 289.6 C 1544.2 289.6 1551.9 297.5 1551.9 307.3 C 1551.9 317.1 1544.2 325.1 1534.7 325.1 C 1525.1 325.1 1517.4 317.1 1517.4 307.3 C 1517.4 297.5 1525.1 289.6 1534.7 289.6 Z M 1589.9 289.6 C 1599.5 289.6 1607.2 297.5 1607.2 307.3 C 1607.2 317.1 1599.5 325.1 1589.9 325.1 C 1580.4 325.1 1572.7 317.1 1572.7 307.3 C 1572.7 297.5 1580.4 289.6 1589.9 289.6 Z M 1589.9 289.6 "></path></clipPath><g clip-path="url(#clip-183)"><g><clipPath id="clip-184"><path d="M 1499.0 271.0 L 1626.0 271.0 L 1626.0 344.0 L 1499.0 344.0 Z M 1499.0 271.0 "></path></clipPath><g clip-path="url(#clip-184)"><path d="M 1484.6 358.6 L 1640.0 358.6 L 1640.0 256.1 L 1484.6 256.1 Z M 1484.6 358.6 " fill="#FFFFFF"></path></g></g></g></g><text xml:space="preserve" font-family="FiraMono-Regular" font-size="18.0" fill="#FEFFFF" transform="matrix(1.00, 0.00, -0.00, -1.00, 971.0, 170.0)">$</text><text xml:space="preserve" font-family="FiraMono-Regular" font-size="18.0" fill="#FEFFFF" transform="matrix(1.00, 0.00, -0.00, -1.00, 981.8, 170.0)">(</text><text xml:space="preserve" font-family="FiraMono-Regular" font-size="18.0" fill="#FEFFFF" transform="matrix(1.00, 0.00, -0.00, -1.00, 992.6, 170.0)">'</text><text xml:space="preserve" font-family="FiraMono-Regular" font-size="18.0" fill="#FEFFFF" transform="matrix(1.00, 0.00, -0.00, -1.00, 1003.4, 170.0)">#</text><text xml:space="preserve" font-family="FiraMono-Regular" font-size="18.0" fill="#FEFFFF" transform="matrix(1.00, 0.00, -0.00, -1.00, 1014.2, 170.0)">l</text><text xml:space="preserve" font-family="FiraMono-Regular" font-size="18.0" fill="#FEFFFF" transform="matrix(1.00, 0.00, -0.00, -1.00, 1025.0, 170.0)">e</text><text xml:space="preserve" font-family="FiraMono-Regular" font-size="18.0" fill="#FEFFFF" transform="matrix(1.00, 0.00, -0.00, -1.00, 1035.8, 170.0)">f</text><text xml:space="preserve" font-family="FiraMono-Regular" font-size="18.0" fill="#FEFFFF" transform="matrix(1.00, 0.00, -0.00, -1.00, 1046.6, 170.0)">t</text><text xml:space="preserve" font-family="FiraMono-Regular" font-size="18.0" fill="#FEFFFF" transform="matrix(1.00, 0.00, -0.00, -1.00, 1057.4, 170.0)">-</text><text xml:space="preserve" font-family="FiraMono-Regular" font-size="18.0" fill="#FEFFFF" transform="matrix(1.00, 0.00, -0.00, -1.00, 1068.2, 170.0)">h</text><text xml:space="preserve" font-family="FiraMono-Regular" font-size="18.0" fill="#FEFFFF" transform="matrix(1.00, 0.00, -0.00, -1.00, 1079.0, 170.0)">a</text><text xml:space="preserve" font-family="FiraMono-Regular" font-size="18.0" fill="#FEFFFF" transform="matrix(1.00, 0.00, -0.00, -1.00, 1089.8, 170.0)">n</text><text xml:space="preserve" font-family="FiraMono-Regular" font-size="18.0" fill="#FEFFFF" transform="matrix(1.00, 0.00, -0.00, -1.00, 1100.6, 170.0)">d</text><text xml:space="preserve" font-family="FiraMono-Regular" font-size="18.0" fill="#FEFFFF" transform="matrix(1.00, 0.00, -0.00, -1.00, 1111.4, 170.0)">'</text><text xml:space="preserve" font-family="FiraMono-Regular" font-size="18.0" fill="#FEFFFF" transform="matrix(1.00, 0.00, -0.00, -1.00, 1122.2, 170.0)">)</text><text xml:space="preserve" font-family="FiraMono-Regular" font-size="18.0" fill="#FEFFFF" transform="matrix(1.00, 0.00, -0.00, -1.00, 1133.0, 170.0)">.</text><text xml:space="preserve" font-family="FiraMono-Bold" font-weight="bold" font-size="18.0" fill="#FE3772" transform="matrix(1.00, 0.00, -0.00, -1.00, 1143.8, 170.0)">a</text><text xml:space="preserve" font-family="FiraMono-Bold" font-weight="bold" font-size="18.0" fill="#FE3772" transform="matrix(1.00, 0.00, -0.00, -1.00, 1154.6, 170.0)">d</text><text xml:space="preserve" font-family="FiraMono-Bold" font-weight="bold" font-size="18.0" fill="#FE3772" transform="matrix(1.00, 0.00, -0.00, -1.00, 1165.4, 170.0)">d</text><text xml:space="preserve" font-family="FiraMono-Bold" font-weight="bold" font-size="18.0" fill="#FE3772" transform="matrix(1.00, 0.00, -0.00, -1.00, 1176.2, 170.0)">E</text><text xml:space="preserve" font-family="FiraMono-Bold" font-weight="bold" font-size="18.0" fill="#FE3772" transform="matrix(1.00, 0.00, -0.00, -1.00, 1187.0, 170.0)">v</text><text xml:space="preserve" font-family="FiraMono-Bold" font-weight="bold" font-size="18.0" fill="#FE3772" transform="matrix(1.00, 0.00, -0.00, -1.00, 1197.8, 170.0)">e</text><text xml:space="preserve" font-family="FiraMono-Bold" font-weight="bold" font-size="18.0" fill="#FE3772" transform="matrix(1.00, 0.00, -0.00, -1.00, 1208.6, 170.0)">n</text><text xml:space="preserve" font-family="FiraMono-Bold" font-weight="bold" font-size="18.0" fill="#FE3772" transform="matrix(1.00, 0.00, -0.00, -1.00, 1219.4, 170.0)">t</text><text xml:space="preserve" font-family="FiraMono-Bold" font-weight="bold" font-size="18.0" fill="#FE3772" transform="matrix(1.00, 0.00, -0.00, -1.00, 1230.2, 170.0)">L</text><text xml:space="preserve" font-family="FiraMono-Bold" font-weight="bold" font-size="18.0" fill="#FE3772" transform="matrix(1.00, 0.00, -0.00, -1.00, 1241.0, 170.0)">i</text><text xml:space="preserve" font-family="FiraMono-Bold" font-weight="bold" font-size="18.0" fill="#FE3772" transform="matrix(1.00, 0.00, -0.00, -1.00, 1251.8, 170.0)">s</text><text xml:space="preserve" font-family="FiraMono-Bold" font-weight="bold" font-size="18.0" fill="#FE3772" transform="matrix(1.00, 0.00, -0.00, -1.00, 1262.6, 170.0)">t</text><text xml:space="preserve" font-family="FiraMono-Bold" font-weight="bold" font-size="18.0" fill="#FE3772" transform="matrix(1.00, 0.00, -0.00, -1.00, 1273.4, 170.0)">e</text><text xml:space="preserve" font-family="FiraMono-Bold" font-weight="bold" font-size="18.0" fill="#FE3772" transform="matrix(1.00, 0.00, -0.00, -1.00, 1284.2, 170.0)">n</text><text xml:space="preserve" font-family="FiraMono-Bold" font-weight="bold" font-size="18.0" fill="#FE3772" transform="matrix(1.00, 0.00, -0.00, -1.00, 1295.0, 170.0)">e</text><text xml:space="preserve" font-family="FiraMono-Bold" font-weight="bold" font-size="18.0" fill="#FE3772" transform="matrix(1.00, 0.00, -0.00, -1.00, 1305.8, 170.0)">r</text><text xml:space="preserve" font-family="FiraMono-Regular" font-size="18.0" fill="#FEFFFF" transform="matrix(1.00, 0.00, -0.00, -1.00, 1316.6, 170.0)">(</text><text xml:space="preserve" font-family="FiraMono-Regular" font-size="18.0" fill="#FEFFFF" transform="matrix(1.00, 0.00, -0.00, -1.00, 1327.4, 170.0)">'</text><text xml:space="preserve" font-family="FiraMono-Regular" font-size="18.0" fill="#FEFFFF" transform="matrix(1.00, 0.00, -0.00, -1.00, 1338.2, 170.0)">s</text><text xml:space="preserve" font-family="FiraMono-Regular" font-size="18.0" fill="#FEFFFF" transform="matrix(1.00, 0.00, -0.00, -1.00, 1349.0, 170.0)">h</text><text xml:space="preserve" font-family="FiraMono-Regular" font-size="18.0" fill="#FEFFFF" transform="matrix(1.00, 0.00, -0.00, -1.00, 1359.8, 170.0)">o</text><text xml:space="preserve" font-family="FiraMono-Regular" font-size="18.0" fill="#FEFFFF" transform="matrix(1.00, 0.00, -0.00, -1.00, 1370.6, 170.0)">o</text><text xml:space="preserve" font-family="FiraMono-Regular" font-size="18.0" fill="#FEFFFF" transform="matrix(1.00, 0.00, -0.00, -1.00, 1381.4, 170.0)">t</text><text xml:space="preserve" font-family="FiraMono-Regular" font-size="18.0" fill="#FEFFFF" transform="matrix(1.00, 0.00, -0.00, -1.00, 1392.2, 170.0)">'</text><text xml:space="preserve" font-family="FiraMono-Regular" font-size="18.0" fill="#FEFFFF" transform="matrix(1.00, 0.00, -0.00, -1.00, 1403.0, 170.0)">,</text><text xml:space="preserve" font-family="FiraMono-Regular" font-size="18.0" fill="#FEFFFF" transform="matrix(1.00, 0.00, -0.00, -1.00, 1413.8, 170.0)"> </text><text xml:space="preserve" font-family="FiraMono-Regular" font-size="18.0" fill="#FEFFFF" transform="matrix(1.00, 0.00, -0.00, -1.00, 971.0, 148.0)"> </text><text xml:space="preserve" font-family="FiraMono-Regular" font-size="18.0" fill="#FEFFFF" transform="matrix(1.00, 0.00, -0.00, -1.00, 981.8, 148.0)"> </text><text xml:space="preserve" font-family="FiraMono-Regular" font-size="18.0" fill="#FEFFFF" transform="matrix(1.00, 0.00, -0.00, -1.00, 992.6, 148.0)">f</text><text xml:space="preserve" font-family="FiraMono-Regular" font-size="18.0" fill="#FEFFFF" transform="matrix(1.00, 0.00, -0.00, -1.00, 1003.4, 148.0)">u</text><text xml:space="preserve" font-family="FiraMono-Regular" font-size="18.0" fill="#FEFFFF" transform="matrix(1.00, 0.00, -0.00, -1.00, 1014.2, 148.0)">n</text><text xml:space="preserve" font-family="FiraMono-Regular" font-size="18.0" fill="#FEFFFF" transform="matrix(1.00, 0.00, -0.00, -1.00, 1025.0, 148.0)">c</text><text xml:space="preserve" font-family="FiraMono-Regular" font-size="18.0" fill="#FEFFFF" transform="matrix(1.00, 0.00, -0.00, -1.00, 1035.8, 148.0)">t</text><text xml:space="preserve" font-family="FiraMono-Regular" font-size="18.0" fill="#FEFFFF" transform="matrix(1.00, 0.00, -0.00, -1.00, 1046.6, 148.0)">i</text><text xml:space="preserve" font-family="FiraMono-Regular" font-size="18.0" fill="#FEFFFF" transform="matrix(1.00, 0.00, -0.00, -1.00, 1057.4, 148.0)">o</text><text xml:space="preserve" font-family="FiraMono-Regular" font-size="18.0" fill="#FEFFFF" transform="matrix(1.00, 0.00, -0.00, -1.00, 1068.2, 148.0)">n</text><text xml:space="preserve" font-family="FiraMono-Regular" font-size="18.0" fill="#FEFFFF" transform="matrix(1.00, 0.00, -0.00, -1.00, 1079.0, 148.0)"> </text><text xml:space="preserve" font-family="FiraMono-Regular" font-size="18.0" fill="#FEFFFF" transform="matrix(1.00, 0.00, -0.00, -1.00, 1089.8, 148.0)">(</text><text xml:space="preserve" font-family="FiraMono-Regular" font-size="18.0" fill="#FEFFFF" transform="matrix(1.00, 0.00, -0.00, -1.00, 1100.6, 148.0)">)</text><text xml:space="preserve" font-family="FiraMono-Regular" font-size="18.0" fill="#FEFFFF" transform="matrix(1.00, 0.00, -0.00, -1.00, 1111.4, 148.0)"> </text><text xml:space="preserve" font-family="FiraMono-Regular" font-size="18.0" fill="#FEFFFF" transform="matrix(1.00, 0.00, -0.00, -1.00, 1122.2, 148.0)">{</text><text xml:space="preserve" font-family="FiraMono-Regular" font-size="18.0" fill="#FEFFFF" transform="matrix(1.00, 0.00, -0.00, -1.00, 1133.0, 148.0)"> </text><text xml:space="preserve" font-family="FiraMono-Regular" font-size="18.0" fill="#FEFFFF" transform="matrix(1.00, 0.00, -0.00, -1.00, 971.0, 122.0)"> </text><text xml:space="preserve" font-family="FiraMono-Regular" font-size="18.0" fill="#FEFFFF" transform="matrix(1.00, 0.00, -0.00, -1.00, 981.8, 122.0)"> </text><text xml:space="preserve" font-family="FiraMono-Regular" font-size="18.0" fill="#FEFFFF" transform="matrix(1.00, 0.00, -0.00, -1.00, 992.6, 122.0)"> </text><text xml:space="preserve" font-family="FiraMono-Regular" font-size="18.0" fill="#FEFFFF" transform="matrix(1.00, 0.00, -0.00, -1.00, 1003.4, 122.0)"> </text><text xml:space="preserve" font-family="FiraMono-Regular" font-size="18.0" fill="#FEFFFF" transform="matrix(1.00, 0.00, -0.00, -1.00, 1014.2, 122.0)">b</text><text xml:space="preserve" font-family="FiraMono-Regular" font-size="18.0" fill="#FEFFFF" transform="matrix(1.00, 0.00, -0.00, -1.00, 1025.0, 122.0)">u</text><text xml:space="preserve" font-family="FiraMono-Regular" font-size="18.0" fill="#FEFFFF" transform="matrix(1.00, 0.00, -0.00, -1.00, 1035.8, 122.0)">l</text><text xml:space="preserve" font-family="FiraMono-Regular" font-size="18.0" fill="#FEFFFF" transform="matrix(1.00, 0.00, -0.00, -1.00, 1046.6, 122.0)">l</text><text xml:space="preserve" font-family="FiraMono-Regular" font-size="18.0" fill="#FEFFFF" transform="matrix(1.00, 0.00, -0.00, -1.00, 1057.4, 122.0)">e</text><text xml:space="preserve" font-family="FiraMono-Regular" font-size="18.0" fill="#FEFFFF" transform="matrix(1.00, 0.00, -0.00, -1.00, 1068.2, 122.0)">t</text><text xml:space="preserve" font-family="FiraMono-Regular" font-size="18.0" fill="#FEFFFF" transform="matrix(1.00, 0.00, -0.00, -1.00, 1079.0, 122.0)">.</text><text xml:space="preserve" font-family="FiraMono-Bold" font-weight="bold" font-size="18.0" fill="#FE3772" transform="matrix(1.00, 0.00, -0.00, -1.00, 1089.8, 122.0)">s</text><text xml:space="preserve" font-family="FiraMono-Bold" font-weight="bold" font-size="18.0" fill="#FE3772" transform="matrix(1.00, 0.00, -0.00, -1.00, 1100.6, 122.0)">e</text><text xml:space="preserve" font-family="FiraMono-Bold" font-weight="bold" font-size="18.0" fill="#FE3772" transform="matrix(1.00, 0.00, -0.00, -1.00, 1111.4, 122.0)">t</text><text xml:space="preserve" font-family="FiraMono-Bold" font-weight="bold" font-size="18.0" fill="#FE3772" transform="matrix(1.00, 0.00, -0.00, -1.00, 1122.2, 122.0)">A</text><text xml:space="preserve" font-family="FiraMono-Bold" font-weight="bold" font-size="18.0" fill="#FE3772" transform="matrix(1.00, 0.00, -0.00, -1.00, 1133.0, 122.0)">t</text><text xml:space="preserve" font-family="FiraMono-Bold" font-weight="bold" font-size="18.0" fill="#FE3772" transform="matrix(1.00, 0.00, -0.00, -1.00, 1143.8, 122.0)">t</text><text xml:space="preserve" font-family="FiraMono-Bold" font-weight="bold" font-size="18.0" fill="#FE3772" transform="matrix(1.00, 0.00, -0.00, -1.00, 1154.6, 122.0)">r</text><text xml:space="preserve" font-family="FiraMono-Bold" font-weight="bold" font-size="18.0" fill="#FE3772" transform="matrix(1.00, 0.00, -0.00, -1.00, 1165.4, 122.0)">i</text><text xml:space="preserve" font-family="FiraMono-Bold" font-weight="bold" font-size="18.0" fill="#FE3772" transform="matrix(1.00, 0.00, -0.00, -1.00, 1176.2, 122.0)">b</text><text xml:space="preserve" font-family="FiraMono-Bold" font-weight="bold" font-size="18.0" fill="#FE3772" transform="matrix(1.00, 0.00, -0.00, -1.00, 1187.0, 122.0)">u</text><text xml:space="preserve" font-family="FiraMono-Bold" font-weight="bold" font-size="18.0" fill="#FE3772" transform="matrix(1.00, 0.00, -0.00, -1.00, 1197.8, 122.0)">t</text><text xml:space="preserve" font-family="FiraMono-Bold" font-weight="bold" font-size="18.0" fill="#FE3772" transform="matrix(1.00, 0.00, -0.00, -1.00, 1208.6, 122.0)">e</text><text xml:space="preserve" font-family="FiraMono-Regular" font-size="18.0" fill="#FEFFFF" transform="matrix(1.00, 0.00, -0.00, -1.00, 1219.4, 122.0)">(</text><text xml:space="preserve" font-family="FiraMono-Regular" font-size="18.0" fill="#FEFFFF" transform="matrix(1.00, 0.00, -0.00, -1.00, 1230.2, 122.0)">'</text><text xml:space="preserve" font-family="FiraMono-Regular" font-size="18.0" fill="#10DAE2" transform="matrix(1.00, 0.00, -0.00, -1.00, 1241.0, 122.0)">g</text><text xml:space="preserve" font-family="FiraMono-Regular" font-size="18.0" fill="#10DAE2" transform="matrix(1.00, 0.00, -0.00, -1.00, 1251.8, 122.0)">e</text><text xml:space="preserve" font-family="FiraMono-Regular" font-size="18.0" fill="#10DAE2" transform="matrix(1.00, 0.00, -0.00, -1.00, 1262.6, 122.0)">o</text><text xml:space="preserve" font-family="FiraMono-Regular" font-size="18.0" fill="#10DAE2" transform="matrix(1.00, 0.00, -0.00, -1.00, 1273.4, 122.0)">m</text><text xml:space="preserve" font-family="FiraMono-Regular" font-size="18.0" fill="#10DAE2" transform="matrix(1.00, 0.00, -0.00, -1.00, 1284.2, 122.0)">e</text><text xml:space="preserve" font-family="FiraMono-Regular" font-size="18.0" fill="#10DAE2" transform="matrix(1.00, 0.00, -0.00, -1.00, 1295.0, 122.0)">t</text><text xml:space="preserve" font-family="FiraMono-Regular" font-size="18.0" fill="#10DAE2" transform="matrix(1.00, 0.00, -0.00, -1.00, 1305.8, 122.0)">r</text><text xml:space="preserve" font-family="FiraMono-Regular" font-size="18.0" fill="#10DAE2" transform="matrix(1.00, 0.00, -0.00, -1.00, 1316.6, 122.0)">y</text><text xml:space="preserve" font-family="FiraMono-Regular" font-size="18.0" fill="#FEFFFF" transform="matrix(1.00, 0.00, -0.00, -1.00, 1327.4, 122.0)">'</text><text xml:space="preserve" font-family="FiraMono-Regular" font-size="18.0" fill="#FEFFFF" transform="matrix(1.00, 0.00, -0.00, -1.00, 1338.2, 122.0)">,</text><text xml:space="preserve" font-family="FiraMono-Regular" font-size="18.0" fill="#FEFFFF" transform="matrix(1.00, 0.00, -0.00, -1.00, 1349.0, 122.0)"> </text><text xml:space="preserve" font-family="FiraMono-Regular" font-size="18.0" fill="#FEFFFF" transform="matrix(1.00, 0.00, -0.00, -1.00, 1359.8, 122.0)">{</text><text xml:space="preserve" font-family="FiraMono-Regular" font-size="18.0" fill="#FEFFFF" transform="matrix(1.00, 0.00, -0.00, -1.00, 1370.6, 122.0)">r</text><text xml:space="preserve" font-family="FiraMono-Regular" font-size="18.0" fill="#FEFFFF" transform="matrix(1.00, 0.00, -0.00, -1.00, 1381.4, 122.0)">a</text><text xml:space="preserve" font-family="FiraMono-Regular" font-size="18.0" fill="#FEFFFF" transform="matrix(1.00, 0.00, -0.00, -1.00, 1392.2, 122.0)">d</text><text xml:space="preserve" font-family="FiraMono-Regular" font-size="18.0" fill="#FEFFFF" transform="matrix(1.00, 0.00, -0.00, -1.00, 1403.0, 122.0)">i</text><text xml:space="preserve" font-family="FiraMono-Regular" font-size="18.0" fill="#FEFFFF" transform="matrix(1.00, 0.00, -0.00, -1.00, 1413.8, 122.0)">u</text><text xml:space="preserve" font-family="FiraMono-Regular" font-size="18.0" fill="#FEFFFF" transform="matrix(1.00, 0.00, -0.00, -1.00, 1424.6, 122.0)">s</text><text xml:space="preserve" font-family="FiraMono-Regular" font-size="18.0" fill="#FEFFFF" transform="matrix(1.00, 0.00, -0.00, -1.00, 1435.4, 122.0)">:</text><text xml:space="preserve" font-family="FiraMono-Regular" font-size="18.0" fill="#FEFFFF" transform="matrix(1.00, 0.00, -0.00, -1.00, 1446.2, 122.0)"> </text><text xml:space="preserve" font-family="FiraMono-Bold" font-weight="bold" font-size="18.0" fill="#FBF567" transform="matrix(1.00, 0.00, -0.00, -1.00, 1457.0, 122.0)">0</text><text xml:space="preserve" font-family="FiraMono-Bold" font-weight="bold" font-size="18.0" fill="#FBF567" transform="matrix(1.00, 0.00, -0.00, -1.00, 1467.8, 122.0)">.</text><text xml:space="preserve" font-family="FiraMono-Bold" font-weight="bold" font-size="18.0" fill="#FBF567" transform="matrix(1.00, 0.00, -0.00, -1.00, 1478.6, 122.0)">1</text><text xml:space="preserve" font-family="FiraMono-Regular" font-size="18.0" fill="#FEFFFF" transform="matrix(1.00, 0.00, -0.00, -1.00, 1489.4, 122.0)">}</text><text xml:space="preserve" font-family="FiraMono-Regular" font-size="18.0" fill="#FEFFFF" transform="matrix(1.00, 0.00, -0.00, -1.00, 1500.2, 122.0)">)</text><text xml:space="preserve" font-family="FiraMono-Regular" font-size="18.0" fill="#FEFFFF" transform="matrix(1.00, 0.00, -0.00, -1.00, 1511.0, 122.0)">;</text><text xml:space="preserve" font-family="FiraMono-Regular" font-size="18.0" fill="#FEFFFF" transform="matrix(1.00, 0.00, -0.00, -1.00, 1521.8, 122.0)"> </text><text xml:space="preserve" font-family="FiraMono-Regular" font-size="18.0" fill="#FEFFFF" transform="matrix(1.00, 0.00, -0.00, -1.00, 971.0, 100.0)"> </text><text xml:space="preserve" font-family="FiraMono-Regular" font-size="18.0" fill="#FEFFFF" transform="matrix(1.00, 0.00, -0.00, -1.00, 981.8, 100.0)"> </text><text xml:space="preserve" font-family="FiraMono-Regular" font-size="18.0" fill="#FEFFFF" transform="matrix(1.00, 0.00, -0.00, -1.00, 992.6, 100.0)">}</text><text xml:space="preserve" font-family="FiraMono-Regular" font-size="18.0" fill="#FEFFFF" transform="matrix(1.00, 0.00, -0.00, -1.00, 1003.4, 100.0)"> </text><text xml:space="preserve" font-family="FiraMono-Regular" font-size="18.0" fill="#FEFFFF" transform="matrix(1.00, 0.00, -0.00, -1.00, 971.0, 78.0)">)</text><text xml:space="preserve" font-family="FiraMono-Regular" font-size="18.0" fill="#FEFFFF" transform="matrix(1.00, 0.00, -0.00, -1.00, 981.8, 78.0)">;</text></g></svg>