<?xml version="1.0" encoding="UTF-8" standalone="no"?><svg xmlns="http://www.w3.org/2000/svg" xmlns:xlink="http://www.w3.org/1999/xlink" clip-rule="evenodd" stroke-miterlimit="4.00" viewBox="0 0 555 124"><desc>SVG generated by Keynote</desc><defs></defs><g transform="matrix(1.00, 0.00, -0.00, -1.00, 0.0, 124.0)"><text xml:space="preserve" font-family="FiraMono-Regular" font-size="18.0" fill="#FEFFFF" transform="matrix(1.00, 0.00, -0.00, -1.00, 2.0, 98.0)">$</text><text xml:space="preserve" font-family="FiraMono-Regular" font-size="18.0" fill="#FEFFFF" transform="matrix(1.00, 0.00, -0.00, -1.00, 12.8, 98.0)">(</text><text xml:space="preserve" font-family="FiraMono-Regular" font-size="18.0" fill="#FEFFFF" transform="matrix(1.00, 0.00, -0.00, -1.00, 23.6, 98.0)">'</text><text xml:space="preserve" font-family="FiraMono-Regular" font-size="18.0" fill="#FEFFFF" transform="matrix(1.00, 0.00, -0.00, -1.00, 34.4, 98.0)">#</text><text xml:space="preserve" font-family="FiraMono-Regular" font-size="18.0" fill="#FEFFFF" transform="matrix(1.00, 0.00, -0.00, -1.00, 45.2, 98.0)">l</text><text xml:space="preserve" font-family="FiraMono-Regular" font-size="18.0" fill="#FEFFFF" transform="matrix(1.00, 0.00, -0.00, -1.00, 56.0, 98.0)">e</text><text xml:space="preserve" font-family="FiraMono-Regular" font-size="18.0" fill="#FEFFFF" transform="matrix(1.00, 0.00, -0.00, -1.00, 66.8, 98.0)">f</text><text xml:space="preserve" font-family="FiraMono-Regular" font-size="18.0" fill="#FEFFFF" transform="matrix(1.00, 0.00, -0.00, -1.00, 77.6, 98.0)">t</text><text xml:space="preserve" font-family="FiraMono-Regular" font-size="18.0" fill="#FEFFFF" transform="matrix(1.00, 0.00, -0.00, -1.00, 88.4, 98.0)">-</text><text xml:space="preserve" font-family="FiraMono-Regular" font-size="18.0" fill="#FEFFFF" transform="matrix(1.00, 0.00, -0.00, -1.00, 99.2, 98.0)">h</text><text xml:space="preserve" font-family="FiraMono-Regular" font-size="18.0" fill="#FEFFFF" transform="matrix(1.00, 0.00, -0.00, -1.00, 110.0, 98.0)">a</text><text xml:space="preserve" font-family="FiraMono-Regular" font-size="18.0" fill="#FEFFFF" transform="matrix(1.00, 0.00, -0.00, -1.00, 120.8, 98.0)">n</text><text xml:space="preserve" font-family="FiraMono-Regular" font-size="18.0" fill="#FEFFFF" transform="matrix(1.00, 0.00, -0.00, -1.00, 131.6, 98.0)">d</text><text xml:space="preserve" font-family="FiraMono-Regular" font-size="18.0" fill="#FEFFFF" transform="matrix(1.00, 0.00, -0.00, -1.00, 142.4, 98.0)">'</text><text xml:space="preserve" font-family="FiraMono-Regular" font-size="18.0" fill="#FEFFFF" transform="matrix(1.00, 0.00, -0.00, -1.00, 153.2, 98.0)">)</text><text xml:space="preserve" font-family="FiraMono-Regular" font-size="18.0" fill="#FEFFFF" transform="matrix(1.00, 0.00, -0.00, -1.00, 164.0, 98.0)">.</text><text xml:space="preserve" font-family="FiraMono-Bold" font-weight="bold" font-size="18.0" fill="#FE3772" transform="matrix(1.00, 0.00, -0.00, -1.00, 174.8, 98.0)">a</text><text xml:space="preserve" font-family="FiraMono-Bold" font-weight="bold" font-size="18.0" fill="#FE3772" transform="matrix(1.00, 0.00, -0.00, -1.00, 185.6, 98.0)">d</text><text xml:space="preserve" font-family="FiraMono-Bold" font-weight="bold" font-size="18.0" fill="#FE3772" transform="matrix(1.00, 0.00, -0.00, -1.00, 196.4, 98.0)">d</text><text xml:space="preserve" font-family="FiraMono-Bold" font-weight="bold" font-size="18.0" fill="#FE3772" transform="matrix(1.00, 0.00, -0.00, -1.00, 207.2, 98.0)">E</text><text xml:space="preserve" font-family="FiraMono-Bold" font-weight="bold" font-size="18.0" fill="#FE3772" transform="matrix(1.00, 0.00, -0.00, -1.00, 218.0, 98.0)">v</text><text xml:space="preserve" font-family="FiraMono-Bold" font-weight="bold" font-size="18.0" fill="#FE3772" transform="matrix(1.00, 0.00, -0.00, -1.00, 228.8, 98.0)">e</text><text xml:space="preserve" font-family="FiraMono-Bold" font-weight="bold" font-size="18.0" fill="#FE3772" transform="matrix(1.00, 0.00, -0.00, -1.00, 239.6, 98.0)">n</text><text xml:space="preserve" font-family="FiraMono-Bold" font-weight="bold" font-size="18.0" fill="#FE3772" transform="matrix(1.00, 0.00, -0.00, -1.00, 250.4, 98.0)">t</text><text xml:space="preserve" font-family="FiraMono-Bold" font-weight="bold" font-size="18.0" fill="#FE3772" transform="matrix(1.00, 0.00, -0.00, -1.00, 261.2, 98.0)">L</text><text xml:space="preserve" font-family="FiraMono-Bold" font-weight="bold" font-size="18.0" fill="#FE3772" transform="matrix(1.00, 0.00, -0.00, -1.00, 272.0, 98.0)">i</text><text xml:space="preserve" font-family="FiraMono-Bold" font-weight="bold" font-size="18.0" fill="#FE3772" transform="matrix(1.00, 0.00, -0.00, -1.00, 282.8, 98.0)">s</text><text xml:space="preserve" font-family="FiraMono-Bold" font-weight="bold" font-size="18.0" fill="#FE3772" transform="matrix(1.00, 0.00, -0.00, -1.00, 293.6, 98.0)">t</text><text xml:space="preserve" font-family="FiraMono-Bold" font-weight="bold" font-size="18.0" fill="#FE3772" transform="matrix(1.00, 0.00, -0.00, -1.00, 304.4, 98.0)">e</text><text xml:space="preserve" font-family="FiraMono-Bold" font-weight="bold" font-size="18.0" fill="#FE3772" transform="matrix(1.00, 0.00, -0.00, -1.00, 315.2, 98.0)">n</text><text xml:space="preserve" font-family="FiraMono-Bold" font-weight="bold" font-size="18.0" fill="#FE3772" transform="matrix(1.00, 0.00, -0.00, -1.00, 326.0, 98.0)">e</text><text xml:space="preserve" font-family="FiraMono-Bold" font-weight="bold" font-size="18.0" fill="#FE3772" transform="matrix(1.00, 0.00, -0.00, -1.00, 336.8, 98.0)">r</text><text xml:space="preserve" font-family="FiraMono-Regular" font-size="18.0" fill="#FEFFFF" transform="matrix(1.00, 0.00, -0.00, -1.00, 347.6, 98.0)">(</text><text xml:space="preserve" font-family="FiraMono-Regular" font-size="18.0" fill="#FEFFFF" transform="matrix(1.00, 0.00, -0.00, -1.00, 358.4, 98.0)">'</text><text xml:space="preserve" font-family="FiraMono-Regular" font-size="18.0" fill="#FEFFFF" transform="matrix(1.00, 0.00, -0.00, -1.00, 369.2, 98.0)">s</text><text xml:space="preserve" font-family="FiraMono-Regular" font-size="18.0" fill="#FEFFFF" transform="matrix(1.00, 0.00, -0.00, -1.00, 380.0, 98.0)">h</text><text xml:space="preserve" font-family="FiraMono-Regular" font-size="18.0" fill="#FEFFFF" transform="matrix(1.00, 0.00, -0.00, -1.00, 390.8, 98.0)">o</text><text xml:space="preserve" font-family="FiraMono-Regular" font-size="18.0" fill="#FEFFFF" transform="matrix(1.00, 0.00, -0.00, -1.00, 401.6, 98.0)">o</text><text xml:space="preserve" font-family="FiraMono-Regular" font-size="18.0" fill="#FEFFFF" transform="matrix(1.00, 0.00, -0.00, -1.00, 412.4, 98.0)">t</text><text xml:space="preserve" font-family="FiraMono-Regular" font-size="18.0" fill="#FEFFFF" transform="matrix(1.00, 0.00, -0.00, -1.00, 423.2, 98.0)">'</text><text xml:space="preserve" font-family="FiraMono-Regular" font-size="18.0" fill="#FEFFFF" transform="matrix(1.00, 0.00, -0.00, -1.00, 434.0, 98.0)">,</text><text xml:space="preserve" font-family="FiraMono-Regular" font-size="18.0" fill="#FEFFFF" transform="matrix(1.00, 0.00, -0.00, -1.00, 444.8, 98.0)"> </text><text xml:space="preserve" font-family="FiraMono-Regular" font-size="18.0" fill="#FEFFFF" transform="matrix(1.00, 0.00, -0.00, -1.00, 2.0, 76.0)"> </text><text xml:space="preserve" font-family="FiraMono-Regular" font-size="18.0" fill="#FEFFFF" transform="matrix(1.00, 0.00, -0.00, -1.00, 12.8, 76.0)"> </text><text xml:space="preserve" font-family="FiraMono-Regular" font-size="18.0" fill="#FEFFFF" transform="matrix(1.00, 0.00, -0.00, -1.00, 23.6, 76.0)">f</text><text xml:space="preserve" font-family="FiraMono-Regular" font-size="18.0" fill="#FEFFFF" transform="matrix(1.00, 0.00, -0.00, -1.00, 34.4, 76.0)">u</text><text xml:space="preserve" font-family="FiraMono-Regular" font-size="18.0" fill="#FEFFFF" transform="matrix(1.00, 0.00, -0.00, -1.00, 45.2, 76.0)">n</text><text xml:space="preserve" font-family="FiraMono-Regular" font-size="18.0" fill="#FEFFFF" transform="matrix(1.00, 0.00, -0.00, -1.00, 56.0, 76.0)">c</text><text xml:space="preserve" font-family="FiraMono-Regular" font-size="18.0" fill="#FEFFFF" transform="matrix(1.00, 0.00, -0.00, -1.00, 66.8, 76.0)">t</text><text xml:space="preserve" font-family="FiraMono-Regular" font-size="18.0" fill="#FEFFFF" transform="matrix(1.00, 0.00, -0.00, -1.00, 77.6, 76.0)">i</text><text xml:space="preserve" font-family="FiraMono-Regular" font-size="18.0" fill="#FEFFFF" transform="matrix(1.00, 0.00, -0.00, -1.00, 88.4, 76.0)">o</text><text xml:space="preserve" font-family="FiraMono-Regular" font-size="18.0" fill="#FEFFFF" transform="matrix(1.00, 0.00, -0.00, -1.00, 99.2, 76.0)">n</text><text xml:space="preserve" font-family="FiraMono-Regular" font-size="18.0" fill="#FEFFFF" transform="matrix(1.00, 0.00, -0.00, -1.00, 110.0, 76.0)"> </text><text xml:space="preserve" font-family="FiraMono-Regular" font-size="18.0" fill="#FEFFFF" transform="matrix(1.00, 0.00, -0.00, -1.00, 120.8, 76.0)">(</text><text xml:space="preserve" font-family="FiraMono-Regular" font-size="18.0" fill="#FEFFFF" transform="matrix(1.00, 0.00, -0.00, -1.00, 131.6, 76.0)">)</text><text xml:space="preserve" font-family="FiraMono-Regular" font-size="18.0" fill="#FEFFFF" transform="matrix(1.00, 0.00, -0.00, -1.00, 142.4, 76.0)"> </text><text xml:space="preserve" font-family="FiraMono-Regular" font-size="18.0" fill="#FEFFFF" transform="matrix(1.00, 0.00, -0.00, -1.00, 153.2, 76.0)">{</text><text xml:space="preserve" font-family="FiraMono-Regular" font-size="18.0" fill="#FEFFFF" transform="matrix(1.00, 0.00, -0.00, -1.00, 164.0, 76.0)"> </text><text xml:space="preserve" font-family="FiraMono-Regular" font-size="18.0" fill="#FEFFFF" transform="matrix(1.00, 0.00, -0.00, -1.00, 2.0, 50.0)"> </text><text xml:space="preserve" font-family="FiraMono-Regular" font-size="18.0" fill="#FEFFFF" transform="matrix(1.00, 0.00, -0.00, -1.00, 12.8, 50.0)"> </text><text xml:space="preserve" font-family="FiraMono-Regular" font-size="18.0" fill="#FEFFFF" transform="matrix(1.00, 0.00, -0.00, -1.00, 23.6, 50.0)"> </text><text xml:space="preserve" font-family="FiraMono-Regular" font-size="18.0" fill="#FEFFFF" transform="matrix(1.00, 0.00, -0.00, -1.00, 34.4, 50.0)"> </text><text xml:space="preserve" font-family="FiraMono-Regular" font-size="18.0" fill="#FEFFFF" transform="matrix(1.00, 0.00, -0.00, -1.00, 45.2, 50.0)">b</text><text xml:space="preserve" font-family="FiraMono-Regular" font-size="18.0" fill="#FEFFFF" transform="matrix(1.00, 0.00, -0.00, -1.00, 56.0, 50.0)">u</text><text xml:space="preserve" font-family="FiraMono-Regular" font-size="18.0" fill="#FEFFFF" transform="matrix(1.00, 0.00, -0.00, -1.00, 66.8, 50.0)">l</text><text xml:space="preserve" font-family="FiraMono-Regular" font-size="18.0" fill="#FEFFFF" transform="matrix(1.00, 0.00, -0.00, -1.00, 77.6, 50.0)">l</text><text xml:space="preserve" font-family="FiraMono-Regular" font-size="18.0" fill="#FEFFFF" transform="matrix(1.00, 0.00, -0.00, -1.00, 88.4, 50.0)">e</text><text xml:space="preserve" font-family="FiraMono-Regular" font-size="18.0" fill="#FEFFFF" transform="matrix(1.00, 0.00, -0.00, -1.00, 99.2, 50.0)">t</text><text xml:space="preserve" font-family="FiraMono-Regular" font-size="18.0" fill="#FEFFFF" transform="matrix(1.00, 0.00, -0.00, -1.00, 110.0, 50.0)">.</text><text xml:space="preserve" font-family="FiraMono-Bold" font-weight="bold" font-size="18.0" fill="#FE3772" transform="matrix(1.00, 0.00, -0.00, -1.00, 120.8, 50.0)">s</text><text xml:space="preserve" font-family="FiraMono-Bold" font-weight="bold" font-size="18.0" fill="#FE3772" transform="matrix(1.00, 0.00, -0.00, -1.00, 131.6, 50.0)">e</text><text xml:space="preserve" font-family="FiraMono-Bold" font-weight="bold" font-size="18.0" fill="#FE3772" transform="matrix(1.00, 0.00, -0.00, -1.00, 142.4, 50.0)">t</text><text xml:space="preserve" font-family="FiraMono-Bold" font-weight="bold" font-size="18.0" fill="#FE3772" transform="matrix(1.00, 0.00, -0.00, -1.00, 153.2, 50.0)">A</text><text xml:space="preserve" font-family="FiraMono-Bold" font-weight="bold" font-size="18.0" fill="#FE3772" transform="matrix(1.00, 0.00, -0.00, -1.00, 164.0, 50.0)">t</text><text xml:space="preserve" font-family="FiraMono-Bold" font-weight="bold" font-size="18.0" fill="#FE3772" transform="matrix(1.00, 0.00, -0.00, -1.00, 174.8, 50.0)">t</text><text xml:space="preserve" font-family="FiraMono-Bold" font-weight="bold" font-size="18.0" fill="#FE3772" transform="matrix(1.00, 0.00, -0.00, -1.00, 185.6, 50.0)">r</text><text xml:space="preserve" font-family="FiraMono-Bold" font-weight="bold" font-size="18.0" fill="#FE3772" transform="matrix(1.00, 0.00, -0.00, -1.00, 196.4, 50.0)">i</text><text xml:space="preserve" font-family="FiraMono-Bold" font-weight="bold" font-size="18.0" fill="#FE3772" transform="matrix(1.00, 0.00, -0.00, -1.00, 207.2, 50.0)">b</text><text xml:space="preserve" font-family="FiraMono-Bold" font-weight="bold" font-size="18.0" fill="#FE3772" transform="matrix(1.00, 0.00, -0.00, -1.00, 218.0, 50.0)">u</text><text xml:space="preserve" font-family="FiraMono-Bold" font-weight="bold" font-size="18.0" fill="#FE3772" transform="matrix(1.00, 0.00, -0.00, -1.00, 228.8, 50.0)">t</text><text xml:space="preserve" font-family="FiraMono-Bold" font-weight="bold" font-size="18.0" fill="#FE3772" transform="matrix(1.00, 0.00, -0.00, -1.00, 239.6, 50.0)">e</text><text xml:space="preserve" font-family="FiraMono-Regular" font-size="18.0" fill="#FEFFFF" transform="matrix(1.00, 0.00, -0.00, -1.00, 250.4, 50.0)">(</text><text xml:space="preserve" font-family="FiraMono-Regular" font-size="18.0" fill="#FEFFFF" transform="matrix(1.00, 0.00, -0.00, -1.00, 261.2, 50.0)">'</text><text xml:space="preserve" font-family="FiraMono-Regular" font-size="18.0" fill="#10DAE2" transform="matrix(1.00, 0.00, -0.00, -1.00, 272.0, 50.0)">g</text><text xml:space="preserve" font-family="FiraMono-Regular" font-size="18.0" fill="#10DAE2" transform="matrix(1.00, 0.00, -0.00, -1.00, 282.8, 50.0)">e</text><text xml:space="preserve" font-family="FiraMono-Regular" font-size="18.0" fill="#10DAE2" transform="matrix(1.00, 0.00, -0.00, -1.00, 293.6, 50.0)">o</text><text xml:space="preserve" font-family="FiraMono-Regular" font-size="18.0" fill="#10DAE2" transform="matrix(1.00, 0.00, -0.00, -1.00, 304.4, 50.0)">m</text><text xml:space="preserve" font-family="FiraMono-Regular" font-size="18.0" fill="#10DAE2" transform="matrix(1.00, 0.00, -0.00, -1.00, 315.2, 50.0)">e</text><text xml:space="preserve" font-family="FiraMono-Regular" font-size="18.0" fill="#10DAE2" transform="matrix(1.00, 0.00, -0.00, -1.00, 326.0, 50.0)">t</text><text xml:space="preserve" font-family="FiraMono-Regular" font-size="18.0" fill="#10DAE2" transform="matrix(1.00, 0.00, -0.00, -1.00, 336.8, 50.0)">r</text><text xml:space="preserve" font-family="FiraMono-Regular" font-size="18.0" fill="#10DAE2" transform="matrix(1.00, 0.00, -0.00, -1.00, 347.6, 50.0)">y</text><text xml:space="preserve" font-family="FiraMono-Regular" font-size="18.0" fill="#FEFFFF" transform="matrix(1.00, 0.00, -0.00, -1.00, 358.4, 50.0)">'</text><text xml:space="preserve" font-family="FiraMono-Regular" font-size="18.0" fill="#FEFFFF" transform="matrix(1.00, 0.00, -0.00, -1.00, 369.2, 50.0)">,</text><text xml:space="preserve" font-family="FiraMono-Regular" font-size="18.0" fill="#FEFFFF" transform="matrix(1.00, 0.00, -0.00, -1.00, 380.0, 50.0)"> </text><text xml:space="preserve" font-family="FiraMono-Regular" font-size="18.0" fill="#FEFFFF" transform="matrix(1.00, 0.00, -0.00, -1.00, 390.8, 50.0)">{</text><text xml:space="preserve" font-family="FiraMono-Regular" font-size="18.0" fill="#FEFFFF" transform="matrix(1.00, 0.00, -0.00, -1.00, 401.6, 50.0)">r</text><text xml:space="preserve" font-family="FiraMono-Regular" font-size="18.0" fill="#FEFFFF" transform="matrix(1.00, 0.00, -0.00, -1.00, 412.4, 50.0)">a</text><text xml:space="preserve" font-family="FiraMono-Regular" font-size="18.0" fill="#FEFFFF" transform="matrix(1.00, 0.00, -0.00, -1.00, 423.2, 50.0)">d</text><text xml:space="preserve" font-family="FiraMono-Regular" font-size="18.0" fill="#FEFFFF" transform="matrix(1.00, 0.00, -0.00, -1.00, 434.0, 50.0)">i</text><text xml:space="preserve" font-family="FiraMono-Regular" font-size="18.0" fill="#FEFFFF" transform="matrix(1.00, 0.00, -0.00, -1.00, 444.8, 50.0)">u</text><text xml:space="preserve" font-family="FiraMono-Regular" font-size="18.0" fill="#FEFFFF" transform="matrix(1.00, 0.00, -0.00, -1.00, 455.6, 50.0)">s</text><text xml:space="preserve" font-family="FiraMono-Regular" font-size="18.0" fill="#FEFFFF" transform="matrix(1.00, 0.00, -0.00, -1.00, 466.4, 50.0)">:</text><text xml:space="preserve" font-family="FiraMono-Regular" font-size="18.0" fill="#FEFFFF" transform="matrix(1.00, 0.00, -0.00, -1.00, 477.2, 50.0)"> </text><text xml:space="preserve" font-family="FiraMono-Bold" font-weight="bold" font-size="18.0" fill="#FBF567" transform="matrix(1.00, 0.00, -0.00, -1.00, 488.0, 50.0)">0</text><text xml:space="preserve" font-family="FiraMono-Bold" font-weight="bold" font-size="18.0" fill="#FBF567" transform="matrix(1.00, 0.00, -0.00, -1.00, 498.8, 50.0)">.</text><text xml:space="preserve" font-family="FiraMono-Bold" font-weight="bold" font-size="18.0" fill="#FBF567" transform="matrix(1.00, 0.00, -0.00, -1.00, 509.6, 50.0)">1</text><text xml:space="preserve" font-family="FiraMono-Regular" font-size="18.0" fill="#FEFFFF" transform="matrix(1.00, 0.00, -0.00, -1.00, 520.4, 50.0)">}</text><text xml:space="preserve" font-family="FiraMono-Regular" font-size="18.0" fill="#FEFFFF" transform="matrix(1.00, 0.00, -0.00, -1.00, 531.2, 50.0)">)</text><text xml:space="preserve" font-family="FiraMono-Regular" font-size="18.0" fill="#FEFFFF" transform="matrix(1.00, 0.00, -0.00, -1.00, 542.0, 50.0)">;</text><text xml:space="preserve" font-family="FiraMono-Regular" font-size="18.0" fill="#FEFFFF" transform="matrix(1.00, 0.00, -0.00, -1.00, 552.8, 50.0)"> </text><text xml:space="preserve" font-family="FiraMono-Regular" font-size="18.0" fill="#FEFFFF" transform="matrix(1.00, 0.00, -0.00, -1.00, 2.0, 28.0)"> </text><text xml:space="preserve" font-family="FiraMono-Regular" font-size="18.0" fill="#FEFFFF" transform="matrix(1.00, 0.00, -0.00, -1.00, 12.8, 28.0)"> </text><text xml:space="preserve" font-family="FiraMono-Regular" font-size="18.0" fill="#FEFFFF" transform="matrix(1.00, 0.00, -0.00, -1.00, 23.6, 28.0)">}</text><text xml:space="preserve" font-family="FiraMono-Regular" font-size="18.0" fill="#FEFFFF" transform="matrix(1.00, 0.00, -0.00, -1.00, 34.4, 28.0)"> </text><text xml:space="preserve" font-family="FiraMono-Regular" font-size="18.0" fill="#FEFFFF" transform="matrix(1.00, 0.00, -0.00, -1.00, 2.0, 6.0)">)</text><text xml:space="preserve" font-family="FiraMono-Regular" font-size="18.0" fill="#FEFFFF" transform="matrix(1.00, 0.00, -0.00, -1.00, 12.8, 6.0)">;</text></g></svg>