<?xml version="1.0" encoding="UTF-8" standalone="no"?><svg xmlns="http://www.w3.org/2000/svg" xmlns:xlink="http://www.w3.org/1999/xlink" clip-rule="evenodd" stroke-miterlimit="4.00" viewBox="0 0 1920 1080"><desc>SVG generated by Keynote</desc><defs></defs><g transform="matrix(1.00, 0.00, -0.00, -1.00, 0.0, 1080.0)"><path d="M 0.0 1080.0 L 1920.0 1080.0 L 1920.0 0.0 L 0.0 0.0 Z M 0.0 1080.0 " fill="#000000"></path><text xml:space="preserve" font-family="Helvetica-Light" font-size="112.0" fill="#FEFFFF" transform="matrix(1.00, 0.00, -0.00, -1.00, 266.0, 632.0)">A</text><text xml:space="preserve" font-family="Helvetica-Light" font-size="112.0" fill="#FEFFFF" transform="matrix(1.00, 0.00, -0.00, -1.00, 340.7, 632.0)"> </text><text xml:space="preserve" font-family="Helvetica-Light" font-size="112.0" fill="#FEFFFF" transform="matrix(1.00, 0.00, -0.00, -1.00, 371.8, 632.0)">J</text><text xml:space="preserve" font-family="Helvetica-Light" font-size="112.0" fill="#FEFFFF" transform="matrix(1.00, 0.00, -0.00, -1.00, 427.8, 632.0)">a</text><text xml:space="preserve" font-family="Helvetica-Light" font-size="112.0" fill="#FEFFFF" transform="matrix(1.00, 0.00, -0.00, -1.00, 490.1, 632.0)">v</text><text xml:space="preserve" font-family="Helvetica-Light" font-size="112.0" fill="#FEFFFF" transform="matrix(1.00, 0.00, -0.00, -1.00, 546.1, 632.0)">a</text><text xml:space="preserve" font-family="Helvetica-Light" font-size="112.0" fill="#FEFFFF" transform="matrix(1.00, 0.00, -0.00, -1.00, 608.4, 632.0)">S</text><text xml:space="preserve" font-family="Helvetica-Light" font-size="112.0" fill="#FEFFFF" transform="matrix(1.00, 0.00, -0.00, -1.00, 676.8, 632.0)">c</text><text xml:space="preserve" font-family="Helvetica-Light" font-size="112.0" fill="#FEFFFF" transform="matrix(1.00, 0.00, -0.00, -1.00, 739.1, 632.0)">r</text><text xml:space="preserve" font-family="Helvetica-Light" font-size="112.0" fill="#FEFFFF" transform="matrix(1.00, 0.00, -0.00, -1.00, 776.4, 632.0)">i</text><text xml:space="preserve" font-family="Helvetica-Light" font-size="112.0" fill="#FEFFFF" transform="matrix(1.00, 0.00, -0.00, -1.00, 801.2, 632.0)">p</text><text xml:space="preserve" font-family="Helvetica-Light" font-size="112.0" fill="#FEFFFF" transform="matrix(1.00, 0.00, -0.00, -1.00, 869.7, 632.0)">t</text><text xml:space="preserve" font-family="Helvetica-Light" font-size="112.0" fill="#FEFFFF" transform="matrix(1.00, 0.00, -0.00, -1.00, 900.8, 632.0)"> </text><text xml:space="preserve" font-family="Helvetica-Light" font-size="112.0" fill="#FEFFFF" transform="matrix(1.00, 0.00, -0.00, -1.00, 932.0, 632.0)">A</text><text xml:space="preserve" font-family="Helvetica-Light" font-size="112.0" fill="#FEFFFF" transform="matrix(1.00, 0.00, -0.00, -1.00, 1006.7, 632.0)">P</text><text xml:space="preserve" font-family="Helvetica-Light" font-size="112.0" fill="#FEFFFF" transform="matrix(1.00, 0.00, -0.00, -1.00, 1075.1, 632.0)">I</text><text xml:space="preserve" font-family="Helvetica-Light" font-size="112.0" fill="#FEFFFF" transform="matrix(1.00, 0.00, -0.00, -1.00, 1106.2, 632.0)"> </text><text xml:space="preserve" font-family="Helvetica-Light" font-size="112.0" fill="#FEFFFF" transform="matrix(1.00, 0.00, -0.00, -1.00, 1137.4, 632.0)">t</text><text xml:space="preserve" font-family="Helvetica-Light" font-size="112.0" fill="#FEFFFF" transform="matrix(1.00, 0.00, -0.00, -1.00, 1168.5, 632.0)">h</text><text xml:space="preserve" font-family="Helvetica-Light" font-size="112.0" fill="#FEFFFF" transform="matrix(1.00, 0.00, -0.00, -1.00, 1230.8, 632.0)">a</text><text xml:space="preserve" font-family="Helvetica-Light" font-size="112.0" fill="#FEFFFF" transform="matrix(1.00, 0.00, -0.00, -1.00, 1293.0, 632.0)">t</text><text xml:space="preserve" font-family="Helvetica-Light" font-size="112.0" fill="#FEFFFF" transform="matrix(1.00, 0.00, -0.00, -1.00, 1324.2, 632.0)"> </text><text xml:space="preserve" font-family="Helvetica-Light" font-size="112.0" fill="#FEFFFF" transform="matrix(1.00, 0.00, -0.00, -1.00, 1355.3, 632.0)">l</text><text xml:space="preserve" font-family="Helvetica-Light" font-size="112.0" fill="#FEFFFF" transform="matrix(1.00, 0.00, -0.00, -1.00, 1380.2, 632.0)">e</text><text xml:space="preserve" font-family="Helvetica-Light" font-size="112.0" fill="#FEFFFF" transform="matrix(1.00, 0.00, -0.00, -1.00, 1442.4, 632.0)">t</text><text xml:space="preserve" font-family="Helvetica-Light" font-size="112.0" fill="#FEFFFF" transform="matrix(1.00, 0.00, -0.00, -1.00, 1473.6, 632.0)">s</text><text xml:space="preserve" font-family="Helvetica-Light" font-size="112.0" fill="#FEFFFF" transform="matrix(1.00, 0.00, -0.00, -1.00, 1529.6, 632.0)"> </text><text xml:space="preserve" font-family="Helvetica-Light" font-size="112.0" fill="#FEFFFF" transform="matrix(1.00, 0.00, -0.00, -1.00, 1560.7, 632.0)">y</text><text xml:space="preserve" font-family="Helvetica-Light" font-size="112.0" fill="#FEFFFF" transform="matrix(1.00, 0.00, -0.00, -1.00, 1616.7, 632.0)">o</text><text xml:space="preserve" font-family="Helvetica-Light" font-size="112.0" fill="#FEFFFF" transform="matrix(1.00, 0.00, -0.00, -1.00, 1679.0, 632.0)">u</text><text xml:space="preserve" font-family="Helvetica-Light" font-size="112.0" fill="#FEFFFF" transform="matrix(1.00, 0.00, -0.00, -1.00, 1741.3, 632.0)"> </text><text xml:space="preserve" font-family="Helvetica-Light" font-size="112.0" fill="#FEFFFF" transform="matrix(1.00, 0.00, -0.00, -1.00, 363.0, 498.0)">e</text><text xml:space="preserve" font-family="Helvetica-Light" font-size="112.0" fill="#FEFFFF" transform="matrix(1.00, 0.00, -0.00, -1.00, 425.3, 498.0)">x</text><text xml:space="preserve" font-family="Helvetica-Light" font-size="112.0" fill="#FEFFFF" transform="matrix(1.00, 0.00, -0.00, -1.00, 481.3, 498.0)">p</text><text xml:space="preserve" font-family="Helvetica-Light" font-size="112.0" fill="#FEFFFF" transform="matrix(1.00, 0.00, -0.00, -1.00, 549.7, 498.0)">e</text><text xml:space="preserve" font-family="Helvetica-Light" font-size="112.0" fill="#FEFFFF" transform="matrix(1.00, 0.00, -0.00, -1.00, 612.0, 498.0)">r</text><text xml:space="preserve" font-family="Helvetica-Light" font-size="112.0" fill="#FEFFFF" transform="matrix(1.00, 0.00, -0.00, -1.00, 649.3, 498.0)">i</text><text xml:space="preserve" font-family="Helvetica-Light" font-size="112.0" fill="#FEFFFF" transform="matrix(1.00, 0.00, -0.00, -1.00, 674.1, 498.0)">e</text><text xml:space="preserve" font-family="Helvetica-Light" font-size="112.0" fill="#FEFFFF" transform="matrix(1.00, 0.00, -0.00, -1.00, 736.4, 498.0)">n</text><text xml:space="preserve" font-family="Helvetica-Light" font-size="112.0" fill="#FEFFFF" transform="matrix(1.00, 0.00, -0.00, -1.00, 798.7, 498.0)">c</text><text xml:space="preserve" font-family="Helvetica-Light" font-size="112.0" fill="#FEFFFF" transform="matrix(1.00, 0.00, -0.00, -1.00, 861.0, 498.0)">e</text><text xml:space="preserve" font-family="Helvetica-Light" font-size="112.0" fill="#FEFFFF" transform="matrix(1.00, 0.00, -0.00, -1.00, 923.2, 498.0)"> </text><text xml:space="preserve" font-family="Helvetica-Light" font-size="112.0" fill="#FEFFFF" transform="matrix(1.00, 0.00, -0.00, -1.00, 954.4, 498.0)">t</text><text xml:space="preserve" font-family="Helvetica-Light" font-size="112.0" fill="#FEFFFF" transform="matrix(1.00, 0.00, -0.00, -1.00, 985.5, 498.0)">h</text><text xml:space="preserve" font-family="Helvetica-Light" font-size="112.0" fill="#FEFFFF" transform="matrix(1.00, 0.00, -0.00, -1.00, 1047.8, 498.0)">e</text><text xml:space="preserve" font-family="Helvetica-Light" font-size="112.0" fill="#FEFFFF" transform="matrix(1.00, 0.00, -0.00, -1.00, 1110.0, 498.0)"> </text><text xml:space="preserve" font-family="Helvetica-Light" font-size="112.0" fill="#FEFFFF" transform="matrix(1.00, 0.00, -0.00, -1.00, 1141.2, 498.0)">w</text><text xml:space="preserve" font-family="Helvetica-Light" font-size="112.0" fill="#FEFFFF" transform="matrix(1.00, 0.00, -0.00, -1.00, 1222.0, 498.0)">e</text><text xml:space="preserve" font-family="Helvetica-Light" font-size="112.0" fill="#FEFFFF" transform="matrix(1.00, 0.00, -0.00, -1.00, 1284.3, 498.0)">b</text><text xml:space="preserve" font-family="Helvetica-Light" font-size="112.0" fill="#FEFFFF" transform="matrix(1.00, 0.00, -0.00, -1.00, 1352.7, 498.0)"> </text><text xml:space="preserve" font-family="Helvetica-Light" font-size="112.0" fill="#FEFFFF" transform="matrix(1.00, 0.00, -0.00, -1.00, 1383.9, 498.0)">i</text><text xml:space="preserve" font-family="Helvetica-Light" font-size="112.0" fill="#FEFFFF" transform="matrix(1.00, 0.00, -0.00, -1.00, 1408.7, 498.0)">n</text><text xml:space="preserve" font-family="Helvetica-Light" font-size="112.0" fill="#FEFFFF" transform="matrix(1.00, 0.00, -0.00, -1.00, 1471.0, 498.0)"> </text><text xml:space="preserve" font-family="Helvetica-Light" font-size="112.0" fill="#FEFFFF" transform="matrix(1.00, 0.00, -0.00, -1.00, 1502.2, 498.0)">V</text><text xml:space="preserve" font-family="Helvetica-Light" font-size="112.0" fill="#FEFFFF" transform="matrix(1.00, 0.00, -0.00, -1.00, 1570.6, 498.0)">R</text><text xml:space="preserve" font-family="Helvetica-Light" font-size="50.0" fill="#FE3772" transform="matrix(1.00, 0.00, -0.00, -1.00, 728.0, 92.0)">w</text><text xml:space="preserve" font-family="Helvetica-Light" font-size="50.0" fill="#FE3772" transform="matrix(1.00, 0.00, -0.00, -1.00, 764.1, 92.0)">3</text><text xml:space="preserve" font-family="Helvetica-Light" font-size="50.0" fill="#FE3772" transform="matrix(1.00, 0.00, -0.00, -1.00, 791.9, 92.0)">c</text><text xml:space="preserve" font-family="Helvetica-Light" font-size="50.0" fill="#FE3772" transform="matrix(1.00, 0.00, -0.00, -1.00, 819.7, 92.0)">.</text><text xml:space="preserve" font-family="Helvetica-Light" font-size="50.0" fill="#FE3772" transform="matrix(1.00, 0.00, -0.00, -1.00, 833.6, 92.0)">g</text><text xml:space="preserve" font-family="Helvetica-Light" font-size="50.0" fill="#FE3772" transform="matrix(1.00, 0.00, -0.00, -1.00, 864.1, 92.0)">i</text><text xml:space="preserve" font-family="Helvetica-Light" font-size="50.0" fill="#FE3772" transform="matrix(1.00, 0.00, -0.00, -1.00, 875.2, 92.0)">t</text><text xml:space="preserve" font-family="Helvetica-Light" font-size="50.0" fill="#FE3772" transform="matrix(1.00, 0.00, -0.00, -1.00, 889.1, 92.0)">h</text><text xml:space="preserve" font-family="Helvetica-Light" font-size="50.0" fill="#FE3772" transform="matrix(1.00, 0.00, -0.00, -1.00, 917.0, 92.0)">u</text><text xml:space="preserve" font-family="Helvetica-Light" font-size="50.0" fill="#FE3772" transform="matrix(1.00, 0.00, -0.00, -1.00, 944.8, 92.0)">b</text><text xml:space="preserve" font-family="Helvetica-Light" font-size="50.0" fill="#FE3772" transform="matrix(1.00, 0.00, -0.00, -1.00, 975.3, 92.0)">.</text><text xml:space="preserve" font-family="Helvetica-Light" font-size="50.0" fill="#FE3772" transform="matrix(1.00, 0.00, -0.00, -1.00, 989.2, 92.0)">i</text><text xml:space="preserve" font-family="Helvetica-Light" font-size="50.0" fill="#FE3772" transform="matrix(1.00, 0.00, -0.00, -1.00, 1000.3, 92.0)">o</text><text xml:space="preserve" font-family="Helvetica-Light" font-size="50.0" fill="#FE3772" transform="matrix(1.00, 0.00, -0.00, -1.00, 1028.1, 92.0)">/</text><text xml:space="preserve" font-family="Helvetica-Light" font-size="50.0" fill="#FE3772" transform="matrix(1.00, 0.00, -0.00, -1.00, 1042.0, 92.0)">w</text><text xml:space="preserve" font-family="Helvetica-Light" font-size="50.0" fill="#FE3772" transform="matrix(1.00, 0.00, -0.00, -1.00, 1078.1, 92.0)">e</text><text xml:space="preserve" font-family="Helvetica-Light" font-size="50.0" fill="#FE3772" transform="matrix(1.00, 0.00, -0.00, -1.00, 1105.9, 92.0)">b</text><text xml:space="preserve" font-family="Helvetica-Light" font-size="50.0" fill="#FE3772" transform="matrix(1.00, 0.00, -0.00, -1.00, 1136.5, 92.0)">v</text><text xml:space="preserve" font-family="Helvetica-Light" font-size="50.0" fill="#FE3772" transform="matrix(1.00, 0.00, -0.00, -1.00, 1161.5, 92.0)">r</text><text xml:space="preserve" font-family="Helvetica-Light" font-size="50.0" fill="#FE3772" transform="matrix(1.00, 0.00, -0.00, -1.00, 1178.1, 92.0)">/</text><g><clipPath id="clip-16"><path d="M 727.0 85.6 L 1192.0 85.6 L 1192.0 90.1 L 727.0 90.1 Z M 727.0 85.6 "></path></clipPath><g clip-path="url(#clip-16)"><path d="M 6.1 57.9 L 470.1 57.9 " fill="none" stroke="#FE3772" stroke-width="2.50" stroke-miterlimit="0.00" transform="matrix(1.00, 0.00, 0.00, -1.00, 721.9, 145.7)"></path></g></g></g></svg>