<?xml version="1.0" encoding="UTF-8" standalone="no"?><svg xmlns="http://www.w3.org/2000/svg" xmlns:xlink="http://www.w3.org/1999/xlink" clip-rule="evenodd" stroke-miterlimit="4.00" viewBox="0 0 1920 1080"><desc>SVG generated by Keynote</desc><defs></defs><g transform="matrix(1.00, 0.00, -0.00, -1.00, 0.0, 1080.0)"><path d="M 0.0 1080.0 L 1920.0 1080.0 L 1920.0 0.0 L 0.0 0.0 Z M 0.0 1080.0 " fill="#000000"></path><image xlink:href="2DA0B2BB998D0484A661DD91A34E7B20.png" width="960.00" height="540.00" transform="matrix(1.60, 0.00, -0.00, -1.60, 193.0, 1080.0)"></image><text xml:space="preserve" font-family="Helvetica" font-size="48.0" fill="#FEFFFF" transform="matrix(1.00, 0.00, -0.00, -1.00, 662.0, 134.0)">G</text><text xml:space="preserve" font-family="Helvetica" font-size="48.0" fill="#FEFFFF" transform="matrix(1.00, 0.00, -0.00, -1.00, 699.3, 134.0)">a</text><text xml:space="preserve" font-family="Helvetica" font-size="48.0" fill="#FEFFFF" transform="matrix(1.00, 0.00, -0.00, -1.00, 726.0, 134.0)">m</text><text xml:space="preserve" font-family="Helvetica" font-size="48.0" fill="#FEFFFF" transform="matrix(1.00, 0.00, -0.00, -1.00, 766.0, 134.0)">e</text><text xml:space="preserve" font-family="Helvetica" font-size="48.0" fill="#FEFFFF" transform="matrix(1.00, 0.00, -0.00, -1.00, 792.7, 134.0)"> </text><text xml:space="preserve" font-family="Helvetica" font-size="48.0" fill="#FEFFFF" transform="matrix(1.00, 0.00, -0.00, -1.00, 806.0, 134.0)">d</text><text xml:space="preserve" font-family="Helvetica" font-size="48.0" fill="#FEFFFF" transform="matrix(1.00, 0.00, -0.00, -1.00, 832.8, 134.0)">e</text><text xml:space="preserve" font-family="Helvetica" font-size="48.0" fill="#FEFFFF" transform="matrix(1.00, 0.00, -0.00, -1.00, 859.5, 134.0)">v</text><text xml:space="preserve" font-family="Helvetica" font-size="48.0" fill="#FEFFFF" transform="matrix(1.00, 0.00, -0.00, -1.00, 883.5, 134.0)">e</text><text xml:space="preserve" font-family="Helvetica" font-size="48.0" fill="#FEFFFF" transform="matrix(1.00, 0.00, -0.00, -1.00, 910.2, 134.0)">l</text><text xml:space="preserve" font-family="Helvetica" font-size="48.0" fill="#FEFFFF" transform="matrix(1.00, 0.00, -0.00, -1.00, 920.8, 134.0)">o</text><text xml:space="preserve" font-family="Helvetica" font-size="48.0" fill="#FEFFFF" transform="matrix(1.00, 0.00, -0.00, -1.00, 947.5, 134.0)">p</text><text xml:space="preserve" font-family="Helvetica" font-size="48.0" fill="#FEFFFF" transform="matrix(1.00, 0.00, -0.00, -1.00, 974.2, 134.0)">e</text><text xml:space="preserve" font-family="Helvetica" font-size="48.0" fill="#FEFFFF" transform="matrix(1.00, 0.00, -0.00, -1.00, 1001.0, 134.0)">d</text><text xml:space="preserve" font-family="Helvetica" font-size="48.0" fill="#FEFFFF" transform="matrix(1.00, 0.00, -0.00, -1.00, 1027.7, 134.0)"> </text><text xml:space="preserve" font-family="Helvetica" font-size="48.0" fill="#FEFFFF" transform="matrix(1.00, 0.00, -0.00, -1.00, 1041.0, 134.0)">w</text><text xml:space="preserve" font-family="Helvetica" font-size="48.0" fill="#FEFFFF" transform="matrix(1.00, 0.00, -0.00, -1.00, 1075.7, 134.0)">i</text><text xml:space="preserve" font-family="Helvetica" font-size="48.0" fill="#FEFFFF" transform="matrix(1.00, 0.00, -0.00, -1.00, 1086.3, 134.0)">t</text><text xml:space="preserve" font-family="Helvetica" font-size="48.0" fill="#FEFFFF" transform="matrix(1.00, 0.00, -0.00, -1.00, 1099.7, 134.0)">h</text><text xml:space="preserve" font-family="Helvetica" font-size="48.0" fill="#FEFFFF" transform="matrix(1.00, 0.00, -0.00, -1.00, 1126.4, 134.0)"> </text><text xml:space="preserve" font-family="Helvetica" font-size="48.0" fill="#FEFFFF" transform="matrix(1.00, 0.00, -0.00, -1.00, 1139.7, 134.0)">U</text><text xml:space="preserve" font-family="Helvetica" font-size="48.0" fill="#FEFFFF" transform="matrix(1.00, 0.00, -0.00, -1.00, 1174.4, 134.0)">n</text><text xml:space="preserve" font-family="Helvetica" font-size="48.0" fill="#FEFFFF" transform="matrix(1.00, 0.00, -0.00, -1.00, 1201.1, 134.0)">i</text><text xml:space="preserve" font-family="Helvetica" font-size="48.0" fill="#FEFFFF" transform="matrix(1.00, 0.00, -0.00, -1.00, 1211.7, 134.0)">t</text><text xml:space="preserve" font-family="Helvetica" font-size="48.0" fill="#FEFFFF" transform="matrix(1.00, 0.00, -0.00, -1.00, 1225.1, 134.0)">y</text><text xml:space="preserve" font-family="Helvetica" font-size="48.0" fill="#FEFFFF" transform="matrix(1.00, 0.00, -0.00, -1.00, 1245.5, 134.0)">,</text><text xml:space="preserve" font-family="Helvetica" font-size="48.0" fill="#FEFFFF" transform="matrix(1.00, 0.00, -0.00, -1.00, 1258.9, 134.0)"> </text><text xml:space="preserve" font-family="Helvetica" font-size="48.0" fill="#FEFFFF" transform="matrix(1.00, 0.00, -0.00, -1.00, 640.0, 76.0)">r</text><text xml:space="preserve" font-family="Helvetica" font-size="48.0" fill="#FEFFFF" transform="matrix(1.00, 0.00, -0.00, -1.00, 656.0, 76.0)">u</text><text xml:space="preserve" font-family="Helvetica" font-size="48.0" fill="#FEFFFF" transform="matrix(1.00, 0.00, -0.00, -1.00, 682.7, 76.0)">n</text><text xml:space="preserve" font-family="Helvetica" font-size="48.0" fill="#FEFFFF" transform="matrix(1.00, 0.00, -0.00, -1.00, 709.4, 76.0)">n</text><text xml:space="preserve" font-family="Helvetica" font-size="48.0" fill="#FEFFFF" transform="matrix(1.00, 0.00, -0.00, -1.00, 736.1, 76.0)">i</text><text xml:space="preserve" font-family="Helvetica" font-size="48.0" fill="#FEFFFF" transform="matrix(1.00, 0.00, -0.00, -1.00, 746.8, 76.0)">n</text><text xml:space="preserve" font-family="Helvetica" font-size="48.0" fill="#FEFFFF" transform="matrix(1.00, 0.00, -0.00, -1.00, 773.5, 76.0)">g</text><text xml:space="preserve" font-family="Helvetica" font-size="48.0" fill="#FEFFFF" transform="matrix(1.00, 0.00, -0.00, -1.00, 800.2, 76.0)"> </text><text xml:space="preserve" font-family="Helvetica" font-size="48.0" fill="#FEFFFF" transform="matrix(1.00, 0.00, -0.00, -1.00, 813.5, 76.0)">d</text><text xml:space="preserve" font-family="Helvetica" font-size="48.0" fill="#FEFFFF" transform="matrix(1.00, 0.00, -0.00, -1.00, 840.2, 76.0)">i</text><text xml:space="preserve" font-family="Helvetica" font-size="48.0" fill="#FEFFFF" transform="matrix(1.00, 0.00, -0.00, -1.00, 850.9, 76.0)">r</text><text xml:space="preserve" font-family="Helvetica" font-size="48.0" fill="#FEFFFF" transform="matrix(1.00, 0.00, -0.00, -1.00, 866.9, 76.0)">e</text><text xml:space="preserve" font-family="Helvetica" font-size="48.0" fill="#FEFFFF" transform="matrix(1.00, 0.00, -0.00, -1.00, 893.6, 76.0)">c</text><text xml:space="preserve" font-family="Helvetica" font-size="48.0" fill="#FEFFFF" transform="matrix(1.00, 0.00, -0.00, -1.00, 917.6, 76.0)">t</text><text xml:space="preserve" font-family="Helvetica" font-size="48.0" fill="#FEFFFF" transform="matrix(1.00, 0.00, -0.00, -1.00, 930.9, 76.0)">l</text><text xml:space="preserve" font-family="Helvetica" font-size="48.0" fill="#FEFFFF" transform="matrix(1.00, 0.00, -0.00, -1.00, 941.6, 76.0)">y</text><text xml:space="preserve" font-family="Helvetica" font-size="48.0" fill="#FEFFFF" transform="matrix(1.00, 0.00, -0.00, -1.00, 965.6, 76.0)"> </text><text xml:space="preserve" font-family="Helvetica" font-size="48.0" fill="#FEFFFF" transform="matrix(1.00, 0.00, -0.00, -1.00, 978.9, 76.0)">i</text><text xml:space="preserve" font-family="Helvetica" font-size="48.0" fill="#FEFFFF" transform="matrix(1.00, 0.00, -0.00, -1.00, 989.6, 76.0)">n</text><text xml:space="preserve" font-family="Helvetica" font-size="48.0" fill="#FEFFFF" transform="matrix(1.00, 0.00, -0.00, -1.00, 1016.3, 76.0)"> </text><text xml:space="preserve" font-family="Helvetica" font-size="48.0" fill="#FEFFFF" transform="matrix(1.00, 0.00, -0.00, -1.00, 1029.6, 76.0)">t</text><text xml:space="preserve" font-family="Helvetica" font-size="48.0" fill="#FEFFFF" transform="matrix(1.00, 0.00, -0.00, -1.00, 1042.9, 76.0)">h</text><text xml:space="preserve" font-family="Helvetica" font-size="48.0" fill="#FEFFFF" transform="matrix(1.00, 0.00, -0.00, -1.00, 1069.6, 76.0)">e</text><text xml:space="preserve" font-family="Helvetica" font-size="48.0" fill="#FEFFFF" transform="matrix(1.00, 0.00, -0.00, -1.00, 1096.3, 76.0)"> </text><text xml:space="preserve" font-family="Helvetica" font-size="48.0" fill="#FEFFFF" transform="matrix(1.00, 0.00, -0.00, -1.00, 1109.7, 76.0)">b</text><text xml:space="preserve" font-family="Helvetica" font-size="48.0" fill="#FEFFFF" transform="matrix(1.00, 0.00, -0.00, -1.00, 1136.4, 76.0)">r</text><text xml:space="preserve" font-family="Helvetica" font-size="48.0" fill="#FEFFFF" transform="matrix(1.00, 0.00, -0.00, -1.00, 1152.4, 76.0)">o</text><text xml:space="preserve" font-family="Helvetica" font-size="48.0" fill="#FEFFFF" transform="matrix(1.00, 0.00, -0.00, -1.00, 1179.1, 76.0)">w</text><text xml:space="preserve" font-family="Helvetica" font-size="48.0" fill="#FEFFFF" transform="matrix(1.00, 0.00, -0.00, -1.00, 1213.7, 76.0)">s</text><text xml:space="preserve" font-family="Helvetica" font-size="48.0" fill="#FEFFFF" transform="matrix(1.00, 0.00, -0.00, -1.00, 1237.7, 76.0)">e</text><text xml:space="preserve" font-family="Helvetica" font-size="48.0" fill="#FEFFFF" transform="matrix(1.00, 0.00, -0.00, -1.00, 1264.4, 76.0)">r</text></g></svg>