<?xml version="1.0" encoding="UTF-8" standalone="no"?><svg xmlns="http://www.w3.org/2000/svg" xmlns:xlink="http://www.w3.org/1999/xlink" clip-rule="evenodd" stroke-miterlimit="4.00" viewBox="0 0 1920 1080"><desc>SVG generated by Keynote</desc><defs></defs><g transform="matrix(1.00, 0.00, -0.00, -1.00, 0.0, 1080.0)"><path d="M 0.0 1080.0 L 1920.0 1080.0 L 1920.0 0.0 L 0.0 0.0 Z M 0.0 1080.0 " fill="#000000"></path><text xml:space="preserve" font-family="Helvetica-Bold" font-weight="bold" font-size="90.0" fill="#FEFFFF" transform="matrix(1.00, 0.00, -0.00, -1.00, 272.0, 852.0)">W</text><text xml:space="preserve" font-family="Helvetica-Bold" font-weight="bold" font-size="90.0" fill="#FEFFFF" transform="matrix(1.00, 0.00, -0.00, -1.00, 355.4, 852.0)">e</text><text xml:space="preserve" font-family="Helvetica-Bold" font-weight="bold" font-size="90.0" fill="#FEFFFF" transform="matrix(1.00, 0.00, -0.00, -1.00, 405.4, 852.0)">b</text><text xml:space="preserve" font-family="Helvetica-Bold" font-weight="bold" font-size="90.0" fill="#FEFFFF" transform="matrix(1.00, 0.00, -0.00, -1.00, 460.4, 852.0)">V</text><text xml:space="preserve" font-family="Helvetica-Bold" font-weight="bold" font-size="90.0" fill="#FEFFFF" transform="matrix(1.00, 0.00, -0.00, -1.00, 520.4, 852.0)">R</text><text xml:space="preserve" font-family="Helvetica-Bold" font-weight="bold" font-size="90.0" fill="#FEFFFF" transform="matrix(1.00, 0.00, -0.00, -1.00, 585.4, 852.0)"> </text><text xml:space="preserve" font-family="Helvetica-Bold" font-weight="bold" font-size="90.0" fill="#FEFFFF" transform="matrix(1.00, 0.00, -0.00, -1.00, 610.4, 852.0)">C</text><text xml:space="preserve" font-family="Helvetica-Bold" font-weight="bold" font-size="90.0" fill="#FEFFFF" transform="matrix(1.00, 0.00, -0.00, -1.00, 675.4, 852.0)">o</text><text xml:space="preserve" font-family="Helvetica-Bold" font-weight="bold" font-size="90.0" fill="#FEFFFF" transform="matrix(1.00, 0.00, -0.00, -1.00, 730.4, 852.0)">n</text><text xml:space="preserve" font-family="Helvetica-Bold" font-weight="bold" font-size="90.0" fill="#FEFFFF" transform="matrix(1.00, 0.00, -0.00, -1.00, 785.3, 852.0)">t</text><text xml:space="preserve" font-family="Helvetica-Bold" font-weight="bold" font-size="90.0" fill="#FEFFFF" transform="matrix(1.00, 0.00, -0.00, -1.00, 815.3, 852.0)">e</text><text xml:space="preserve" font-family="Helvetica-Bold" font-weight="bold" font-size="90.0" fill="#FEFFFF" transform="matrix(1.00, 0.00, -0.00, -1.00, 865.4, 852.0)">n</text><text xml:space="preserve" font-family="Helvetica-Bold" font-weight="bold" font-size="90.0" fill="#FEFFFF" transform="matrix(1.00, 0.00, -0.00, -1.00, 920.3, 852.0)">t</text><text xml:space="preserve" font-family="Helvetica-Bold" font-weight="bold" font-size="90.0" fill="#FEFFFF" transform="matrix(1.00, 0.00, -0.00, -1.00, 950.3, 852.0)"> </text><text xml:space="preserve" font-family="Helvetica-Bold" font-weight="bold" font-size="90.0" fill="#FEFFFF" transform="matrix(1.00, 0.00, -0.00, -1.00, 975.3, 852.0)">C</text><text xml:space="preserve" font-family="Helvetica-Bold" font-weight="bold" font-size="90.0" fill="#FEFFFF" transform="matrix(1.00, 0.00, -0.00, -1.00, 1040.3, 852.0)">r</text><text xml:space="preserve" font-family="Helvetica-Bold" font-weight="bold" font-size="90.0" fill="#FEFFFF" transform="matrix(1.00, 0.00, -0.00, -1.00, 1075.4, 852.0)">e</text><text xml:space="preserve" font-family="Helvetica-Bold" font-weight="bold" font-size="90.0" fill="#FEFFFF" transform="matrix(1.00, 0.00, -0.00, -1.00, 1125.4, 852.0)">a</text><text xml:space="preserve" font-family="Helvetica-Bold" font-weight="bold" font-size="90.0" fill="#FEFFFF" transform="matrix(1.00, 0.00, -0.00, -1.00, 1175.5, 852.0)">t</text><text xml:space="preserve" font-family="Helvetica-Bold" font-weight="bold" font-size="90.0" fill="#FEFFFF" transform="matrix(1.00, 0.00, -0.00, -1.00, 1205.5, 852.0)">i</text><text xml:space="preserve" font-family="Helvetica-Bold" font-weight="bold" font-size="90.0" fill="#FEFFFF" transform="matrix(1.00, 0.00, -0.00, -1.00, 1230.5, 852.0)">o</text><text xml:space="preserve" font-family="Helvetica-Bold" font-weight="bold" font-size="90.0" fill="#FEFFFF" transform="matrix(1.00, 0.00, -0.00, -1.00, 1285.4, 852.0)">n</text><text xml:space="preserve" font-family="Helvetica-Light" font-size="90.0" fill="#FEFFFF" transform="matrix(1.00, 0.00, -0.00, -1.00, 272.0, 636.0)">T</text><text xml:space="preserve" font-family="Helvetica-Light" font-size="90.0" fill="#FEFFFF" transform="matrix(1.00, 0.00, -0.00, -1.00, 322.0, 636.0)">h</text><text xml:space="preserve" font-family="Helvetica-Light" font-size="90.0" fill="#FEFFFF" transform="matrix(1.00, 0.00, -0.00, -1.00, 372.1, 636.0)">r</text><text xml:space="preserve" font-family="Helvetica-Light" font-size="90.0" fill="#FEFFFF" transform="matrix(1.00, 0.00, -0.00, -1.00, 400.4, 636.0)">e</text><text xml:space="preserve" font-family="Helvetica-Light" font-size="90.0" fill="#FEFFFF" transform="matrix(1.00, 0.00, -0.00, -1.00, 450.5, 636.0)">e</text><text xml:space="preserve" font-family="Helvetica-Light" font-size="90.0" fill="#FEFFFF" transform="matrix(1.00, 0.00, -0.00, -1.00, 500.5, 636.0)">.</text><text xml:space="preserve" font-family="Helvetica-Light" font-size="90.0" fill="#FEFFFF" transform="matrix(1.00, 0.00, -0.00, -1.00, 525.5, 636.0)">j</text><text xml:space="preserve" font-family="Helvetica-Light" font-size="90.0" fill="#FEFFFF" transform="matrix(1.00, 0.00, -0.00, -1.00, 545.5, 636.0)">s</text><text xml:space="preserve" font-family="Helvetica-Light" font-size="90.0" fill="#FEFFFF" transform="matrix(1.00, 0.00, -0.00, -1.00, 590.5, 636.0)"> </text><text xml:space="preserve" font-family="Helvetica-Light" font-size="70.0" fill="#FE3772" transform="matrix(1.00, 0.00, -0.00, -1.00, 272.0, 547.0)">t</text><text xml:space="preserve" font-family="Helvetica-Light" font-size="70.0" fill="#FE3772" transform="matrix(1.00, 0.00, -0.00, -1.00, 291.5, 547.0)">h</text><text xml:space="preserve" font-family="Helvetica-Light" font-size="70.0" fill="#FE3772" transform="matrix(1.00, 0.00, -0.00, -1.00, 330.4, 547.0)">r</text><text xml:space="preserve" font-family="Helvetica-Light" font-size="70.0" fill="#FE3772" transform="matrix(1.00, 0.00, -0.00, -1.00, 352.4, 547.0)">e</text><text xml:space="preserve" font-family="Helvetica-Light" font-size="70.0" fill="#FE3772" transform="matrix(1.00, 0.00, -0.00, -1.00, 391.4, 547.0)">e</text><text xml:space="preserve" font-family="Helvetica-Light" font-size="70.0" fill="#FE3772" transform="matrix(1.00, 0.00, -0.00, -1.00, 430.3, 547.0)">j</text><text xml:space="preserve" font-family="Helvetica-Light" font-size="70.0" fill="#FE3772" transform="matrix(1.00, 0.00, -0.00, -1.00, 445.8, 547.0)">s</text><text xml:space="preserve" font-family="Helvetica-Light" font-size="70.0" fill="#FE3772" transform="matrix(1.00, 0.00, -0.00, -1.00, 480.8, 547.0)">.</text><text xml:space="preserve" font-family="Helvetica-Light" font-size="70.0" fill="#FE3772" transform="matrix(1.00, 0.00, -0.00, -1.00, 500.3, 547.0)">o</text><text xml:space="preserve" font-family="Helvetica-Light" font-size="70.0" fill="#FE3772" transform="matrix(1.00, 0.00, -0.00, -1.00, 539.2, 547.0)">r</text><text xml:space="preserve" font-family="Helvetica-Light" font-size="70.0" fill="#FE3772" transform="matrix(1.00, 0.00, -0.00, -1.00, 562.5, 547.0)">g</text><text xml:space="preserve" font-family="Helvetica-Light" font-size="70.0" fill="#FE3772" transform="matrix(1.00, 0.00, -0.00, -1.00, 605.3, 547.0)"> </text><g><clipPath id="clip-73"><path d="M 271.3 539.0 L 605.6 539.0 L 605.6 544.5 L 271.3 544.5 Z M 271.3 539.0 "></path></clipPath><g clip-path="url(#clip-73)"><path d="M 5.6 402.8 L 338.9 402.8 " fill="none" stroke="#FE3772" stroke-width="3.50" stroke-miterlimit="0.00" transform="matrix(1.00, 0.00, 0.00, -1.00, 266.7, 944.5)"></path></g></g><text xml:space="preserve" font-family="Helvetica-Light" font-size="90.0" fill="#FEFFFF" transform="matrix(1.00, 0.00, -0.00, -1.00, 272.0, 360.0)">U</text><text xml:space="preserve" font-family="Helvetica-Light" font-size="90.0" fill="#FEFFFF" transform="matrix(1.00, 0.00, -0.00, -1.00, 337.0, 360.0)">n</text><text xml:space="preserve" font-family="Helvetica-Light" font-size="90.0" fill="#FEFFFF" transform="matrix(1.00, 0.00, -0.00, -1.00, 387.0, 360.0)">i</text><text xml:space="preserve" font-family="Helvetica-Light" font-size="90.0" fill="#FEFFFF" transform="matrix(1.00, 0.00, -0.00, -1.00, 407.0, 360.0)">t</text><text xml:space="preserve" font-family="Helvetica-Light" font-size="90.0" fill="#FEFFFF" transform="matrix(1.00, 0.00, -0.00, -1.00, 432.0, 360.0)">y</text><text xml:space="preserve" font-family="Helvetica-Light" font-size="90.0" fill="#FEFFFF" transform="matrix(1.00, 0.00, -0.00, -1.00, 477.0, 360.0)"> </text><text xml:space="preserve" font-family="Helvetica-Light" font-size="70.0" fill="#FE3772" transform="matrix(1.00, 0.00, -0.00, -1.00, 272.0, 271.0)">w</text><text xml:space="preserve" font-family="Helvetica-Light" font-size="70.0" fill="#FE3772" transform="matrix(1.00, 0.00, -0.00, -1.00, 322.5, 271.0)">3</text><text xml:space="preserve" font-family="Helvetica-Light" font-size="70.0" fill="#FE3772" transform="matrix(1.00, 0.00, -0.00, -1.00, 361.5, 271.0)">c</text><text xml:space="preserve" font-family="Helvetica-Light" font-size="70.0" fill="#FE3772" transform="matrix(1.00, 0.00, -0.00, -1.00, 400.4, 271.0)">.</text><text xml:space="preserve" font-family="Helvetica-Light" font-size="70.0" fill="#FE3772" transform="matrix(1.00, 0.00, -0.00, -1.00, 419.8, 271.0)">g</text><text xml:space="preserve" font-family="Helvetica-Light" font-size="70.0" fill="#FE3772" transform="matrix(1.00, 0.00, -0.00, -1.00, 462.6, 271.0)">i</text><text xml:space="preserve" font-family="Helvetica-Light" font-size="70.0" fill="#FE3772" transform="matrix(1.00, 0.00, -0.00, -1.00, 478.1, 271.0)">t</text><text xml:space="preserve" font-family="Helvetica-Light" font-size="70.0" fill="#FE3772" transform="matrix(1.00, 0.00, -0.00, -1.00, 497.6, 271.0)">h</text><text xml:space="preserve" font-family="Helvetica-Light" font-size="70.0" fill="#FE3772" transform="matrix(1.00, 0.00, -0.00, -1.00, 536.5, 271.0)">u</text><text xml:space="preserve" font-family="Helvetica-Light" font-size="70.0" fill="#FE3772" transform="matrix(1.00, 0.00, -0.00, -1.00, 575.5, 271.0)">b</text><text xml:space="preserve" font-family="Helvetica-Light" font-size="70.0" fill="#FE3772" transform="matrix(1.00, 0.00, -0.00, -1.00, 618.2, 271.0)">.</text><text xml:space="preserve" font-family="Helvetica-Light" font-size="70.0" fill="#FE3772" transform="matrix(1.00, 0.00, -0.00, -1.00, 637.7, 271.0)">i</text><text xml:space="preserve" font-family="Helvetica-Light" font-size="70.0" fill="#FE3772" transform="matrix(1.00, 0.00, -0.00, -1.00, 653.2, 271.0)">o</text><text xml:space="preserve" font-family="Helvetica-Light" font-size="70.0" fill="#FE3772" transform="matrix(1.00, 0.00, -0.00, -1.00, 692.1, 271.0)">/</text><text xml:space="preserve" font-family="Helvetica-Light" font-size="70.0" fill="#FE3772" transform="matrix(1.00, 0.00, -0.00, -1.00, 711.6, 271.0)">w</text><text xml:space="preserve" font-family="Helvetica-Light" font-size="70.0" fill="#FE3772" transform="matrix(1.00, 0.00, -0.00, -1.00, 762.1, 271.0)">e</text><text xml:space="preserve" font-family="Helvetica-Light" font-size="70.0" fill="#FE3772" transform="matrix(1.00, 0.00, -0.00, -1.00, 801.1, 271.0)">b</text><text xml:space="preserve" font-family="Helvetica-Light" font-size="70.0" fill="#FE3772" transform="matrix(1.00, 0.00, -0.00, -1.00, 843.8, 271.0)">v</text><text xml:space="preserve" font-family="Helvetica-Light" font-size="70.0" fill="#FE3772" transform="matrix(1.00, 0.00, -0.00, -1.00, 878.8, 271.0)">r</text><g><clipPath id="clip-74"><path d="M 271.3 263.0 L 902.5 263.0 L 902.5 268.5 L 271.3 268.5 Z M 271.3 263.0 "></path></clipPath><g clip-path="url(#clip-74)"><path d="M 5.6 678.8 L 635.8 678.8 " fill="none" stroke="#FE3772" stroke-width="3.50" stroke-miterlimit="0.00" transform="matrix(1.00, 0.00, 0.00, -1.00, 266.7, 944.5)"></path></g></g><image xlink:href="../../3AB0FEDA-495B-4C3B-A1DC-94D7E89BD76B/assets/2BF556CD1DFBDDBA4A8DE3E83DE2DF6F.png" width="236.00" height="213.00" transform="matrix(1.26, 0.00, -0.00, -1.26, 986.0, 762.0)"></image><text xml:space="preserve" font-family="Helvetica-Light" font-size="90.0" fill="#FEFFFF" transform="matrix(1.00, 0.00, -0.00, -1.00, 1374.0, 637.0)">A</text><text xml:space="preserve" font-family="Helvetica-Light" font-size="90.0" fill="#FEFFFF" transform="matrix(1.00, 0.00, -0.00, -1.00, 1434.0, 637.0)">-</text><text xml:space="preserve" font-family="Helvetica-Light" font-size="90.0" fill="#FEFFFF" transform="matrix(1.00, 0.00, -0.00, -1.00, 1464.0, 637.0)">F</text><text xml:space="preserve" font-family="Helvetica-Light" font-size="90.0" fill="#FEFFFF" transform="matrix(1.00, 0.00, -0.00, -1.00, 1514.0, 637.0)">r</text><text xml:space="preserve" font-family="Helvetica-Light" font-size="90.0" fill="#FEFFFF" transform="matrix(1.00, 0.00, -0.00, -1.00, 1544.0, 637.0)">a</text><text xml:space="preserve" font-family="Helvetica-Light" font-size="90.0" fill="#FEFFFF" transform="matrix(1.00, 0.00, -0.00, -1.00, 1594.0, 637.0)">m</text><text xml:space="preserve" font-family="Helvetica-Light" font-size="90.0" fill="#FEFFFF" transform="matrix(1.00, 0.00, -0.00, -1.00, 1669.0, 637.0)">e</text><text xml:space="preserve" font-family="Helvetica-Light" font-size="90.0" fill="#FEFFFF" transform="matrix(1.00, 0.00, -0.00, -1.00, 1719.1, 637.0)"> </text><text xml:space="preserve" font-family="Helvetica-Light" font-size="70.0" fill="#FE3772" transform="matrix(1.00, 0.00, -0.00, -1.00, 1374.0, 548.0)">a</text><text xml:space="preserve" font-family="Helvetica-Light" font-size="70.0" fill="#FE3772" transform="matrix(1.00, 0.00, -0.00, -1.00, 1412.9, 548.0)">f</text><text xml:space="preserve" font-family="Helvetica-Light" font-size="70.0" fill="#FE3772" transform="matrix(1.00, 0.00, -0.00, -1.00, 1432.4, 548.0)">r</text><text xml:space="preserve" font-family="Helvetica-Light" font-size="70.0" fill="#FE3772" transform="matrix(1.00, 0.00, -0.00, -1.00, 1455.7, 548.0)">a</text><text xml:space="preserve" font-family="Helvetica-Light" font-size="70.0" fill="#FE3772" transform="matrix(1.00, 0.00, -0.00, -1.00, 1494.6, 548.0)">m</text><text xml:space="preserve" font-family="Helvetica-Light" font-size="70.0" fill="#FE3772" transform="matrix(1.00, 0.00, -0.00, -1.00, 1552.9, 548.0)">e</text><text xml:space="preserve" font-family="Helvetica-Light" font-size="70.0" fill="#FE3772" transform="matrix(1.00, 0.00, -0.00, -1.00, 1591.8, 548.0)">.</text><text xml:space="preserve" font-family="Helvetica-Light" font-size="70.0" fill="#FE3772" transform="matrix(1.00, 0.00, -0.00, -1.00, 1611.3, 548.0)">i</text><text xml:space="preserve" font-family="Helvetica-Light" font-size="70.0" fill="#FE3772" transform="matrix(1.00, 0.00, -0.00, -1.00, 1626.8, 548.0)">o</text><g><clipPath id="clip-75"><path d="M 1372.8 540.1 L 1665.6 540.1 L 1665.6 545.6 L 1372.8 545.6 Z M 1372.8 540.1 "></path></clipPath><g clip-path="url(#clip-75)"><path d="M 5.6 186.8 L 297.4 186.8 " fill="none" stroke="#FE3772" stroke-width="3.50" stroke-miterlimit="0.00" transform="matrix(1.00, 0.00, 0.00, -1.00, 1368.2, 729.6)"></path></g></g></g></svg>