<?xml version="1.0" encoding="UTF-8" standalone="no"?><svg xmlns="http://www.w3.org/2000/svg" xmlns:xlink="http://www.w3.org/1999/xlink" clip-rule="evenodd" stroke-miterlimit="4.00" viewBox="0 0 1920 1080"><desc>SVG generated by Keynote</desc><defs></defs><g transform="matrix(1.00, 0.00, -0.00, -1.00, 0.0, 1080.0)"><path d="M 0.0 1080.0 L 1920.0 1080.0 L 1920.0 0.0 L 0.0 0.0 Z M 0.0 1080.0 " fill="#000000"></path><text xml:space="preserve" font-family="FiraMono-Medium" font-size="35.0" fill="#A6AAA8" transform="matrix(1.00, 0.00, -0.00, -1.00, 161.0, 632.0)">&lt;</text><text xml:space="preserve" font-family="FiraMono-Medium" font-size="35.0" fill="#A6AAA8" transform="matrix(1.00, 0.00, -0.00, -1.00, 182.0, 632.0)">h</text><text xml:space="preserve" font-family="FiraMono-Medium" font-size="35.0" fill="#A6AAA8" transform="matrix(1.00, 0.00, -0.00, -1.00, 203.0, 632.0)">t</text><text xml:space="preserve" font-family="FiraMono-Medium" font-size="35.0" fill="#A6AAA8" transform="matrix(1.00, 0.00, -0.00, -1.00, 224.0, 632.0)">m</text><text xml:space="preserve" font-family="FiraMono-Medium" font-size="35.0" fill="#A6AAA8" transform="matrix(1.00, 0.00, -0.00, -1.00, 245.0, 632.0)">l</text><text xml:space="preserve" font-family="FiraMono-Medium" font-size="35.0" fill="#A6AAA8" transform="matrix(1.00, 0.00, -0.00, -1.00, 266.0, 632.0)">&gt;</text><text xml:space="preserve" font-family="FiraMono-Medium" font-size="35.0" fill="#A6AAA8" transform="matrix(1.00, 0.00, -0.00, -1.00, 287.0, 632.0)"> </text><text xml:space="preserve" font-family="FiraMono-Medium" font-size="35.0" fill="#A6AAA8" transform="matrix(1.00, 0.00, -0.00, -1.00, 161.0, 590.0)"> </text><text xml:space="preserve" font-family="FiraMono-Medium" font-size="35.0" fill="#A6AAA8" transform="matrix(1.00, 0.00, -0.00, -1.00, 182.0, 590.0)"> </text><text xml:space="preserve" font-family="FiraMono-Medium" font-size="35.0" fill="#A6AAA8" transform="matrix(1.00, 0.00, -0.00, -1.00, 203.0, 590.0)">&lt;</text><text xml:space="preserve" font-family="FiraMono-Medium" font-size="35.0" fill="#A6AAA8" transform="matrix(1.00, 0.00, -0.00, -1.00, 224.0, 590.0)">h</text><text xml:space="preserve" font-family="FiraMono-Medium" font-size="35.0" fill="#A6AAA8" transform="matrix(1.00, 0.00, -0.00, -1.00, 245.0, 590.0)">e</text><text xml:space="preserve" font-family="FiraMono-Medium" font-size="35.0" fill="#A6AAA8" transform="matrix(1.00, 0.00, -0.00, -1.00, 266.0, 590.0)">a</text><text xml:space="preserve" font-family="FiraMono-Medium" font-size="35.0" fill="#A6AAA8" transform="matrix(1.00, 0.00, -0.00, -1.00, 287.0, 590.0)">d</text><text xml:space="preserve" font-family="FiraMono-Medium" font-size="35.0" fill="#A6AAA8" transform="matrix(1.00, 0.00, -0.00, -1.00, 308.0, 590.0)">&gt;</text><text xml:space="preserve" font-family="FiraMono-Medium" font-size="35.0" fill="#A6AAA8" transform="matrix(1.00, 0.00, -0.00, -1.00, 329.0, 590.0)"> </text><text xml:space="preserve" font-family="FiraMono-Bold" font-weight="bold" font-size="35.0" fill="#A6AAA8" transform="matrix(1.00, 0.00, -0.00, -1.00, 161.0, 540.0)"> </text><text xml:space="preserve" font-family="FiraMono-Bold" font-weight="bold" font-size="35.0" fill="#A6AAA8" transform="matrix(1.00, 0.00, -0.00, -1.00, 182.0, 540.0)"> </text><text xml:space="preserve" font-family="FiraMono-Bold" font-weight="bold" font-size="35.0" fill="#A6AAA8" transform="matrix(1.00, 0.00, -0.00, -1.00, 203.0, 540.0)"> </text><text xml:space="preserve" font-family="FiraMono-Bold" font-weight="bold" font-size="35.0" fill="#A6AAA8" transform="matrix(1.00, 0.00, -0.00, -1.00, 224.0, 540.0)"> </text><text xml:space="preserve" font-family="FiraMono-Bold" font-weight="bold" font-size="35.0" fill="#FEFFFE" transform="matrix(1.00, 0.00, -0.00, -1.00, 245.0, 540.0)">&lt;</text><text xml:space="preserve" font-family="FiraMono-Bold" font-weight="bold" font-size="35.0" fill="#10DAE2" transform="matrix(1.00, 0.00, -0.00, -1.00, 266.0, 540.0)">s</text><text xml:space="preserve" font-family="FiraMono-Bold" font-weight="bold" font-size="35.0" fill="#10DAE2" transform="matrix(1.00, 0.00, -0.00, -1.00, 287.0, 540.0)">c</text><text xml:space="preserve" font-family="FiraMono-Bold" font-weight="bold" font-size="35.0" fill="#10DAE2" transform="matrix(1.00, 0.00, -0.00, -1.00, 308.0, 540.0)">r</text><text xml:space="preserve" font-family="FiraMono-Bold" font-weight="bold" font-size="35.0" fill="#10DAE2" transform="matrix(1.00, 0.00, -0.00, -1.00, 329.0, 540.0)">i</text><text xml:space="preserve" font-family="FiraMono-Bold" font-weight="bold" font-size="35.0" fill="#10DAE2" transform="matrix(1.00, 0.00, -0.00, -1.00, 350.0, 540.0)">p</text><text xml:space="preserve" font-family="FiraMono-Bold" font-weight="bold" font-size="35.0" fill="#10DAE2" transform="matrix(1.00, 0.00, -0.00, -1.00, 371.0, 540.0)">t</text><text xml:space="preserve" font-family="FiraMono-Bold" font-weight="bold" font-size="35.0" fill="#FEFFFE" transform="matrix(1.00, 0.00, -0.00, -1.00, 392.0, 540.0)"> </text><text xml:space="preserve" font-family="FiraMono-Bold" font-weight="bold" font-size="35.0" fill="#FEFFFE" transform="matrix(1.00, 0.00, -0.00, -1.00, 413.0, 540.0)">s</text><text xml:space="preserve" font-family="FiraMono-Bold" font-weight="bold" font-size="35.0" fill="#FEFFFE" transform="matrix(1.00, 0.00, -0.00, -1.00, 434.0, 540.0)">r</text><text xml:space="preserve" font-family="FiraMono-Bold" font-weight="bold" font-size="35.0" fill="#FEFFFE" transform="matrix(1.00, 0.00, -0.00, -1.00, 455.0, 540.0)">c</text><text xml:space="preserve" font-family="FiraMono-Bold" font-weight="bold" font-size="35.0" fill="#FEFFFE" transform="matrix(1.00, 0.00, -0.00, -1.00, 476.0, 540.0)">=</text><text xml:space="preserve" font-family="FiraMono-Bold" font-weight="bold" font-size="35.0" fill="#FEFFFE" transform="matrix(1.00, 0.00, -0.00, -1.00, 497.0, 540.0)">"</text><text xml:space="preserve" font-family="FiraMono-Bold" font-weight="bold" font-size="35.0" fill="#FEFFFE" transform="matrix(1.00, 0.00, -0.00, -1.00, 518.0, 540.0)">h</text><text xml:space="preserve" font-family="FiraMono-Bold" font-weight="bold" font-size="35.0" fill="#FEFFFE" transform="matrix(1.00, 0.00, -0.00, -1.00, 539.0, 540.0)">t</text><text xml:space="preserve" font-family="FiraMono-Bold" font-weight="bold" font-size="35.0" fill="#FEFFFE" transform="matrix(1.00, 0.00, -0.00, -1.00, 560.0, 540.0)">t</text><text xml:space="preserve" font-family="FiraMono-Bold" font-weight="bold" font-size="35.0" fill="#FEFFFE" transform="matrix(1.00, 0.00, -0.00, -1.00, 581.0, 540.0)">p</text><text xml:space="preserve" font-family="FiraMono-Bold" font-weight="bold" font-size="35.0" fill="#FEFFFE" transform="matrix(1.00, 0.00, -0.00, -1.00, 602.0, 540.0)">s</text><text xml:space="preserve" font-family="FiraMono-Bold" font-weight="bold" font-size="35.0" fill="#FEFFFE" transform="matrix(1.00, 0.00, -0.00, -1.00, 623.0, 540.0)">:</text><text xml:space="preserve" font-family="FiraMono-Bold" font-weight="bold" font-size="35.0" fill="#FEFFFE" transform="matrix(1.00, 0.00, -0.00, -1.00, 644.0, 540.0)">/</text><text xml:space="preserve" font-family="FiraMono-Bold" font-weight="bold" font-size="35.0" fill="#FEFFFE" transform="matrix(1.00, 0.00, -0.00, -1.00, 665.0, 540.0)">/</text><text xml:space="preserve" font-family="FiraMono-Bold" font-weight="bold" font-size="35.0" fill="#FEFFFE" transform="matrix(1.00, 0.00, -0.00, -1.00, 686.0, 540.0)">a</text><text xml:space="preserve" font-family="FiraMono-Bold" font-weight="bold" font-size="35.0" fill="#FEFFFE" transform="matrix(1.00, 0.00, -0.00, -1.00, 707.0, 540.0)">f</text><text xml:space="preserve" font-family="FiraMono-Bold" font-weight="bold" font-size="35.0" fill="#FEFFFE" transform="matrix(1.00, 0.00, -0.00, -1.00, 728.0, 540.0)">r</text><text xml:space="preserve" font-family="FiraMono-Bold" font-weight="bold" font-size="35.0" fill="#FEFFFE" transform="matrix(1.00, 0.00, -0.00, -1.00, 749.0, 540.0)">a</text><text xml:space="preserve" font-family="FiraMono-Bold" font-weight="bold" font-size="35.0" fill="#FEFFFE" transform="matrix(1.00, 0.00, -0.00, -1.00, 770.0, 540.0)">m</text><text xml:space="preserve" font-family="FiraMono-Bold" font-weight="bold" font-size="35.0" fill="#FEFFFE" transform="matrix(1.00, 0.00, -0.00, -1.00, 791.0, 540.0)">e</text><text xml:space="preserve" font-family="FiraMono-Bold" font-weight="bold" font-size="35.0" fill="#FEFFFE" transform="matrix(1.00, 0.00, -0.00, -1.00, 812.0, 540.0)">.</text><text xml:space="preserve" font-family="FiraMono-Bold" font-weight="bold" font-size="35.0" fill="#FEFFFE" transform="matrix(1.00, 0.00, -0.00, -1.00, 833.0, 540.0)">i</text><text xml:space="preserve" font-family="FiraMono-Bold" font-weight="bold" font-size="35.0" fill="#FEFFFE" transform="matrix(1.00, 0.00, -0.00, -1.00, 854.0, 540.0)">o</text><text xml:space="preserve" font-family="FiraMono-Bold" font-weight="bold" font-size="35.0" fill="#FEFFFE" transform="matrix(1.00, 0.00, -0.00, -1.00, 875.0, 540.0)">/</text><text xml:space="preserve" font-family="FiraMono-Bold" font-weight="bold" font-size="35.0" fill="#FEFFFE" transform="matrix(1.00, 0.00, -0.00, -1.00, 896.0, 540.0)">r</text><text xml:space="preserve" font-family="FiraMono-Bold" font-weight="bold" font-size="35.0" fill="#FEFFFE" transform="matrix(1.00, 0.00, -0.00, -1.00, 917.0, 540.0)">e</text><text xml:space="preserve" font-family="FiraMono-Bold" font-weight="bold" font-size="35.0" fill="#FEFFFE" transform="matrix(1.00, 0.00, -0.00, -1.00, 938.0, 540.0)">l</text><text xml:space="preserve" font-family="FiraMono-Bold" font-weight="bold" font-size="35.0" fill="#FEFFFE" transform="matrix(1.00, 0.00, -0.00, -1.00, 959.0, 540.0)">e</text><text xml:space="preserve" font-family="FiraMono-Bold" font-weight="bold" font-size="35.0" fill="#FEFFFE" transform="matrix(1.00, 0.00, -0.00, -1.00, 980.0, 540.0)">a</text><text xml:space="preserve" font-family="FiraMono-Bold" font-weight="bold" font-size="35.0" fill="#FEFFFE" transform="matrix(1.00, 0.00, -0.00, -1.00, 1001.0, 540.0)">s</text><text xml:space="preserve" font-family="FiraMono-Bold" font-weight="bold" font-size="35.0" fill="#FEFFFE" transform="matrix(1.00, 0.00, -0.00, -1.00, 1022.0, 540.0)">e</text><text xml:space="preserve" font-family="FiraMono-Bold" font-weight="bold" font-size="35.0" fill="#FEFFFE" transform="matrix(1.00, 0.00, -0.00, -1.00, 1043.0, 540.0)">s</text><text xml:space="preserve" font-family="FiraMono-Bold" font-weight="bold" font-size="35.0" fill="#FEFFFE" transform="matrix(1.00, 0.00, -0.00, -1.00, 1064.0, 540.0)">/</text><text xml:space="preserve" font-family="FiraMono-Bold" font-weight="bold" font-size="35.0" fill="#FEFFFE" transform="matrix(1.00, 0.00, -0.00, -1.00, 1085.0, 540.0)">0</text><text xml:space="preserve" font-family="FiraMono-Bold" font-weight="bold" font-size="35.0" fill="#FEFFFE" transform="matrix(1.00, 0.00, -0.00, -1.00, 1106.0, 540.0)">.</text><text xml:space="preserve" font-family="FiraMono-Bold" font-weight="bold" font-size="35.0" fill="#FEFFFE" transform="matrix(1.00, 0.00, -0.00, -1.00, 1127.0, 540.0)">3</text><text xml:space="preserve" font-family="FiraMono-Bold" font-weight="bold" font-size="35.0" fill="#FEFFFE" transform="matrix(1.00, 0.00, -0.00, -1.00, 1148.0, 540.0)">.</text><text xml:space="preserve" font-family="FiraMono-Bold" font-weight="bold" font-size="35.0" fill="#FEFFFE" transform="matrix(1.00, 0.00, -0.00, -1.00, 1169.0, 540.0)">2</text><text xml:space="preserve" font-family="FiraMono-Bold" font-weight="bold" font-size="35.0" fill="#FEFFFE" transform="matrix(1.00, 0.00, -0.00, -1.00, 1190.0, 540.0)">/</text><text xml:space="preserve" font-family="FiraMono-Bold" font-weight="bold" font-size="35.0" fill="#FEFFFE" transform="matrix(1.00, 0.00, -0.00, -1.00, 1211.0, 540.0)">a</text><text xml:space="preserve" font-family="FiraMono-Bold" font-weight="bold" font-size="35.0" fill="#FEFFFE" transform="matrix(1.00, 0.00, -0.00, -1.00, 1232.0, 540.0)">f</text><text xml:space="preserve" font-family="FiraMono-Bold" font-weight="bold" font-size="35.0" fill="#FEFFFE" transform="matrix(1.00, 0.00, -0.00, -1.00, 1253.0, 540.0)">r</text><text xml:space="preserve" font-family="FiraMono-Bold" font-weight="bold" font-size="35.0" fill="#FEFFFE" transform="matrix(1.00, 0.00, -0.00, -1.00, 1274.0, 540.0)">a</text><text xml:space="preserve" font-family="FiraMono-Bold" font-weight="bold" font-size="35.0" fill="#FEFFFE" transform="matrix(1.00, 0.00, -0.00, -1.00, 1295.0, 540.0)">m</text><text xml:space="preserve" font-family="FiraMono-Bold" font-weight="bold" font-size="35.0" fill="#FEFFFE" transform="matrix(1.00, 0.00, -0.00, -1.00, 1316.0, 540.0)">e</text><text xml:space="preserve" font-family="FiraMono-Bold" font-weight="bold" font-size="35.0" fill="#FEFFFE" transform="matrix(1.00, 0.00, -0.00, -1.00, 1337.0, 540.0)">.</text><text xml:space="preserve" font-family="FiraMono-Bold" font-weight="bold" font-size="35.0" fill="#FEFFFE" transform="matrix(1.00, 0.00, -0.00, -1.00, 1358.0, 540.0)">m</text><text xml:space="preserve" font-family="FiraMono-Bold" font-weight="bold" font-size="35.0" fill="#FEFFFE" transform="matrix(1.00, 0.00, -0.00, -1.00, 1379.0, 540.0)">i</text><text xml:space="preserve" font-family="FiraMono-Bold" font-weight="bold" font-size="35.0" fill="#FEFFFE" transform="matrix(1.00, 0.00, -0.00, -1.00, 1400.0, 540.0)">n</text><text xml:space="preserve" font-family="FiraMono-Bold" font-weight="bold" font-size="35.0" fill="#FEFFFE" transform="matrix(1.00, 0.00, -0.00, -1.00, 1421.0, 540.0)">.</text><text xml:space="preserve" font-family="FiraMono-Bold" font-weight="bold" font-size="35.0" fill="#FEFFFE" transform="matrix(1.00, 0.00, -0.00, -1.00, 1442.0, 540.0)">j</text><text xml:space="preserve" font-family="FiraMono-Bold" font-weight="bold" font-size="35.0" fill="#FEFFFE" transform="matrix(1.00, 0.00, -0.00, -1.00, 1463.0, 540.0)">s</text><text xml:space="preserve" font-family="FiraMono-Bold" font-weight="bold" font-size="35.0" fill="#FEFFFE" transform="matrix(1.00, 0.00, -0.00, -1.00, 1484.0, 540.0)">"</text><text xml:space="preserve" font-family="FiraMono-Bold" font-weight="bold" font-size="35.0" fill="#FEFFFE" transform="matrix(1.00, 0.00, -0.00, -1.00, 1505.0, 540.0)">&gt;</text><text xml:space="preserve" font-family="FiraMono-Bold" font-weight="bold" font-size="35.0" fill="#FEFFFE" transform="matrix(1.00, 0.00, -0.00, -1.00, 1526.0, 540.0)">&lt;</text><text xml:space="preserve" font-family="FiraMono-Bold" font-weight="bold" font-size="35.0" fill="#FEFFFE" transform="matrix(1.00, 0.00, -0.00, -1.00, 1547.0, 540.0)">/</text><text xml:space="preserve" font-family="FiraMono-Bold" font-weight="bold" font-size="35.0" fill="#10DAE2" transform="matrix(1.00, 0.00, -0.00, -1.00, 1568.0, 540.0)">s</text><text xml:space="preserve" font-family="FiraMono-Bold" font-weight="bold" font-size="35.0" fill="#10DAE2" transform="matrix(1.00, 0.00, -0.00, -1.00, 1589.0, 540.0)">c</text><text xml:space="preserve" font-family="FiraMono-Bold" font-weight="bold" font-size="35.0" fill="#10DAE2" transform="matrix(1.00, 0.00, -0.00, -1.00, 1610.0, 540.0)">r</text><text xml:space="preserve" font-family="FiraMono-Bold" font-weight="bold" font-size="35.0" fill="#10DAE2" transform="matrix(1.00, 0.00, -0.00, -1.00, 1631.0, 540.0)">i</text><text xml:space="preserve" font-family="FiraMono-Bold" font-weight="bold" font-size="35.0" fill="#10DAE2" transform="matrix(1.00, 0.00, -0.00, -1.00, 1652.0, 540.0)">p</text><text xml:space="preserve" font-family="FiraMono-Bold" font-weight="bold" font-size="35.0" fill="#10DAE2" transform="matrix(1.00, 0.00, -0.00, -1.00, 1673.0, 540.0)">t</text><text xml:space="preserve" font-family="FiraMono-Bold" font-weight="bold" font-size="35.0" fill="#FEFFFE" transform="matrix(1.00, 0.00, -0.00, -1.00, 1694.0, 540.0)">&gt;</text><text xml:space="preserve" font-family="FiraMono-Bold" font-weight="bold" font-size="35.0" fill="#A6AAA8" transform="matrix(1.00, 0.00, -0.00, -1.00, 1715.0, 540.0)"> </text><text xml:space="preserve" font-family="FiraMono-Medium" font-size="35.0" fill="#A6AAA8" transform="matrix(1.00, 0.00, -0.00, -1.00, 161.0, 498.0)"> </text><text xml:space="preserve" font-family="FiraMono-Medium" font-size="35.0" fill="#A6AAA8" transform="matrix(1.00, 0.00, -0.00, -1.00, 182.0, 498.0)"> </text><text xml:space="preserve" font-family="FiraMono-Medium" font-size="35.0" fill="#A6AAA8" transform="matrix(1.00, 0.00, -0.00, -1.00, 203.0, 498.0)">&lt;</text><text xml:space="preserve" font-family="FiraMono-Medium" font-size="35.0" fill="#A6AAA8" transform="matrix(1.00, 0.00, -0.00, -1.00, 224.0, 498.0)">/</text><text xml:space="preserve" font-family="FiraMono-Medium" font-size="35.0" fill="#A6AAA8" transform="matrix(1.00, 0.00, -0.00, -1.00, 245.0, 498.0)">h</text><text xml:space="preserve" font-family="FiraMono-Medium" font-size="35.0" fill="#A6AAA8" transform="matrix(1.00, 0.00, -0.00, -1.00, 266.0, 498.0)">e</text><text xml:space="preserve" font-family="FiraMono-Medium" font-size="35.0" fill="#A6AAA8" transform="matrix(1.00, 0.00, -0.00, -1.00, 287.0, 498.0)">a</text><text xml:space="preserve" font-family="FiraMono-Medium" font-size="35.0" fill="#A6AAA8" transform="matrix(1.00, 0.00, -0.00, -1.00, 308.0, 498.0)">d</text><text xml:space="preserve" font-family="FiraMono-Medium" font-size="35.0" fill="#A6AAA8" transform="matrix(1.00, 0.00, -0.00, -1.00, 329.0, 498.0)">&gt;</text><text xml:space="preserve" font-family="FiraMono-Medium" font-size="35.0" fill="#A6AAA8" transform="matrix(1.00, 0.00, -0.00, -1.00, 350.0, 498.0)"> </text><text xml:space="preserve" font-family="FiraMono-Medium" font-size="35.0" fill="#A6AAA8" transform="matrix(1.00, 0.00, -0.00, -1.00, 161.0, 456.0)"> </text><text xml:space="preserve" font-family="FiraMono-Medium" font-size="35.0" fill="#A6AAA8" transform="matrix(1.00, 0.00, -0.00, -1.00, 182.0, 456.0)"> </text><text xml:space="preserve" font-family="FiraMono-Medium" font-size="35.0" fill="#A6AAA8" transform="matrix(1.00, 0.00, -0.00, -1.00, 203.0, 456.0)">&lt;</text><text xml:space="preserve" font-family="FiraMono-Medium" font-size="35.0" fill="#A6AAA8" transform="matrix(1.00, 0.00, -0.00, -1.00, 224.0, 456.0)">b</text><text xml:space="preserve" font-family="FiraMono-Medium" font-size="35.0" fill="#A6AAA8" transform="matrix(1.00, 0.00, -0.00, -1.00, 245.0, 456.0)">o</text><text xml:space="preserve" font-family="FiraMono-Medium" font-size="35.0" fill="#A6AAA8" transform="matrix(1.00, 0.00, -0.00, -1.00, 266.0, 456.0)">d</text><text xml:space="preserve" font-family="FiraMono-Medium" font-size="35.0" fill="#A6AAA8" transform="matrix(1.00, 0.00, -0.00, -1.00, 287.0, 456.0)">y</text><text xml:space="preserve" font-family="FiraMono-Medium" font-size="35.0" fill="#A6AAA8" transform="matrix(1.00, 0.00, -0.00, -1.00, 308.0, 456.0)">&gt;</text><text xml:space="preserve" font-family="FiraMono-Medium" font-size="35.0" fill="#A6AAA8" transform="matrix(1.00, 0.00, -0.00, -1.00, 329.0, 456.0)"> </text><text xml:space="preserve" font-family="FiraMono-Bold" font-weight="bold" font-size="35.0" fill="#000000" transform="matrix(1.00, 0.00, -0.00, -1.00, 161.0, 406.0)"> </text><text xml:space="preserve" font-family="FiraMono-Bold" font-weight="bold" font-size="35.0" fill="#000000" transform="matrix(1.00, 0.00, -0.00, -1.00, 182.0, 406.0)"> </text><text xml:space="preserve" font-family="FiraMono-Bold" font-weight="bold" font-size="35.0" fill="#000000" transform="matrix(1.00, 0.00, -0.00, -1.00, 203.0, 406.0)"> </text><text xml:space="preserve" font-family="FiraMono-Bold" font-weight="bold" font-size="35.0" fill="#000000" transform="matrix(1.00, 0.00, -0.00, -1.00, 224.0, 406.0)"> </text><text xml:space="preserve" font-family="FiraMono-Bold" font-weight="bold" font-size="35.0" fill="#FEFFFE" transform="matrix(1.00, 0.00, -0.00, -1.00, 245.0, 406.0)">&lt;</text><text xml:space="preserve" font-family="FiraMono-Medium" font-size="35.0" fill="#FEFFFE" transform="matrix(1.00, 0.00, -0.00, -1.00, 266.0, 406.0)">a</text><text xml:space="preserve" font-family="FiraMono-Medium" font-size="35.0" fill="#FEFFFE" transform="matrix(1.00, 0.00, -0.00, -1.00, 287.0, 406.0)">-</text><text xml:space="preserve" font-family="FiraMono-Bold" font-weight="bold" font-size="35.0" fill="#FE3772" transform="matrix(1.00, 0.00, -0.00, -1.00, 308.0, 406.0)">s</text><text xml:space="preserve" font-family="FiraMono-Bold" font-weight="bold" font-size="35.0" fill="#FE3772" transform="matrix(1.00, 0.00, -0.00, -1.00, 329.0, 406.0)">c</text><text xml:space="preserve" font-family="FiraMono-Bold" font-weight="bold" font-size="35.0" fill="#FE3772" transform="matrix(1.00, 0.00, -0.00, -1.00, 350.0, 406.0)">e</text><text xml:space="preserve" font-family="FiraMono-Bold" font-weight="bold" font-size="35.0" fill="#FE3772" transform="matrix(1.00, 0.00, -0.00, -1.00, 371.0, 406.0)">n</text><text xml:space="preserve" font-family="FiraMono-Bold" font-weight="bold" font-size="35.0" fill="#FE3772" transform="matrix(1.00, 0.00, -0.00, -1.00, 392.0, 406.0)">e</text><text xml:space="preserve" font-family="FiraMono-Bold" font-weight="bold" font-size="35.0" fill="#FEFFFE" transform="matrix(1.00, 0.00, -0.00, -1.00, 413.0, 406.0)">&gt;</text><text xml:space="preserve" font-family="FiraMono-Bold" font-weight="bold" font-size="35.0" fill="#FEFFFE" transform="matrix(1.00, 0.00, -0.00, -1.00, 434.0, 406.0)"> </text><text xml:space="preserve" font-family="FiraMono-Bold" font-weight="bold" font-size="35.0" fill="#FEFFFF" transform="matrix(1.00, 0.00, -0.00, -1.00, 161.0, 356.0)"> </text><text xml:space="preserve" font-family="FiraMono-Bold" font-weight="bold" font-size="35.0" fill="#FEFFFF" transform="matrix(1.00, 0.00, -0.00, -1.00, 182.0, 356.0)"> </text><text xml:space="preserve" font-family="FiraMono-Bold" font-weight="bold" font-size="35.0" fill="#FEFFFF" transform="matrix(1.00, 0.00, -0.00, -1.00, 203.0, 356.0)"> </text><text xml:space="preserve" font-family="FiraMono-Bold" font-weight="bold" font-size="35.0" fill="#FEFFFF" transform="matrix(1.00, 0.00, -0.00, -1.00, 224.0, 356.0)"> </text><text xml:space="preserve" font-family="FiraMono-Bold" font-weight="bold" font-size="35.0" fill="#FEFFFF" transform="matrix(1.00, 0.00, -0.00, -1.00, 245.0, 356.0)">&lt;</text><text xml:space="preserve" font-family="FiraMono-Bold" font-weight="bold" font-size="35.0" fill="#FEFFFF" transform="matrix(1.00, 0.00, -0.00, -1.00, 266.0, 356.0)">/</text><text xml:space="preserve" font-family="FiraMono-Medium" font-size="35.0" fill="#FEFFFF" transform="matrix(1.00, 0.00, -0.00, -1.00, 287.0, 356.0)">a</text><text xml:space="preserve" font-family="FiraMono-Medium" font-size="35.0" fill="#FEFFFF" transform="matrix(1.00, 0.00, -0.00, -1.00, 308.0, 356.0)">-</text><text xml:space="preserve" font-family="FiraMono-Bold" font-weight="bold" font-size="35.0" fill="#FE3772" transform="matrix(1.00, 0.00, -0.00, -1.00, 329.0, 356.0)">s</text><text xml:space="preserve" font-family="FiraMono-Bold" font-weight="bold" font-size="35.0" fill="#FE3772" transform="matrix(1.00, 0.00, -0.00, -1.00, 350.0, 356.0)">c</text><text xml:space="preserve" font-family="FiraMono-Bold" font-weight="bold" font-size="35.0" fill="#FE3772" transform="matrix(1.00, 0.00, -0.00, -1.00, 371.0, 356.0)">e</text><text xml:space="preserve" font-family="FiraMono-Bold" font-weight="bold" font-size="35.0" fill="#FE3772" transform="matrix(1.00, 0.00, -0.00, -1.00, 392.0, 356.0)">n</text><text xml:space="preserve" font-family="FiraMono-Bold" font-weight="bold" font-size="35.0" fill="#FE3772" transform="matrix(1.00, 0.00, -0.00, -1.00, 413.0, 356.0)">e</text><text xml:space="preserve" font-family="FiraMono-Bold" font-weight="bold" font-size="35.0" fill="#FEFFFF" transform="matrix(1.00, 0.00, -0.00, -1.00, 434.0, 356.0)">&gt;</text><text xml:space="preserve" font-family="FiraMono-Bold" font-weight="bold" font-size="35.0" fill="#FEFFFF" transform="matrix(1.00, 0.00, -0.00, -1.00, 455.0, 356.0)"> </text><text xml:space="preserve" font-family="FiraMono-Medium" font-size="35.0" fill="#A6AAA8" transform="matrix(1.00, 0.00, -0.00, -1.00, 161.0, 314.0)"> </text><text xml:space="preserve" font-family="FiraMono-Medium" font-size="35.0" fill="#A6AAA8" transform="matrix(1.00, 0.00, -0.00, -1.00, 182.0, 314.0)"> </text><text xml:space="preserve" font-family="FiraMono-Medium" font-size="35.0" fill="#A6AAA8" transform="matrix(1.00, 0.00, -0.00, -1.00, 203.0, 314.0)">&lt;</text><text xml:space="preserve" font-family="FiraMono-Medium" font-size="35.0" fill="#A6AAA8" transform="matrix(1.00, 0.00, -0.00, -1.00, 224.0, 314.0)">/</text><text xml:space="preserve" font-family="FiraMono-Medium" font-size="35.0" fill="#A6AAA8" transform="matrix(1.00, 0.00, -0.00, -1.00, 245.0, 314.0)">b</text><text xml:space="preserve" font-family="FiraMono-Medium" font-size="35.0" fill="#A6AAA8" transform="matrix(1.00, 0.00, -0.00, -1.00, 266.0, 314.0)">o</text><text xml:space="preserve" font-family="FiraMono-Medium" font-size="35.0" fill="#A6AAA8" transform="matrix(1.00, 0.00, -0.00, -1.00, 287.0, 314.0)">d</text><text xml:space="preserve" font-family="FiraMono-Medium" font-size="35.0" fill="#A6AAA8" transform="matrix(1.00, 0.00, -0.00, -1.00, 308.0, 314.0)">y</text><text xml:space="preserve" font-family="FiraMono-Medium" font-size="35.0" fill="#A6AAA8" transform="matrix(1.00, 0.00, -0.00, -1.00, 329.0, 314.0)">&gt;</text><text xml:space="preserve" font-family="FiraMono-Medium" font-size="35.0" fill="#A6AAA8" transform="matrix(1.00, 0.00, -0.00, -1.00, 350.0, 314.0)"> </text><text xml:space="preserve" font-family="FiraMono-Medium" font-size="35.0" fill="#A6AAA8" transform="matrix(1.00, 0.00, -0.00, -1.00, 161.0, 272.0)">&lt;</text><text xml:space="preserve" font-family="FiraMono-Medium" font-size="35.0" fill="#A6AAA8" transform="matrix(1.00, 0.00, -0.00, -1.00, 182.0, 272.0)">/</text><text xml:space="preserve" font-family="FiraMono-Medium" font-size="35.0" fill="#A6AAA8" transform="matrix(1.00, 0.00, -0.00, -1.00, 203.0, 272.0)">h</text><text xml:space="preserve" font-family="FiraMono-Medium" font-size="35.0" fill="#A6AAA8" transform="matrix(1.00, 0.00, -0.00, -1.00, 224.0, 272.0)">t</text><text xml:space="preserve" font-family="FiraMono-Medium" font-size="35.0" fill="#A6AAA8" transform="matrix(1.00, 0.00, -0.00, -1.00, 245.0, 272.0)">m</text><text xml:space="preserve" font-family="FiraMono-Medium" font-size="35.0" fill="#A6AAA8" transform="matrix(1.00, 0.00, -0.00, -1.00, 266.0, 272.0)">l</text><text xml:space="preserve" font-family="FiraMono-Medium" font-size="35.0" fill="#A6AAA8" transform="matrix(1.00, 0.00, -0.00, -1.00, 287.0, 272.0)">&gt;</text><text xml:space="preserve" font-family="Helvetica-Bold" font-weight="bold" font-size="90.0" fill="#FEFFFF" transform="matrix(1.00, 0.00, -0.00, -1.00, 162.0, 809.0)">E</text><text xml:space="preserve" font-family="Helvetica-Bold" font-weight="bold" font-size="90.0" fill="#FEFFFF" transform="matrix(1.00, 0.00, -0.00, -1.00, 222.0, 809.0)">a</text><text xml:space="preserve" font-family="Helvetica-Bold" font-weight="bold" font-size="90.0" fill="#FEFFFF" transform="matrix(1.00, 0.00, -0.00, -1.00, 272.1, 809.0)">s</text><text xml:space="preserve" font-family="Helvetica-Bold" font-weight="bold" font-size="90.0" fill="#FEFFFF" transform="matrix(1.00, 0.00, -0.00, -1.00, 322.2, 809.0)">y</text><text xml:space="preserve" font-family="Helvetica-Bold" font-weight="bold" font-size="90.0" fill="#FEFFFF" transform="matrix(1.00, 0.00, -0.00, -1.00, 372.2, 809.0)"> </text><text xml:space="preserve" font-family="Helvetica-Bold" font-weight="bold" font-size="90.0" fill="#FEFFFF" transform="matrix(1.00, 0.00, -0.00, -1.00, 397.2, 809.0)">t</text><text xml:space="preserve" font-family="Helvetica-Bold" font-weight="bold" font-size="90.0" fill="#FEFFFF" transform="matrix(1.00, 0.00, -0.00, -1.00, 427.2, 809.0)">o</text><text xml:space="preserve" font-family="Helvetica-Bold" font-weight="bold" font-size="90.0" fill="#FEFFFF" transform="matrix(1.00, 0.00, -0.00, -1.00, 482.2, 809.0)"> </text><text xml:space="preserve" font-family="Helvetica-Bold" font-weight="bold" font-size="90.0" fill="#FEFFFF" transform="matrix(1.00, 0.00, -0.00, -1.00, 507.1, 809.0)">g</text><text xml:space="preserve" font-family="Helvetica-Bold" font-weight="bold" font-size="90.0" fill="#FEFFFF" transform="matrix(1.00, 0.00, -0.00, -1.00, 562.1, 809.0)">e</text><text xml:space="preserve" font-family="Helvetica-Bold" font-weight="bold" font-size="90.0" fill="#FEFFFF" transform="matrix(1.00, 0.00, -0.00, -1.00, 612.2, 809.0)">t</text><text xml:space="preserve" font-family="Helvetica-Bold" font-weight="bold" font-size="90.0" fill="#FEFFFF" transform="matrix(1.00, 0.00, -0.00, -1.00, 642.1, 809.0)"> </text><text xml:space="preserve" font-family="Helvetica-Bold" font-weight="bold" font-size="90.0" fill="#FEFFFF" transform="matrix(1.00, 0.00, -0.00, -1.00, 667.1, 809.0)">s</text><text xml:space="preserve" font-family="Helvetica-Bold" font-weight="bold" font-size="90.0" fill="#FEFFFF" transform="matrix(1.00, 0.00, -0.00, -1.00, 717.2, 809.0)">t</text><text xml:space="preserve" font-family="Helvetica-Bold" font-weight="bold" font-size="90.0" fill="#FEFFFF" transform="matrix(1.00, 0.00, -0.00, -1.00, 747.2, 809.0)">a</text><text xml:space="preserve" font-family="Helvetica-Bold" font-weight="bold" font-size="90.0" fill="#FEFFFF" transform="matrix(1.00, 0.00, -0.00, -1.00, 797.2, 809.0)">r</text><text xml:space="preserve" font-family="Helvetica-Bold" font-weight="bold" font-size="90.0" fill="#FEFFFF" transform="matrix(1.00, 0.00, -0.00, -1.00, 832.3, 809.0)">t</text><text xml:space="preserve" font-family="Helvetica-Bold" font-weight="bold" font-size="90.0" fill="#FEFFFF" transform="matrix(1.00, 0.00, -0.00, -1.00, 862.3, 809.0)">e</text><text xml:space="preserve" font-family="Helvetica-Bold" font-weight="bold" font-size="90.0" fill="#FEFFFF" transform="matrix(1.00, 0.00, -0.00, -1.00, 912.3, 809.0)">d</text></g></svg>